<?xml version="1.0" encoding="UTF-8"?><svg id="WZOR" xmlns="http://www.w3.org/2000/svg" viewBox="0 0 141.7323 141.7323"><defs><style>.cls-1{fill:#f1e9da;}.cls-1,.cls-2{stroke-width:0px;}.cls-2{fill:#192a51;}</style></defs><rect id="TLO" class="cls-1" x=".00002" y="0" width="141.73228" height="141.73228" rx="28.34646" ry="28.34646"/><path class="cls-2" d="M113.38586,0H28.3465C12.69116,0,0,12.6911,0,28.34644v85.03937c0,15.65533,12.69116,28.3465,28.3465,28.3465h85.03937c15.65527,0,28.34644-12.69116,28.34644-28.3465V28.34644c0-15.65533-12.69116-28.34644-28.34644-28.34644ZM53.38416,38.46655c0-4.19202,3.39819-7.59021,7.59009-7.59021h5.72369c4.19196,0,7.59021,3.39819,7.59021,7.59021v9.49799h-8.95886v-9.86096c0-.60132-.48749-1.08875-1.08881-1.08875h-.80878c-.60126,0-1.08875.48743-1.08875,1.08875v36.89301c0,.60132.48749,1.08875,1.08875,1.08875h.80878c.60132,0,1.08881-.48743,1.08881-1.08875v-13.81152h8.95886v13.8634c0,4.19183-3.39825,7.59009-7.59021,7.59009h-5.72369c-4.19189,0-7.59009-3.39825-7.59009-7.59009v-36.58191ZM25.51215,30.87634h15.01434v6.88507h-6.55322v15.18024h6.55322v6.38733h-6.71912v17.25409h6.71912v6.05548h-15.01434V30.87634ZM116.2204,110.85596H25.51184v-3.01398h90.70856v3.01398ZM116.22052,82.63855h-6.71918v-33.18097l-5.7926,33.18097h-5.95923l-5.7926-33.18097v33.18097h-6.71918V30.87634h11.55328l3.93811,24.42938,3.93811-24.42938h11.55328v51.76221Z"/></svg>