<?xml version="1.0" encoding="UTF-8"?><svg id="WZOR" xmlns="http://www.w3.org/2000/svg" viewBox="0 0 141.7323 141.7323"><defs><style>.cls-1{fill:#f1e9da;}.cls-1,.cls-2{stroke-width:0px;}.cls-2{fill:#192a51;}</style></defs><rect id="TLO" class="cls-1" x=".00002" y="0" width="141.73228" height="141.73228" rx="28.34646" ry="28.34646"/><path class="cls-2" d="M113.38586,0H28.3465C12.69116,0,0,12.6911,0,28.34644v85.03937c0,15.65533,12.69116,28.3465,28.3465,28.3465h85.03937c15.65527,0,28.34644-12.69116,28.34644-28.3465V28.34644c0-15.65533-12.69116-28.34644-28.34644-28.34644ZM76.4032,10.46698c-.27454,17.22711,4.40369,24.99084,10.92664,29.22937,8.24249,5.35583,17.09174,10.59631,17.14679,21.633.03473,6.96991-7.37384,12.63489-7.58478,17.07965-.24396.35919-.38696.79218-.38696,1.2583v10.48535l-6.45435-9.20551c-.36298-1.70569-.40417-3.34192.05908-4.86548,2.05048-6.7431,7.99628-12.89203,6.88074-19.87158-2.03668-12.7431-17.31189-11.88989-20.58716-27.57794-1.30615-6.25659,0-18.16516,0-18.16516ZM101.69135,78.27246v2.49774h-1.83862v16.50409h-2.49768l-9.89203-14.39075v12.99603c0,.77026-.62439,1.39471-1.39471,1.39471h-2.94159v-2.49774h1.83862v-16.50409h2.17181l10.2179,14.57452v-13.17981c0-.77032.62445-1.39471,1.39471-1.39471h2.94159ZM65.34692,94.77655h1.83862v-16.50409h2.17181l10.2179,14.57452v-13.17981c0-.77032.62445-1.39471,1.39471-1.39471h2.94159v2.49774h-1.83862v16.50409h-2.49768l-9.89203-14.39075v12.99603c0,.77026-.62439,1.39471-1.39471,1.39471h-2.94159v-2.49774ZM50.80688,52.76971c1.30737-10.53436,11.83484-15.33026,11.83484-15.33026,0,0-7.92657,5.75232-7.65137,18.38531.17517,8.03949,7.81653,12.16516,7.81653,17.17432,0,3.83728-1.81018,6.18915-3.55597,8.87683l-1.69232-4.45374h-1.01837c.81104-1.87213,1.3526-3.35028,1.28156-4.20288-.26392-3.16718-7.98267-12.65143-7.01489-20.44958ZM22.15552,97.02661c-5.4342.21283-10.01196-4.01996-10.22479-9.4541-.21277-5.4342,4.01996-10.01196,9.45416-10.22479,2.85144-.11169,5.45923,1.00842,7.33228,2.87616h.00256v3.30273h-2.58716v-2.4856c-1.35205-.93298-3.00909-1.44025-4.77521-1.29883-4.08136.32684-7.125,3.90033-6.79816,7.98169.32678,4.0813,3.90027,7.12494,7.98163,6.79816,2.06934-.16571,3.85638-1.17712,5.086-2.65594l1.53326,1.80914c-1.71558,1.95953-4.19531,3.24139-7.00458,3.35138ZM46.14862,97.27429h-2.49768v-8.22247h-9.89203v8.22247h-2.49768v-16.50409h-1.83862v-2.49774h2.94159c.77026,0,1.39471.62439,1.39471,1.39471v6.88696h9.89203v-6.88696c0-.77032.62445-1.39471,1.39471-1.39471h2.94159v2.49774h-1.83862v16.50409ZM48.63855,97.44977h-1.34375v-2.49768h1.04724l6.31805-16.67963h2.31195l6.33795,16.67963h1.20917v2.49768h-1.34381c-1.92377,0-1.90735-1.00909-3.61304-5.82458h-7.25659c-1.5282,4.23535-1.49054,5.82458-3.66718,5.82458ZM52.34229,94.16046c.16357-.5.34668-1.06055.56396-1.68457h2.58978c-.88104,5.39532-1.01587,11.90851,1.31085,16.90851,3.15497,6.77979,7.76147,10.15594,14.55676,12.44037-10.23621-.07397-20.88928-10.99408-21.14178-23.89465,1.06866-.59955,1.51318-1.91431,2.12042-3.76965ZM100.47888,120.15967c-4.8728,6.81628-15.08942,10.65137-24.37842,11.07794-9.0343.41492-22.81653-3.96332-22.81653-3.96332,19.67889,3.41284,30.90826-.633,36.99084-6.05499,5.08478-4.53259,8.91034-10.42072,8.64221-18.33032-.05109-1.50653-.46979-3.10675-1.10089-4.76367h2.88702v-10.47974c.93158,1.37628,1.91425,2.86316,2.80566,4.58728v6.11218h2.26855c.23688,1.00336.43274,2.07129.57086,3.22284.91351,7.61548-1.10785,11.93121-5.86932,18.5918ZM116.27527,94.99683v1.10297c0,.77026-.62439,1.39471-1.39471,1.39471h-10.52087v-16.7243h-1.61011v-2.49774h11.36212c.77039,0,1.39471.62408,1.39471,1.39471v2.94159h-2.49774v-1.83862h-6.15131v5.784h6.9151v2.49768h-6.9151v5.94501h6.92017v-1.83862h2.49774v1.83862ZM129.80933,94.99683v1.10297c0,.77026-.62439,1.39471-1.39471,1.39471h-9.95398v-16.7243h-1.83862v-2.49774h2.94159c.77032,0,1.39471.62439,1.39471,1.39471v15.32965h6.35327v-1.83862h2.49774v1.83862Z"/><path class="cls-2" d="M55.96747,81.47614l-2.76062,7.65137h5.47076l-2.71014-7.65137ZM56.36951,88.27667h-1.95154l1.54199-4.27441.90582,2.55713c-.07697.22943-.15637.45581-.22406.69659-.09198.32727-.18268.67029-.27222,1.02069Z"/></svg>