<?xml version="1.0" encoding="UTF-8"?><svg id="WZOR" xmlns="http://www.w3.org/2000/svg" viewBox="0 0 141.7323 141.7323"><defs><style>.cls-1{fill:#f1e9da;}.cls-1,.cls-2{stroke-width:0px;}.cls-2{fill:#192a51;}</style></defs><rect id="TLO" class="cls-1" x=".00002" y="0" width="141.73228" height="141.73228" rx="28.34646" ry="28.34646"/><path class="cls-2" d="M47.50598,64.14813c-1.84509.00769-3.65967,2.89252-4.1167,9.28381l-.34729,6.83063c-.00604.11884.04364.2337.13409.31091s.21161.10809.328.08356c2.60406-.54938,4.03369-2.73364,5.00452-8.38104.7984-4.64465.5874-8.13446-1.00262-8.12787Z"/><path class="cls-2" d="M92.70355,61.70721c-2.75574.04126-4.27295,4.56189-4.29358,9.19171-.01501,3.36182-.0473,8.17059,2.31189,8.29224,2.00232.10321,3.15826-3.23053,3.88074-6.08948.69092-2.73401.48999-8.38428.18579-9.4541-.29932-1.0528-.97272-1.95703-2.08484-1.94037Z"/><path class="cls-2" d="M57.10358,69.52502c.06073.02838.13202.02124.18585-.01862,2.01556-1.492,3.08545-2.85425,3.50671-4.79974.78802-3.63953-1.97644-3.23022-2.88757-1.21014-.83337,1.84753-1.04279,3.57983-.90985,5.87396.00385.06683.04419.12616.10486.15454Z"/><path class="cls-2" d="M113.38586,0H28.3465C12.69116,0,0,12.6911,0,28.34644v85.03937c0,15.65533,12.69116,28.3465,28.3465,28.3465h85.03937c15.65527,0,28.34644-12.69116,28.34644-28.3465V28.34644c0-15.65533-12.69116-28.34644-28.34644-28.34644ZM38.1521,64.58948c-.05164.1416-.16852.24951-.31378.28967l-.12958.03583c-3.82727,10.27081-6.45276,19.26312-9.10663,28.84619-.13245.47815-.47375.87286-.92798,1.07233l-2.20306.96735c-.18506.0813-.40106.04102-.54443-.1015-.14343-.14246-.18506-.35822-.10492-.54382l5.06824-11.7428c.06732-.15594.08667-.32642.0567-.49359-1.36322-7.60522-3.05206-16.56287-4.79578-18.46625-.22943-.25043-.60669-.29865-.89111-.11304-.52026.33954-.97272.64258-1.38257.97839-.4129.33832-.68445.81708-.76343,1.34503-.4361,2.91455-.66638,6.25739-.40564,10.16779.08521,1.27814.35437,1.79498,1.02924,2.09906.08466.03815.14264.11841.15228.21075s-.03058.18268-.10553.23755l-3.93445,2.883c-.08221.0603-.19208.06714-.28113.01752-.08911-.04962-.14105-.14655-.13318-.24823.44751-5.77405.84619-10.5567.49292-14.91522-.14526-1.79236-.76154-2.79523-1.89905-2.84863-1.34863-.06335-2.77264,1.7948-3.34406,4.211-.93719,3.96265-.95166,7.24921-.48401,11.03436.0647.52368-.18042,1.03864-.62781,1.3183l-2.75519,1.72235c-.06873.04297-.15594.04279-.22449-.00037-.0686-.04321-.10626-.12177-.09723-.20233,1.08319-9.67365,1.45087-17.54602.92725-28.83789-.10315-2.22412-.61871-3.0661-1.883-3.41132-.07843-.02142-.13757-.08594-.15216-.16589s.01813-.16107.08386-.20874c1.99017-1.44385,3.50299-2.52509,5.5152-3.80353.06604-.04193.1499-.04395.2179-.00513.06799.03876.10901.112.10645.19025-.07379,2.22473-.4433,13.2196-.72998,19.03619,2.78461-2.46869,4.86713-4.43829,6.58484-4.46899,1.87592-.03357,2.42236,1.02026,2.35321,4.00458,1.87354-1.71741,3.02271-2.77502,4.60162-3.685,1.59814-.92108,1.82782.39191,4.35107,14.59082.00562.03131.07288.12024.16376.24164.11798.15771.31274.23828.50763.21008.19489-.02826.35834-.16095.42688-.34552,2.16827-5.84137,3.08069-9.68213,4.50183-17.06018.71033-3.68793-.01044-7.0058-1.35651-7.81647-.08392-.05054-.1311-.1449-.12122-.24231s.07507-.18042.16742-.21301c1.42871-.50397,2.55365-.70551,3.80688-.6839.82574.01428,1.5025.65149,1.56879,1.47473.20312,2.52246-1.54865,7.50708-3.05389,12.74469-.02081.05524-.03931.10785-.06006.16302l.07397.10754c.08539.12421.10547.28204.05389.42365ZM52.07965,68.39526c-1.52582,9.63525-4.73749,13.23236-8.78027,13.64545-.40259.04114-.70667.38098-.70184.78564.02649,2.20465-.03601,5.31903-.12732,8.38354-.00598.20148-.11145.38696-.28162.49487-.98218.6228-1.86871,1.29749-2.82227,2.21582-.10504.10107-.26282.12408-.39246.05743s-.20264-.20825-.18164-.35248c.56946-3.90967,1.07928-7.75549,1.39026-11.17511-.51752.2334-1.35449-.02039-1.32349-.68781.01282-.27448.18988-.51416.44849-.60706.35492-.1275.68042-.28174.9892-.45184.31647-4.29883.41968-8.76215.28528-14.35205-.03302-1.37427-.53955-2.00232-1.40509-2.26404-.0838-.02539-.14526-.09711-.15753-.18384s.02692-.17267.1004-.22028c1.74933-1.13391,2.92474-2.00177,4.62347-3.43304.06433-.05426.15344-.06824.23114-.03601.07776.03223.13098.10516.138.18903.10388,1.23566.08868,2.65356.01129,4.2688-.0047.09857.0556.18866.14844.22217.09277.03357.19659.00275.25604-.07605,2.24323-2.97266,4.2489-4.38763,5.72125-4.336,1.84375.0647,2.69482,2.45361,1.83026,7.91284ZM65.68347,72.11279c-1.68408,4.39984-3.1662,7.12207-6.24139,9.21826-4.37659,2.98322-5.65601-.59174-5.72382-3.33899-.13062-5.2887-.24866-10.43622,1.12744-13.47754.98187-2.16992,2.55896-3.24493,4.94385-3.8291,3.71545-.91016,4.54126.0722,4.16211,2.22485-.51825,2.94196-2.83105,5.2616-6.79187,8.1579-.26965.19714-.44965.49365-.50012.82385-.23462,1.53461-.24054,2.56256-.08002,4.40234.18164,2.0813.93579,3.57794,1.98169,3.4679,2.29211-.24127,3.80121-2.49957,4.44165-6.25067.02875-.16821.14166-.31012.29919-.37561.90344-.37549,1.52081-.73358,2.14319-1.20258.05524-.04163.13141-.0415.18658.00012.05524.04156.07623.11469.05151.17926ZM75.57996,63.28271c-.61871-.0517-1.29218.01825-1.87518.50293-2.51434,2.09039-3.29358,8.14313-2.974,15.96869.01294.31726-.15533.61475-.43414.76672-.78186.42627-1.71075,1.03998-2.67255,1.75549-.12549.09338-.29529.10077-.42847.01868-.13318-.08203-.20288-.237-.1759-.39111.9809-5.60419,1.27911-10.0141.89941-16.4538-.0686-1.16394-.42822-1.58386-1.07623-1.76672-.08771-.02478-.1524-.09924-.16461-.18964-.01221-.09033.0304-.17926.1084-.22644,1.60254-.96893,2.77026-1.75067,4.34985-2.84009.06818-.04706.15637-.05377.23077-.01727s.12323.11041.12769.19318c.05066.94708.05139,2.034-.00024,3.28552-.00281.06775.03979.12915.10413.15057.06439.02136.13513-.00238.17352-.05829.90826-1.32355,1.82001-2.38403,2.80951-3.08881.46741-.33289,1.03015-.50659,1.60394-.49664,1.11115.01929,2.08929.0528,3.41956.00238.04047-.00159.07733.02301.09149.06091s.00238.08063-.02924.10596c-.89948.72046-1.57397,1.29108-2.3194,2.0564-.46112.47351-1.10968.71637-1.76831.66138ZM81.57739,77.065c.04999,1.05139.40814,1.59802.97906,1.87.10626.0506.17535.15631.17926.27393.00397.11761-.05798.2276-.16052.28528-1.33752.75214-2.53284,1.46271-4.03418,2.47284-.12872.08655-.29608.09015-.42847.00922-.13232-.08087-.20544-.23138-.18719-.38544.82135-6.92645,1.25433-13.71411.71936-18.16113-.03351-.27856.10864-.54895.35718-.6792,1.33557-.69977,2.2182-1.26489,3.2663-2.21887.09973-.09076.24634-.10779.36438-.04266.1181.06512.18164.19818.15814.33093-.96594,5.45911-1.5257,9.67493-1.21332,16.24512ZM82.79559,51.88153c-1.71832,1.06305-7.01672,1.13055-9.46716,1.1015-.08429-.00098-.15485-.06427-.16498-.14795-.01007-.08368.04333-.16187.12494-.18304,5.47156-1.41675,8.7674-3.21747,12.09955-6.28064.05609-.05151.1394-.05988.20459-.02051.06525.03937.0968.11707.07721.19067-.33997,1.27936-1.30145,4.367-2.87415,5.33997ZM96.70465,74.18469c-2.52991,6.20947-5.26575,7.63324-8.66626,7.47662-1.84869-.08514-2.90369-3.4679-2.75232-10.91077.08936-4.39349,1.56348-10.22742,8.64221-10.61218,4.76752-.25909,4.5473,3.38989,4.58087,4.85785.06165,2.70001-.76892,6.64679-1.8045,9.18848ZM132.79071,68.0788c-2.12152,6.52069-5.00165,10.04028-12.37317,12.6532-.82672.29309-1.68317.45569-2.55988.48206-3.31519.09985-5.58826.08484-9.10876.06458-.10083-.00055-.19452-.05219-.24908-.13696-.05457-.08484-.06262-.19141-.02142-.28345,1.70447-3.80707,2.32764-6.87799,2.30774-12.81384-.00964-2.86926-.54706-4.69611-2.22937-4.74768-3.4812-.10681-4.69354,6.53534-4.44678,15.87299.00488.18585-.09979.35748-.26727.43817-.90588.43616-1.8996,1.07599-2.98425,1.81097-.0647.04382-.14917.04517-.21521.00342s-.10107-.11865-.08923-.19586c.84497-5.51648,1.48804-9.81433,1.0257-15.86548-.10492-1.37286-.71759-2.01172-1.64575-2.40436-.07062-.02991-.11737-.09821-.11975-.17487s.0401-.14771.10876-.18195c1.55414-.77478,2.90759-1.52985,4.80194-2.90131.0592-.04291.13721-.0495.2027-.01697.06543.03247.10742.09869.10901.17181.02808,1.33398-.02167,2.26978-.11273,3.55206-.00653.09174.0448.17786.1286.21588.08374.03802.18231.01996.24707-.04535,1.73438-1.74683,8.3045-8.17822,8.73425.51208.26135,5.28467-.82294,9.57556-3.15594,14.8045-.04175.09369-.03278.20215.02417.28741.05695.08533.15375.13538.25623.13263l7.59814-.20563c.28839-.00781.58905-.03162.87512-.06909,5.4541-.71423,10.49249-4.96069,11.36328-10.26062-.01086-1.15863-.11475-1.85889-.38275-2.24988-.24316-.3548-.39111-.75934-.43207-1.1875-.15424-1.61206.26233-2.54449,1.24829-2.60046,2.81659-.15979,1.83502,3.8869,1.36243,5.33948Z"/></svg>