<?xml version="1.0" encoding="UTF-8"?><svg id="WZOR" xmlns="http://www.w3.org/2000/svg" viewBox="0 0 141.7323 141.7323"><defs><style>.cls-1{fill:#f1e9da;}.cls-1,.cls-2{stroke-width:0px;}.cls-2{fill:#192a51;}</style></defs><rect id="TLO" class="cls-1" x=".00002" y="0" width="141.73228" height="141.73228" rx="28.34646" ry="28.34646"/><path class="cls-2" d="M93.62164,77.00751v-5.49146h-5.48383c1.40717,1.72681,1.28931,3.6424.19916,5.49146h5.28467Z"/><path class="cls-2" d="M93.62164,64.72479h-5.88995c.35223.70892.5979,1.53284.73138,2.47772l-3.40594-.02069c-.15997-1.45258-.69012-2.21497-2.12616-2.4151-.23816-.0332-.58472-.04211-.94275-.04193h-.26068c-.40985.00629-.81555.02429-1.08789.04193-.91949.05945-1.61743.4566-1.87842,1.48621-.34216,1.34979.47046,1.8526,3.55048,2.70416,1.39642.38605,3.09631.6499,4.28906,1.25916h7.02087v-5.49146Z"/><path class="cls-2" d="M82.43555,76.86304c2.11786-.14459,2.90021-.58832,3.15826-2.00232.31506-1.21198-.73279-1.90936-2.76605-2.35321-1.38232-.3017-2.61487-.46429-3.95435-.99146h-6.28418v5.49146h3.43579c-.46814-.76721-.78717-1.73456-.85553-2.97247h3.34406c.60278,2.23761,1.48572,2.875,3.922,2.828Z"/><path class="cls-2" d="M69.24518,77.00751v-5.49146h-3.49756c.36243.57428.59003,1.32971.71771,2.34698.11078,1.16388-.22278,2.24695-.84607,3.14447h3.62592Z"/><path class="cls-2" d="M76.0235,64.72479h-3.43427v5.49146h4.05188c-1.19836-1.14258-1.66498-2.99731-.85236-5.01605.06824-.16956.15533-.31824.23474-.4754Z"/><path class="cls-2" d="M93.62164,57.93347h-45.51099v5.49152h4.29047v-1.23785c7.52893-.16864,10.72034-.2486,12.28558,1.23785h4.55847v-1.32776h3.34406v1.32776h4.33643c1.15326-1.21777,2.83069-1.81653,4.91125-1.81653,2.21674,0,3.85437.62726,4.97217,1.81653h6.81256v-5.49152Z"/><polygon class="cls-2" points="46.81085 57.93347 1.2998 57.93347 1.2998 63.42499 31.54602 63.42499 36.17218 59.57025 38.51508 59.57025 33.88892 63.42499 46.81085 63.42499 46.81085 57.93347"/><path class="cls-2" d="M17.58826,77.00751h29.2226v-5.49146h-22.6322l-6.59039,5.49146ZM25.99115,72.50787c1.026,0,1.85779.83173,1.85779,1.85779,0,1.026-.83179,1.85779-1.85779,1.85779-1.02606,0-1.85785-.83179-1.85785-1.85779,0-1.02606.83179-1.85779,1.85785-1.85779Z"/><polygon class="cls-2" points="46.81085 64.72479 32.32898 64.72479 25.73859 70.21625 46.81085 70.21625 46.81085 64.72479"/><path class="cls-2" d="M140.4325,85.09863H0v28.28717c0,15.65533,12.69116,28.3465,28.3465,28.3465h85.03937c15.65527,0,28.34644-12.69116,28.34644-28.3465v-28.28717h-1.2998Z"/><polygon class="cls-2" points="1.2998 77.00751 15.2453 77.00751 21.83575 71.51605 1.2998 71.51605 1.2998 77.00751"/><polygon class="cls-2" points="1.2998 83.79883 46.81085 83.79883 46.81085 78.30731 16.02832 78.30731 12.55969 81.19757 10.21674 81.19757 13.68542 78.30731 1.2998 78.30731 1.2998 83.79883"/><path class="cls-2" d="M1.2998,70.21625h22.09589l6.59039-5.49146H1.2998v5.49146ZM20.59149,65.86072c1.02606,0,1.85779.83179,1.85779,1.85785,0,1.026-.83173,1.85779-1.85779,1.85779-1.026,0-1.85779-.83179-1.85779-1.85779,0-1.02606.83179-1.85785,1.85779-1.85785Z"/><path class="cls-2" d="M69.24518,64.72479h-3.70013c.13483.32367.25446.67584.35651,1.0802.19324,2.02942-.55121,3.58954-2.22388,4.34351.07892.0191.14508.0462.21997.06775h5.34753v-5.49146Z"/><path class="cls-2" d="M48.11066,83.79883h45.51099v-5.49152h-6.32117c-1.23846,1.12231-2.85101,1.38715-4.86493,1.44562-1.36353.03961-3.62091-.14142-5.26208-1.44562h-4.58423v1.14288h-3.34406v-1.14288h-4.9093c-.97546.71332-2.18988,1.14288-3.4577,1.14288h-8.47705v-1.14288h-4.29047v5.49152Z"/><polygon class="cls-2" points="140.4325 57.93347 94.92145 57.93347 94.92145 63.42499 126.18439 63.42499 130.81055 59.57025 133.15344 59.57025 128.52728 63.42499 140.4325 63.42499 140.4325 57.93347"/><polygon class="cls-2" points="94.92145 83.79883 140.4325 83.79883 140.4325 78.30731 110.66669 78.30731 107.19806 81.19757 104.8551 81.19757 108.32379 78.30731 94.92145 78.30731 94.92145 83.79883"/><polygon class="cls-2" points="94.92145 77.00751 109.88367 77.00751 116.47412 71.51605 94.92145 71.51605 94.92145 77.00751"/><path class="cls-2" d="M55.86902,76.33667s3.67334.10095,4.89221,0c1.24084-.10278,2.10504-.78699,2.13647-2.28094.02997-1.42517-.68121-2.20874-2.19843-2.28101-1.20618-.05743-4.83026,0-4.83026,0v4.56195Z"/><path class="cls-2" d="M112.22662,77.00751h28.20587v-5.49146h-21.61548l-6.59039,5.49146ZM120.62946,72.50787c1.02606,0,1.85779.83173,1.85779,1.85779,0,1.026-.83173,1.85779-1.85779,1.85779-1.026,0-1.85779-.83179-1.85779-1.85779,0-1.02606.83179-1.85779,1.85779-1.85779Z"/><path class="cls-2" d="M94.92145,70.21625h23.11261l6.59039-5.49146h-29.703v5.49146ZM115.22986,65.86072c1.02606,0,1.85779.83179,1.85779,1.85785,0,1.026-.83173,1.85779-1.85779,1.85779s-1.85779-.83179-1.85779-1.85779c0-1.02606.83173-1.85785,1.85779-1.85785Z"/><path class="cls-2" d="M62.55713,66.99609c-.03937-1.18439-.56628-1.69769-2.01263-1.7959-1.17389-.07971-4.67548-.06195-4.67548-.06195v3.71564s3.57281.06366,4.76147,0c1.24689-.06683,1.91956-.60602,1.92664-1.85779Z"/><polygon class="cls-2" points="48.11066 70.21625 52.40112 70.21625 52.40112 70.09241 52.40112 64.72479 48.11066 64.72479 48.11066 70.21625"/><path class="cls-2" d="M113.38586,0H28.3465C12.69116,0,0,12.6911,0,28.34644v28.28723h141.7323v-28.28723c0-15.65533-12.69116-28.34644-28.34644-28.34644Z"/><polygon class="cls-2" points="140.4325 64.72479 126.96735 64.72479 120.37695 70.21625 140.4325 70.21625 140.4325 64.72479"/><rect class="cls-2" x="48.11066" y="71.51605" width="4.29047" height="5.49146"/></svg>