<?xml version="1.0" encoding="UTF-8"?><svg id="WZOR" xmlns="http://www.w3.org/2000/svg" viewBox="0 0 141.7323 141.7323"><defs><style>.cls-1{fill:#f1e9da;}.cls-1,.cls-2{stroke-width:0px;}.cls-2{fill:#192a51;}</style></defs><rect id="TLO" class="cls-1" x=".00002" y="0" width="141.73228" height="141.73228" rx="28.34646" ry="28.34646"/><path class="cls-2" d="M113.38586,0H28.3465C12.69116,0,0,12.6911,0,28.34644v85.03937c0,15.65533,12.69116,28.3465,28.3465,28.3465h85.03937c15.65527,0,28.34644-12.69116,28.34644-28.3465V28.34644c0-15.65533-12.69116-28.34644-28.34644-28.34644ZM55.14825,105.5426c-6.86237,2.77356-14.67383-.54114-17.44733-7.4035l-18.09595-44.77356c-2.70166-6.68451.5271-14.29346,7.21161-16.99512l.32208-.13019c7.21649-2.91669,15.43103.56903,18.34772,7.78558l17.44745,43.16907c2.91669,7.21649-.56903,15.43109-7.78558,18.34772ZM91.59003,105.5426c-6.86237,2.77356-14.67383-.54114-17.44739-7.4035l-18.09589-44.77356c-2.70166-6.68451.5271-14.29346,7.21155-16.99512l.32214-.13019c7.21649-2.91669,15.43103.56903,18.34766,7.78558l17.44751,43.16907c2.91663,7.21649-.56909,15.43109-7.78558,18.34772ZM114.26575,72.51318c-6.86237,2.77356-14.67383-.54114-17.44733-7.4035l-4.32129-10.69177c-6.73419-16.66199,18.17181-26.94373,25.88141-9.33978l3.67279,9.08734c2.91663,7.21649-.56903,15.43109-7.78558,18.34772Z"/></svg>