<?xml version="1.0" encoding="UTF-8"?><svg id="WZOR" xmlns="http://www.w3.org/2000/svg" viewBox="0 0 141.7323 141.7323"><defs><style>.cls-1{fill:#f1e9da;}.cls-1,.cls-2{stroke-width:0px;}.cls-2{fill:#192a51;}</style></defs><rect id="TLO" class="cls-1" x=".00002" y="0" width="141.73228" height="141.73228" rx="28.34646" ry="28.34646"/><path class="cls-2" d="M75.55884,79.22278v-.31244c-.7218-.05035-1.29358-.64557-1.29358-1.38019v-6.66852h9.05371v6.66852c0,.73462-.57178,1.32983-1.29358,1.38019v.31244h4.4325v-.31244c-.7218-.05035-1.29358-.64557-1.29358-1.38019v-13.29358c0-.73462.57178-1.32983,1.29358-1.38019v-.25745h-4.4325v.25745c.7218.05035,1.29358.64557,1.29358,1.38019v6.27539h-9.05371v-6.27539c0-.73462.57178-1.32983,1.29358-1.38019v-.25745h-4.4325v.25745c.7218.05035,1.29358.64557,1.29358,1.38019v13.29358c0,.73462-.57178,1.32983-1.29358,1.38019v.31244h4.4325Z"/><path class="cls-2" d="M63.33862,79.22278v-.31244c-.7218-.05035-1.29358-.64557-1.29358-1.38019v-14.05048h2.32489c4.55389,0,4.73474,7.0321.75769,7.0321h-.61584v.67432c6.953,0,6.46368-8.58716,1.17322-8.58716h-6.77887v.25745c.7218.05035,1.29358.64557,1.29358,1.38019v13.29358c0,.73462-.57178,1.32983-1.29358,1.38019v.31244h4.4325Z"/><path class="cls-2" d="M49.19183,79.22278h8.28442v-4.01831h-.30273v1.67505c0,.83057-.67328,1.50385-1.50378,1.50385h-4.97406c-.83057,0-1.50385-.67328-1.50385-1.50385v-12.64294c0-.73462.57178-1.32983,1.29358-1.38019v-.25745h-4.4325v.25745c.7218.05035,1.29358.64557,1.29358,1.38019v13.29358c0,.73462-.57178,1.32983-1.29358,1.38019v.31244h3.13892Z"/><path class="cls-2" d="M92.56799,79.22278v-.31244c-.7218-.05035-1.29358-.64557-1.29358-1.38019v-13.29358c0-.73462.57178-1.32983,1.29358-1.38019v-.25745h-4.4325v.25745c.7218.05035,1.29358.64557,1.29358,1.38019v13.29358c0,.73462-.57178,1.32983-1.29358,1.38019v.31244h4.4325Z"/><path class="cls-2" d="M95.77332,78.88928c-.13623,0-.26349-.06799-.33923-.18127-.07574-.11322-.09003-.25684-.03796-.38275l2.67645-6.47858h4.87158l2.70691,6.47705c.05261.12598.03882.26996-.03687.38361s-.20319.18195-.33972.18195h-.14209v.3335h3.68616v-.3335h-.00476c-.42548,0-.81012-.2533-.97827-.6441l-6.87299-15.9765-6.53961,15.97266c-.16046.39191-.54193.64795-.96545.64795v.3335h2.31586v-.3335ZM100.50836,65.63336l2.18811,5.34839h-4.31427l2.12616-5.34839Z"/><path class="cls-2" d="M111.22723,64.23657v1.05963l-.06311,12.91711c-.00177.36096-.29486.65265-.65576.65265h-.4646v.35681h3.35718v-.35681h-.45007c-.36218,0-.65582-.29364-.65582-.65582v-12.92773l13.27295,14.18121v-15.22705c0-.73462.57178-1.32983,1.29358-1.38019v-.25745h-3.59314l.00262.25134.31659-.0036c.27942-.00311.54846.10565.74719.30212.19867.19641.31049.46423.31049.74365v12.10327l-12.49542-13.39679h-2.21625v.25745c.7218.05035,1.29358.64557,1.29358,1.38019Z"/><path class="cls-2" d="M23.40289,62.59894h-8.53217v.25745c.7218.05035,1.29358.64557,1.29358,1.38019v13.29358c0,.73462-.57178,1.32983-1.29358,1.38019v.31244h8.53217c12.05499,0,12.82568-16.62384,0-16.62384ZM20.00378,78.53473c-1.10205,0-1.99542-.89337-1.99542-1.99542v-13.41742h4.95416c9.08252,0,11.61462,15.41284.35779,15.41284h-3.31653Z"/><path class="cls-2" d="M113.38586,0H28.3465C12.69116,0,0,12.6911,0,28.34644v85.03937c0,15.65533,12.69116,28.3465,28.3465,28.3465h85.03937c15.65527,0,28.34644-12.69116,28.34644-28.3465V28.34644c0-15.65533-12.69116-28.34644-28.34644-28.34644ZM133.86615,85.771H7.86615v-29.80975h126v29.80975Z"/><path class="cls-2" d="M37.67352,79.22278h7.80273v-2.28436h-.27393v.63702c0,.52979-.42944.95929-.95923.95929h-6.4032c-.27417-.25208-.45538-.60181-.45538-1.00458v-6.34705h5.66974c.24957.07269.43329.2901.44452.5603h.17474v-1.63757h-.17474c-.01123.2702-.19495.48761-.44452.5603h-5.66974v-6.42957c0-.39856.17676-.74603.44598-.99774h5.4917c.52979,0,.95923.4295.95923.95929v.71277h.32642v-2.31195h-10.36224v.25745c.7218.05035,1.29358.64557,1.29358,1.38019v13.29358c0,.73462-.57178,1.32983-1.29358,1.38019v.31244h3.42792Z"/></svg>