<?xml version="1.0" encoding="UTF-8"?><svg id="WZOR" xmlns="http://www.w3.org/2000/svg" viewBox="0 0 141.7323 141.7323"><defs><style>.cls-1{fill:#f1e9da;}.cls-1,.cls-2{stroke-width:0px;}.cls-2{fill:#192a51;}</style></defs><rect id="TLO" class="cls-1" x=".00002" y="0" width="141.73228" height="141.73228" rx="28.34646" ry="28.34646"/><path class="cls-2" d="M107.77728,79.3653v4.98199c-1.01379.46063-1.69897,1.33246-1.98163,2.32568h-43.59637v2.50458h43.7724c.83472,1.82635,2.99023,2.63385,4.81934,1.80273.83044-.37732,1.43677-1.034,1.78943-1.80273h9.8941v-2.50458h-9.6994c-.04932-.17334-.09766-.34705-.17444-.51605-.33063-.7276-.87494-1.28522-1.52069-1.65155v-5.07465c7.10059-.7193,12.64209-6.71515,12.64209-14.00549,0-7.77502-6.30292-14.07794-14.07794-14.07794s-14.078,6.30292-14.078,14.07794c0,7.1405,5.32086,13.02478,12.21112,13.94006ZM109.64417,53.24634c6.77179,0,12.26141,5.48969,12.26141,12.26147s-5.48962,12.26147-12.26141,12.26147-12.26147-5.48962-12.26147-12.26147,5.48962-12.26147,12.26147-12.26147Z"/><polygon class="cls-2" points="66.46533 78.9115 74.92865 57.71881 83.11676 78.9115 83.80481 78.9115 94.12592 53.2326 91.97913 53.2326 83.47455 74.1225 75.08002 53.39771 74.5296 53.39771 66.02496 74.1225 57.7406 53.2326 55.73138 53.2326 65.88739 78.9115 66.46533 78.9115"/><path class="cls-2" d="M35.10559,86.31702c0-.31055.24561-.48633.5957-.48633.57568,0,.8457.26562,1.06592.74609.04004.08984.08008.19727.15527.19727.04492,0,.09521-.02246.09521-.0957,0-.09082-.06494-.60449-.06494-.89258,0-.15234-.04541-.21387-.11523-.21387-.07031,0-.17041.05078-.29541.05078s-.3252-.125-.81104-.125c-.48535,0-1.33594.25977-1.33594,1.20312,0,1.23047,2.24219,1.07812,2.24219,2.20117,0,.28809-.24023.68359-.74609.68359-.5752,0-1.02588-.37793-1.22607-1.00488-.02979-.0957-.0498-.19727-.125-.19727-.04492,0-.09521.02246-.09521.0957,0,.05078.02002.24219.02539.46289,0,.1582-.03516.37207-.03516.49121,0,.15234.03516.18652.10498.18652s.2002,0,.32031.0332c.18506.05078.51562.24902,1.00098.24902.72559,0,1.42139-.53125,1.42139-1.42871,0-1.27637-2.17725-1.25293-2.17725-2.15625Z"/><path class="cls-2" d="M52.47662,88.64807c-.06982,0-.43506.875-1.45117.875-.62549,0-1.44141-.43457-1.44141-1.67676,0-1.5918.75537-2.01562,1.42627-2.01562.57568,0,.8457.26562,1.06592.74609.04004.08984.08008.19727.15527.19727.04492,0,.09521-.02246.09521-.0957,0-.09082-.06543-.60449-.06543-.89258,0-.15234-.04492-.21387-.11475-.21387-.07031,0-.17041.05078-.29541.05078s-.3252-.125-.81055-.125c-1.00635,0-2.3374.58203-2.3374,2.32617,0,1.53613,1.22119,2.07812,2.05713,2.07812,1.38623,0,1.8916-.98242,1.8916-1.07812,0-.09668-.10498-.17578-.17529-.17578Z"/><path class="cls-2" d="M55.59766,86.31702c0-.31055.24561-.48633.5957-.48633.57568,0,.8457.26562,1.06592.74609.04004.08984.08008.19727.15527.19727.04492,0,.09521-.02246.09521-.0957,0-.09082-.06494-.60449-.06494-.89258,0-.15234-.04541-.21387-.11523-.21387-.07031,0-.17041.05078-.29541.05078s-.3252-.125-.81104-.125c-.48535,0-1.33594.25977-1.33594,1.20312,0,1.23047,2.24219,1.07812,2.24219,2.20117,0,.28809-.24023.68359-.74609.68359-.5752,0-1.02588-.37793-1.22607-1.00488-.02979-.0957-.0498-.19727-.125-.19727-.04492,0-.09521.02246-.09521.0957,0,.05078.02002.24219.02539.46289,0,.1582-.03516.37207-.03516.49121,0,.15234.03516.18652.10498.18652s.2002,0,.32031.0332c.18506.05078.51562.24902,1.00098.24902.72559,0,1.42139-.53125,1.42139-1.42871,0-1.27637-2.17725-1.25293-2.17725-2.15625Z"/><path class="cls-2" d="M40.1651,86.31702c0-.31055.24561-.48633.5957-.48633.57568,0,.8457.26562,1.06592.74609.04004.08984.08008.19727.15527.19727.04492,0,.09521-.02246.09521-.0957,0-.09082-.06494-.60449-.06494-.89258,0-.15234-.04541-.21387-.11523-.21387-.07031,0-.17041.05078-.29541.05078s-.3252-.125-.81104-.125c-.48535,0-1.33594.25977-1.33594,1.20312,0,1.23047,2.24219,1.07812,2.24219,2.20117,0,.28809-.24023.68359-.74609.68359-.5752,0-1.02588-.37793-1.22607-1.00488-.02979-.0957-.0498-.19727-.125-.19727-.04492,0-.09521.02246-.09521.0957,0,.05078.02002.24219.02539.46289,0,.1582-.03516.37207-.03516.49121,0,.15234.03516.18652.10498.18652s.2002,0,.32031.0332c.18506.05078.51562.24902,1.00098.24902.72559,0,1.42139-.53125,1.42139-1.42871,0-1.27637-2.17725-1.25293-2.17725-2.15625Z"/><path class="cls-2" d="M46.02667,85.76331c.11523-.02246.14502-.05078.14502-.11328,0-.05566-.04492-.0957-.12012-.0957-.12012,0-.49512.05664-.65527.05664s-.54053-.05664-.66064-.05664c-.0752,0-.12012.04004-.12012.0957,0,.0625.02979.09082.14502.11328.20508.04004.28516.24316.28516.46875v2.93555c0,.22559-.08008.42969-.28516.46875-.11523.02246-.14502.05078-.14502.11328,0,.05566.04492.0957.12012.0957.12012,0,.50049-.05664.66064-.05664s.53516.05664.65527.05664c.0752,0,.12012-.04004.12012-.0957,0-.0625-.02979-.09082-.14502-.11328-.20508-.04492-.28027-.24316-.28027-.46875v-2.93555c0-.22559.0752-.42383.28027-.46875Z"/><polygon class="cls-2" points="18.79565 78.63141 31.2016 78.63141 31.2016 77.06165 18.79565 77.06165 18.79565 53.44244 16.83459 53.44244 16.83459 78.63141 18.2002 78.63141 18.79565 78.63141"/><path class="cls-2" d="M21.41217,88.64807c-.06982,0-.43506.875-1.45117.875-.62549,0-1.44141-.43457-1.44141-1.67676,0-1.5918.75537-2.01562,1.42627-2.01562.57568,0,.8457.26562,1.06592.74609.04004.08984.08008.19727.15527.19727.04492,0,.09521-.02246.09521-.0957,0-.09082-.06543-.60449-.06543-.89258,0-.15234-.04492-.21387-.11475-.21387-.07031,0-.17041.05078-.29541.05078s-.3252-.125-.81055-.125c-1.00635,0-2.3374.58203-2.3374,2.32617,0,1.53613,1.22119,2.07812,2.05713,2.07812,1.38623,0,1.8916-.98242,1.8916-1.07812,0-.09668-.10498-.17578-.17529-.17578Z"/><path class="cls-2" d="M40.12256,69.92621h12.20599l4.0025,8.7052h2.07007l-11.55963-25.3988h-1.10089l-11.5321,25.3988h1.98163l3.93243-8.7052ZM46.17169,56.53534l5.43512,11.82111h-10.77515l5.34003-11.82111Z"/><path class="cls-2" d="M113.38586,0H28.3465C12.69116,0,0,12.6911,0,28.34644v85.03937c0,15.65533,12.69116,28.3465,28.3465,28.3465h85.03937c15.65527,0,28.34644-12.69116,28.34644-28.3465V28.34644c0-15.65533-12.69116-28.34644-28.34644-28.34644ZM130.60559,96.96655H11.12671v-52.20081h119.47888v52.20081Z"/><path class="cls-2" d="M27.10956,88.47913c-.05518,0-.08984.03906-.14502.14062-.24023.44629-.46533.68359-.81104.79102-.37012.11816-.58057.11816-.87598.11816-.12988,0-.25488-.08984-.25488-.24219v-3.05469c0-.22559.0752-.42383.28027-.46875.11523-.02246.14502-.05078.14502-.11328,0-.05566-.04492-.0957-.12012-.0957-.12012,0-.49561.05664-.65576.05664s-.54053-.05664-.66064-.05664c-.07471,0-.12012.04004-.12012.0957,0,.0625.03027.09082.14502.11328.20557.04004.28564.24316.28564.46875v2.93555c0,.22559-.08008.42383-.28564.46875-.12988.02832-.14502.04492-.14502.10742,0,.0791.05029.10156.12549.10156.12012,0,.44043-.05664.60059-.05664,1.63135,0,2.00684.06738,2.1416.06738.12549,0,.18066-.07812.18066-.23145,0-.28711.25-.93652.25-1.02734,0-.07324-.03516-.11816-.08008-.11816Z"/><path class="cls-2" d="M30.49792,85.49768c-.12988,0-.16504.07422-.21973.20312-.66113,1.56445-1.27148,3.08887-1.47656,3.53516-.10547.23145-.18018.35547-.38574.40039-.12988.02832-.14502.04492-.14502.10742,0,.0791.05029.10156.12549.10156.1499,0,.26514-.02832.66016-.02832.17041,0,.33545.0166.43555.0166.06543,0,.09521-.0332.09521-.08398,0-.0459-.0249-.08496-.08496-.09082-.12549-.0166-.20557-.08984-.20557-.24805,0-.10742.0752-.40723.18555-.77344h1.57129c.15527.44531.27539.8125.27539.875,0,.0957-.1001.13574-.17529.14648-.06006.01172-.08496.04492-.08496.09082,0,.05078.02979.08398.09521.08398.1001,0,.26514-.0166.43555-.0166.39502,0,.73535.02832.86035.02832.10059,0,.15039-.02246.15039-.10156,0-.0625-.01514-.0791-.14502-.10742-.20557-.04492-.29541-.24316-.39551-.47949-.38525-.89258-1.26123-3.18457-1.36133-3.46094-.04492-.12402-.09033-.19824-.21045-.19824ZM29.57214,88.34924c.19531-.61523.45068-1.33203.61084-1.72754.01514-.03418.03467-.0625.06494-.0625s.04004.01758.06006.05664c.04492.0957.37061.9707.64551,1.7334h-1.38135Z"/></svg>