<?xml version="1.0" encoding="UTF-8"?><svg id="WZOR" xmlns="http://www.w3.org/2000/svg" viewBox="0 0 141.7323 141.7323"><defs><style>.cls-1{fill:#f1e9da;}.cls-1,.cls-2{stroke-width:0px;}.cls-2{fill:#192a51;}</style></defs><rect id="TLO" class="cls-1" x=".00002" y="0" width="141.73228" height="141.73228" rx="28.34646" ry="28.34646"/><rect class="cls-2" x="32.52246" y="35.68256" width=".86261" height="4.87244"/><path class="cls-2" d="M103.88281,48.61517c0,.25653.20795.46448.46448.46448h11.26367c.25653,0,.46448-.20795.46448-.46448v-2.78351h-12.19263v2.78351Z"/><rect class="cls-2" x="40.60693" y="35.68256" width=".84705" height="4.87244"/><rect class="cls-2" x="30.90607" y="35.68256" width=".84705" height="4.87244"/><rect class="cls-2" x="43.85529" y="35.68256" width="5.7254" height="4.87244"/><rect class="cls-2" x="51.96643" y="35.68256" width=".86261" height="4.87244"/><rect class="cls-2" x="50.35004" y="35.68256" width=".84705" height="4.87244"/><rect class="cls-2" x="105.49976" y="49.8916" width="8.95874" height="2.0249"/><rect class="cls-2" x="42.22333" y="35.68256" width=".86261" height="4.87244"/><path class="cls-2" d="M94.34595,82.32739c1.89612-.05701,3.38513-1.70642,3.38513-7.47937,0-5.42889-1.58514-7.32996-3.4812-7.27295s-3.38507,1.32111-3.38507,7.47937c0,6.14447,1.58508,7.32996,3.48114,7.27295Z"/><path class="cls-2" d="M26.03418,48.61517c0,.25653.20795.46448.46448.46448h11.26367c.25653,0,.46448-.20795.46448-.46448v-2.78351h-12.19263v2.78351Z"/><rect class="cls-2" x="27.65112" y="49.8916" width="8.95874" height="2.0249"/><path class="cls-2" d="M84.42407,48.61517c0,.25653.20795.46448.46448.46448h11.26367c.25653,0,.46448-.20795.46448-.46448v-2.78351h-12.19263v2.78351Z"/><rect class="cls-2" x="53.59839" y="35.68256" width="5.7254" height="4.87244"/><path class="cls-2" d="M52.51123,74.15308c-.05878.23535-.05511.4057.0083.55371.06323.14764.20758.24438.36823.24683.41461.00635,1.36804.02069,1.74274.02386.40546.00342.69055-.10455.60553-.57672-.3139-1.74286-1.22479-6.97705-1.22479-6.97705,0,0-1.08252,5.05707-1.5,6.72937Z"/><rect class="cls-2" x="47.06854" y="49.8916" width="8.95874" height="2.0249"/><rect class="cls-2" x="86.04102" y="49.8916" width="8.95874" height="2.0249"/><path class="cls-2" d="M64.9519,48.61517c0,.25653.20795.46448.46448.46448h11.26367c.25653,0,.46448-.20795.46448-.46448v-2.78351h-12.19263v2.78351Z"/><rect class="cls-2" x="66.56885" y="49.8916" width="8.95874" height="2.0249"/><path class="cls-2" d="M45.4516,48.61517c0,.25653.20795.46448.46448.46448h11.26367c.25653,0,.46448-.20795.46448-.46448v-2.78351h-12.19263v2.78351Z"/><rect class="cls-2" x="34.15442" y="35.68256" width="5.68317" height="4.87244"/><rect class="cls-2" x="92.5296" y="35.68256" width="5.75293" height="4.87244"/><rect class="cls-2" x="99.05188" y="35.68256" width=".84705" height="4.87244"/><rect class="cls-2" x="89.28125" y="35.68256" width=".84705" height="4.87244"/><rect class="cls-2" x="90.89764" y="35.68256" width=".86261" height="4.87244"/><rect class="cls-2" x="82.78644" y="35.68256" width="5.72546" height="4.87244"/><rect class="cls-2" x="100.66827" y="35.68256" width=".86261" height="4.87244"/><rect class="cls-2" x="102.30023" y="35.68256" width="5.67035" height="4.87244"/><path class="cls-2" d="M113.38586,0H28.3465C12.69116,0,0,12.6911,0,28.34644v85.03937c0,15.65533,12.69116,28.3465,28.3465,28.3465h85.03937c15.65527,0,28.34644-12.69116,28.34644-28.3465V28.34644c0-15.65533-12.69116-28.34644-28.34644-28.34644ZM124.99976,105.46576c0,.20709-.16785.37494-.37494.37494H17.47162c-.20709,0-.37494-.16785-.37494-.37494v-.08234c0-.20709.16785-.37494.37494-.37494h107.1532c.20709,0,.37494.16785.37494.37494v.08234ZM124.99976,103.64728c0,.20709-.16785.375-.37494.375H17.47162c-.20709,0-.37494-.16791-.37494-.375v-.08234c0-.20703.16785-.37494.37494-.37494h107.1532c.20709,0,.37494.16791.37494.37494v.08234ZM124.99976,101.60345c0,.20709-.16785.375-.37494.375H17.47162c-.20709,0-.37494-.16791-.37494-.375v-.08234c0-.20703.16785-.37494.37494-.37494h107.1532c.20709,0,.37494.16791.37494.37494v.08234ZM124.99976,99.98779c0,.20709-.16785.37494-.37494.37494H17.47162c-.20709,0-.37494-.16785-.37494-.37494v-.08234c0-.20709.16785-.37494.37494-.37494h8.62665v-10.72839h.86005v10.72839h1.97272v-10.72839h.85999v10.72839h1.87854v-10.72839h.86005v10.72839h1.87848v-10.72839h.86005v10.72839h2.00238v-10.72839h.85999v10.72839h7.41272v-10.72839h.86005v10.72839h1.97272v-10.72839h.86005v10.72839h1.87848v-10.72839h.86005v10.72839h1.87848v-10.72839h.86005v10.72839h2.00238v-10.72839h.85999v10.72839h7.45667v-10.72839h.85999v10.72839h1.97278v-10.72839h.85999v10.72839h1.87854v-10.72839h.85999v10.72839h1.87854v-10.72839h.85999v10.72839h2.00238v-10.72839h.86005v10.72839h7.43762v-10.72839h.85999v10.72839h1.97278v-10.72839h.85999v10.72839h1.87854v-10.72839h.85999v10.72839h1.87854v-10.72839h.85999v10.72839h2.00238v-10.72839h.86005v10.72839h7.41272v-10.72839h.85999v10.72839h1.97278v-10.72839h.85999v10.72839h1.87854v-10.72839h.85999v10.72839h1.87854v-10.72839h.86005v10.72839h2.00232v-10.72839h.86005v10.72839h8.64569c.20709,0,.37494.16785.37494.37494v.08234ZM37.85925,68.59534c-.06421-.30206-.15912-.5296-.29608-.68604-.11609-.13257-.30316-.17792-.46716-.11346-.39624.15576-.68152.18066-1.08478.17834-.62347-.01538-.9295-.45276-1.211-1.76147-.05225-.52985-.06744-.94678.05505-1.44495.08386-.31049.17566-.56311.28552-.77026.2785-.52478.82611-.85358,1.42017-.85358h.91656c.3559,0,.71991.04138,1.06689.12024.34473.07837.70508.11859,1.09497.13678.63196.02942,1.28015-.02094,1.90039-.14532.61084-.1225,1.12457-.15027,1.75751-.12506.32092.01282.62549.14044.85931.3606.13202.12433.25165.271.35529.42664.26367.396.4115.85919.42798,1.33466l.01611.46362c.01343.38733-.04633.77826-.17303,1.14453-.29291.84644-.56451,1.17572-1.01025,1.15485-.37457-.01752-.65338-.08844-1.02075-.22125-.26825-.09692-.56567.01965-.69574.27344-.0863.16852-.13867.39648-.16779.68719-.00977.09735-.01483.19958-.01483.29749v15.88696c0,.31213-.06512.61597-.19452.90002-.00085.00195-.00171.00385-.00256.00574-.22839.49768-.72626.8172-1.27386.8172h-3.61218c-.48035,0-.92114-.26794-1.14166-.6947-.08826-.17065-.17542-.37683-.27063-.6264l-5.35284-15.53668v11.37573c.01074.15167.02661.28021.05115.39008.04437.19855.16779.37061.34131.47681s.38269.13757.57971.08685c.27698-.07135.47046-.17603.76361-.19354.21887-.013.43347.06769.5896.22168.35089.34607.55389.68225.68768,1.16467.05286.19073.07983.39191.07983.58984v.67291c0,.30109-.05109.59583-.15381.87878-.14978.41278-.32983.69781-.58209.93433-.2995.28076-.69574.43524-1.10626.43134-.33276-.00311-.59924-.02368-.95026-.05853l-1.3775-.21259c-.15552-.02399-.31281-.03442-.47015-.03113l-1.01379.02112c-.1507.00311-.30444.02362-.45074.05969-.36322.08948-.70605.1438-1.12604.18195-.08582.00781-.17621.01257-.26233.01392l-1.05035.01611c-.12231.00183-.24152-.02631-.34979-.08319-.02863-.01508-.05646-.02997-.08356-.04486-.4231-.23224-.76239-.59271-.96991-1.0285-.15472-.32483-.2276-.63794-.21808-1.08398v-.61365c0-.15259.01514-.30951.04395-.45935.14093-.73303.35876-1.12445.8584-1.49548.08765-.065.19208-.10138.30115-.10437.38367-.01062.6972.07031,1.10059.25354.08789.03998.18634.0484.27972.02393.35248-.09259.48456-.48053.4693-1.40247v-11.79358c-.02148-.61591-.14746-.9964-.47125-1.24652-.03864-.02991-.09015-.03802-.13617-.02161-.51758.18475-.84979.26514-1.36047.24982-.71613-.38287-.92316-.82788-1.08521-1.72021-.04199-.23102-.10162-1.02728.07068-1.51605.02014-.05695.04059-.11523.06049-.1723.20105-.57544.55756-1.04614,1.28345-1.33466.15533-.06177.32196-.10144.4884-.117.61285-.05731,1.28656.0199,2.03082.16754.90417.19543,1.69299.24133,2.72382.12488.07812-.00885.15485-.02631.229-.05243.61652-.21698,1.12671-.29236,1.70984-.28656.20428.00208.40161.05927.57477.1676.36041.22546.5589.53687.74878,1.16119l5.03674,15.4679v-10.78571c0-.16083-.01758-.32574-.05109-.48303ZM56.28186,79.84344c-.08185-.33411-.29865-.43719-.61804-.47076-.02515-.00262-.05164-.00403-.07697-.00403h-3.49933c-.46222,0-1.04761.31482-1.14575.7157-.56116,2.29144.08795,2.11957.79883,2.21552.63342.08551.8894.3551,1.05273.97015.18561.69891.21594,1.38892,0,2.29132-.21545.90033-.73431,1.21002-1.40369,1.27271-.77319.07239-1.19092-.0011-1.89905-.19934-.78741-.2204-1.39233-.23071-2.20874-.06189-1.09625.22662-1.83478.41022-2.66284.26123-.89105-.1604-1.3385-.74121-1.4682-2.06616-.05096-.5213.00989-.87305.10583-1.47717.05853-.31976.14264-.56555.25366-.75671.20337-.3501.57452-.57147.97925-.58484.19385-.00641.40125.01019.64166.04224.34875.04657.6908-.12476.86218-.43207.07184-.12872.13641-.29181.1944-.49799,1.13098-4.0188,4.35553-16.12158,4.35553-16.12158.45465-1.36523,1.13416-1.8822,2.64221-1.87268,1.35907.00861,2.18378-.04559,3.22015.18005.77881.16949,1.12616.81763,1.3418,1.69263,0,0,3.40302,14.72217,3.7674,16.52032.04663.2301.22467.41119.45398.46161.1524.03351.32617.01862.54694-.01404.5451-.08057.83411.02161,1.11469.49542.22418.37854.30627.71075.39221,1.34174.10199.74933.07861,1.44244-.30963,2.22937-.29193.59174-.6709.8045-1.44495.85986-.94299.06738-1.46301-.16278-2.33258-.30255-.81445-.13086-1.33551-.1062-2.16742.08258-1.04865.23798-1.71082.30481-2.39453.10321-.51233-.15106-.88574-.43115-1.0802-1.36139-.07495-.35883-.06439-1.10126-.03448-1.46661.05505-.67145.2663-1.18073.65845-1.44867.15833-.10815.34784-.16162.53937-.15271l.60803.02826c.211.00983.40326-.11932.47363-.31842.03699-.10461.04895-.23621.03247-.39972l-.289-1.75458ZM68.05823,68.2735c-.32373-.38538-.60175-.39105-.79901-.32996-.25256.07819-.51947.08136-.7735.0083-1.33295-.38361-1.26483-1.95673-1.26575-2.04187-.00323-.28424.00732-.85638.06189-1.13531.17859-.9126.66467-1.48926,1.28094-1.61066.95679-.18848,1.63672-.05603,2.58948.19666.65045.17249,1.19989.21851,1.8681,0,1.04236-.34088,1.85425-.34436,2.40955-.17596.44946.12225,1.23663.55383,1.16156,2.88007-.00128.29291-.04047.47076-.258.68121-.16534.15991-.50598.46924-.6709.62958-.27216.26465-.30133.67682-.08258,1.25916.34833.92719,1.5069,3.664,1.5069,3.664.82074-1.6687,1.86932-3.91821,1.89911-4.27295.02386-.28455-.07385-.42554-.27869-.57794-.69208-.41425-.93268-.83582-.87732-1.83716.04236-.76526.23718-1.57904.58832-2.1571.19318-.31799.49603-.56635,1.20758-.36127.80994.2334,1.58026.52155,2.7041.37158.96118-.1283,1.58716-.36481,2.41516-.37158,1.01349-.00824,1.46313.2442,1.73395,1.19727.27692.97467.30499,1.8219.07227,2.54932-.34424,1.07556-.81085,1.30713-1.57916,1.125-.53217-.12616-.81055-.02094-1.06305.40253-.91583,1.53552-3.4679,6.25458-3.4679,6.25458,0,0,2.34229,5.03351,3.20984,6.66742.37158.69977.62476.85828.98053.7431.48822-.15802.76093-.18152,1.11469-.03094.7149.30432,1.1424,1.57654.98047,2.51837-.40497,2.35608-.97296,2.69708-3.55042,2.09515-.87494-.20435-1.45129-.23694-2.26038-.05157-.94934.21747-1.66211.40851-2.27063.19611-1.33588-.46649-1.27222-1.6817-1.16461-2.69464.05151-.48523.36603-1.25317.86725-1.42798.72083-.25146.75665-.54865.45221-1.24438-.42712-.97589-1.71332-3.90137-1.71332-3.90137,0,0-1.55475,3.15802-2.00232,4.24194-.14008.33929-.07727.552.18579.77411,2.07129,1.3031.93201,4.25177-.0929,4.33484-.79779.0647-1.3692-.06934-2.21899-.23737-1.09174-.21588-1.6983-.11053-2.52869.07227-.6167.13574-1.26825.25024-1.82684.1651-.4519-.06885-.70721-.2699-.97015-.7431-.43939-.79059-.55383-1.5918-.41284-2.3429.18909-1.00781.54816-1.77893,1.15594-1.81653.36255-.0224,1.34583.45404,1.82684-.34058.95319-1.57483,3.41626-6.52295,3.41626-6.52295-1.31366-2.77155-3.01294-6.14948-3.56079-6.80157ZM85.9245,75.00598c0-8.91711,3.61975-12.39917,8.18726-12.46759s8.35315,3.63306,8.35315,12.21985c0,9.35815-3.61969,12.39917-8.18719,12.46759s-8.35321-2.99939-8.35321-12.21985ZM105.61676,77.53149c.84015-.6731,3.34393-1.31616,3.54999,2.28107.08685,1.51685,1.32147,2.65063,2.70459,2.63177,1.61017-.02191,2.33588-.49518,2.55963-1.87842.23663-1.46307-.14532-2.49939-1.53375-2.97089-2.32336-.78888-3.58002-1.04742-4.59698-1.75616-4.54401-3.16687-3.73596-12.68829,2.45642-13.16974,2.26837-.17639,3.53857.54932,4.77368,2.28741.09497-1.35107.46478-2.05505,1.55292-2.00238.97455.04712,1.64752.38855,1.6579,1.78735-.08527,1.20923-.21448,2.07025-.18652,3.09814.02338.85828.23633,1.55609.1286,2.42578-.08716,1.40149-.83777,1.91516-2.16986,1.78229-.98895-.09863-1.35889-.89929-1.63055-2.79504-.0636-.44397-.11017-.77582-.89935-1.37451-.42963-.32587-1.04541-.45209-1.51349-.48199-3.28741-.21014-2.76062,3.64484-.94958,4.06653,2.49878.58179,3.65765,1.0343,4.99542,1.91974,1.67615,1.10931,2.56982,2.78015,2.70416,4.87152.16071,2.50305-.28094,4.22827-1.11469,5.63531-1.60059,2.70135-2.99304,3.40942-5.63531,3.33765-1.78461-.04846-2.87146-.67694-4.23169-2.16101-.11554,1.57697-.56494,2.07233-1.89905,1.87842-.93011-.13519-1.24847-.67883-1.31067-1.97052-.00909-.18958-.00598-.38721.00891-.57648.36542-4.63495-.54193-5.96753.57928-6.86584ZM124.99976,45.45667c0,.20709-.16785.375-.37494.375h-7.32501c-.21259,0-.38489.1723-.38489.38489v2.42273c0,.69165-.56067,1.25232-1.25232,1.25232h-.34747v10.94037h-.85663v-7.33276c0-.41199-.33398-.74603-.74603-.74603h-.1272c-.41199,0-.74603.33405-.74603.74603v7.33276h-.79242v-7.33276c0-.41199-.33405-.74603-.74603-.74603h-.1272c-.41205,0-.74603.33405-.74603.74603v7.33276h-.79248v-7.33276c0-.41199-.33398-.74603-.74603-.74603h-.12714c-.41205,0-.74603.33405-.74603.74603v7.33276h-.94727v-7.33276c0-.41199-.33405-.74603-.74603-.74603h-.1272c-.41205,0-.74603.33405-.74603.74603v7.33276h-.80621v-10.94037h-.34747c-.69165,0-1.25232-.56067-1.25232-1.25232v-2.42273c0-.21259-.1723-.38489-.38489-.38489h-4.81738c-.21259,0-.38489.1723-.38489.38489v2.42273c0,.69165-.56067,1.25232-1.25232,1.25232h-.34747v10.94037h-.85663v-7.33276c0-.41199-.33398-.74603-.74603-.74603h-.1272c-.41199,0-.74603.33405-.74603.74603v7.33276h-.79242v-7.33276c0-.41199-.33405-.74603-.74603-.74603h-.1272c-.41205,0-.74603.33405-.74603.74603v7.33276h-.79248v-7.33276c0-.41199-.33398-.74603-.74603-.74603h-.12714c-.41205,0-.74603.33405-.74603.74603v7.33276h-.94727v-7.33276c0-.41199-.33405-.74603-.74603-.74603h-.1272c-.41205,0-.74603.33405-.74603.74603v7.33276h-.80621v-10.94037h-.34747c-.69165,0-1.25232-.56067-1.25232-1.25232v-2.42273c0-.21259-.1723-.38489-.38489-.38489h-4.83081c-.21259,0-.38489.1723-.38489.38489v2.42273c0,.69165-.56067,1.25232-1.25232,1.25232h-.34747v10.94037h-.85663v-7.33276c0-.41199-.33398-.74603-.74603-.74603h-.1272c-.41199,0-.74603.33405-.74603.74603v7.33276h-.79242v-7.33276c0-.41199-.33405-.74603-.74603-.74603h-.1272c-.41205,0-.74603.33405-.74603.74603v7.33276h-.79248v-7.33276c0-.41199-.33398-.74603-.74603-.74603h-.12714c-.41205,0-.74603.33405-.74603.74603v7.33276h-.94727v-7.33276c0-.41199-.33405-.74603-.74603-.74603h-.1272c-.41205,0-.74603.33405-.74603.74603v7.33276h-.80621v-10.94037h-.34747c-.69165,0-1.25232-.56067-1.25232-1.25232v-2.42273c0-.21259-.1723-.38489-.38489-.38489h-4.85895c-.21259,0-.38489.1723-.38489.38489v2.42273c0,.69165-.56067,1.25232-1.25232,1.25232h-.34747v10.94037h-.85663v-7.33276c0-.41199-.33398-.74603-.74603-.74603h-.1272c-.41199,0-.74603.33405-.74603.74603v7.33276h-.79242v-7.33276c0-.41199-.33405-.74603-.74603-.74603h-.1272c-.41205,0-.74603.33405-.74603.74603v7.33276h-.79248v-7.33276c0-.41199-.33398-.74603-.74603-.74603h-.12714c-.41205,0-.74603.33405-.74603.74603v7.33276h-.94727v-7.33276c0-.41199-.33405-.74603-.74603-.74603h-.1272c-.41205,0-.74603.33405-.74603.74603v7.33276h-.80621v-10.94037h-.34747c-.69165,0-1.25232-.56067-1.25232-1.25232v-2.42273c0-.21259-.1723-.38489-.38489-.38489h-4.77606c-.21259,0-.38489.1723-.38489.38489v2.42273c0,.69165-.56067,1.25232-1.25232,1.25232h-.34747v10.94037h-.85663v-7.33276c0-.41199-.33398-.74603-.74603-.74603h-.1272c-.41199,0-.74603.33405-.74603.74603v7.33276h-.79242v-7.33276c0-.41199-.33405-.74603-.74603-.74603h-.1272c-.41205,0-.74603.33405-.74603.74603v7.33276h-.79248v-7.33276c0-.41199-.33398-.74603-.74603-.74603h-.12714c-.41205,0-.74603.33405-.74603.74603v7.33276h-.94727v-7.33276c0-.41199-.33405-.74603-.74603-.74603h-.1272c-.41205,0-.74603.33405-.74603.74603v7.33276h-.80621v-10.94037h-.34747c-.69165,0-1.25232-.56067-1.25232-1.25232v-2.42273c0-.21259-.1723-.38489-.38489-.38489h-7.3382c-.20709,0-.37494-.16791-.37494-.375v-.08234c0-.20703.16785-.37494.37494-.37494h107.1532c.20709,0,.37494.16791.37494.37494v.08234ZM124.99976,42.62872c0,.20709-.16785.37494-.37494.37494H17.47162c-.20709,0-.37494-.16785-.37494-.37494v-.08234c0-.20709.16785-.37494.37494-.37494h107.1532c.20709,0,.37494.16785.37494.37494v.08234ZM124.99976,35.30762c0,.20709-.16785.37494-.37494.37494h-12.63654v4.87244h12.63654c.20709,0,.37494.16791.37494.375v.08234c0,.20703-.16785.37494-.37494.37494H17.47162c-.20709,0-.37494-.16791-.37494-.37494v-.08234c0-.20709.16785-.375.37494-.375h12.6651v-4.87244h-12.6651c-.20709,0-.37494-.16785-.37494-.37494v-.08234c0-.20709.16785-.37494.37494-.37494h107.1532c.20709,0,.37494.16785.37494.37494v.08234ZM124.99976,33.7113c0,.20703-.16785.37494-.37494.37494H17.47162c-.20709,0-.37494-.16791-.37494-.37494v-.08234c0-.20709.16785-.375.37494-.375h107.1532c.20709,0,.37494.16791.37494.375v.08234Z"/><rect class="cls-2" x="110.35632" y="35.68256" width=".86261" height="4.87244"/><rect class="cls-2" x="108.73993" y="35.68256" width=".84705" height="4.87244"/><rect class="cls-2" x="81.15448" y="35.68256" width=".86261" height="4.87244"/><rect class="cls-2" x="73.05707" y="35.68256" width="5.71167" height="4.87244"/><rect class="cls-2" x="63.34149" y="35.68256" width="5.69788" height="4.87244"/><rect class="cls-2" x="71.42511" y="35.68256" width=".86261" height="4.87244"/><rect class="cls-2" x="61.70953" y="35.68256" width=".86261" height="4.87244"/><rect class="cls-2" x="69.80872" y="35.68256" width=".84705" height="4.87244"/><rect class="cls-2" x="60.09314" y="35.68256" width=".84705" height="4.87244"/><rect class="cls-2" x="79.53809" y="35.68256" width=".84711" height="4.87244"/></svg>