<?xml version="1.0" encoding="UTF-8"?><svg id="WZOR" xmlns="http://www.w3.org/2000/svg" viewBox="0 0 141.7323 141.7323"><defs><style>.cls-1{fill:#f1e9da;}.cls-1,.cls-2{stroke-width:0px;}.cls-2{fill:#192a51;}</style></defs><rect id="TLO" class="cls-1" x=".00002" y="0" width="141.73228" height="141.73228" rx="28.34646" ry="28.34646"/><path class="cls-2" d="M80.36444,84.78888c2.40784-.03693,3.47137-1.72406,3.47137-1.72406v1.46362h2.61432v-10.59863h-2.77582v5.09058c0,.89014.0304,3.61041-2.51337,3.61041-1.48621,0-1.64532-1.52417-1.64532-2.37207v-6.32892h-2.76575v6.33319c0,.9455-.10187,4.58289,3.61456,4.52588Z"/><path class="cls-2" d="M74.74115,100.53241c.61615.31177,1.45221.46759,2.26355.40118,1.21039-.09894,1.86786-.36749,2.44525-1.14313.54572-.73315.84973-1.64514.58148-2.59436-.24701-.87402-.58069-1.3316-1.42938-2.08417,0,0-1.23511-.98053-1.99103-1.6579-.75586-.67743-.84326-1.58563-.65991-2.07288.2699-.7171.88928-1.12238,1.80786-1.1012.96112.02222,1.71008.35724,1.82361,1.49835.02301.23126.26691.28247.23938-.19348-.01337-.23206.00122-1.26385.00543-1.53839.00031-.01697-.00653-.03326-.01886-.04498-.01227-.01166-.02887-.0177-.04584-.01666-.14368.00903-.27924-.00562-.42633-.05859-.31958-.11517-.81238-.15753-1.40051-.159-.88824-.0022-1.42712.14038-1.99713.52795-.69556.47302-.98419,1.23126-1.00317,1.95325-.02612.99054.41418,1.83545.88055,2.28815.65698.61749,1.37665,1.26111,2.09869,1.84631.5545.44946,1.30255,1.21741,1.14148,2.31744-.14587.99622-.78412,1.60999-1.8396,1.68823-1.31488.09747-2.39142-.39355-2.3421-2.08319.00354-.12122-.19244-.14337-.20813.00769-.06628.63947-.07849,1.29749-.05542,2.02417l.13013.19519Z"/><path class="cls-2" d="M66.94867,79.49347c0-1.17706.07843-3.60101,2.3418-3.63568,1.81189-.02777,1.80682,2.0238,1.80682,2.49316v6.2179h2.76575v-6.7569c0-.7467-.08221-4.1272-3.61572-4.1272-2.34326,0-3.49042,1.68848-3.49042,1.68848l-.04041-1.43329h-2.58405v10.62891h2.81622v-5.07538Z"/><path class="cls-2" d="M86.2821,100.53467c-1.11493,0-1.18201-.25092-1.18201-1.32709l.03784-8.4411c0-.34229.2627-.5899.87927-.617.03058-.00134.05933-.01489.0799-.03754.02051-.02264.03119-.05255.02954-.08337-.00281-.05212-.01837-.09912-.15912-.08905-1.19141.08569-1.96942.07208-3.06903.01184-.14813-.00812-.13422.20575.03699.2113.64551.021.90033.23138.90033.83093v8.27454c0,.44684.07635,1.25079-.90015,1.28601-.0379.0014-.06812.0321-.06873.07007-.00055.03308.01215.06427.03516.08704s.05438.0351.08673.03418c1.27661-.03711,2.03094-.00616,3.30457-.00616.23315,0,.24756-.20459-.01129-.20459Z"/><path class="cls-2" d="M101.71893,90.29517c-.69556.47302-.98419,1.23126-1.00317,1.95325-.02606.99054.41418,1.83545.88062,2.28815.65692.61749,1.37659,1.26111,2.09863,1.84631.5545.44946,1.30261,1.21741,1.14148,2.31744-.14587.99622-.78412,1.60999-1.8396,1.68823-1.31482.09747-2.39136-.39355-2.3421-2.08319.00354-.12122-.19244-.14337-.20813.00769-.06628.63947-.07849,1.29749-.05542,2.02417l.13013.19519c.61621.31177,1.45221.46759,2.26355.40118,1.21039-.09894,1.86786-.36749,2.44525-1.14313.54578-.73315.84973-1.64514.58148-2.59436-.24701-.87402-.58069-1.3316-1.42938-2.08417,0,0-1.23511-.98053-1.99103-1.6579-.75586-.67743-.84326-1.58563-.65991-2.07288.2699-.7171.88928-1.12238,1.80786-1.1012.96112.02222,1.71008.35724,1.82361,1.49835.02301.23126.26691.28247.23938-.19348-.01337-.23206.00128-1.26385.00543-1.53839.00031-.01697-.00653-.03326-.01886-.04498-.01227-.01166-.02887-.0177-.04584-.01666-.14368.00903-.27924-.00562-.42627-.05859-.31964-.11517-.81244-.15753-1.40057-.159-.88824-.0022-1.42712.14038-1.99713.52795Z"/><path class="cls-2" d="M59.86572,89.76721h-.0036c-.06934,0-.13123.0434-.15485.10852-.37323,1.02808-3.27765,9.02527-3.56415,9.70276-.2951.69781-.75989.97064-1.48462.94836-.02209-.00067-.04346.00745-.05957.02252-.01599.01514-.02539.03607-.026.05817-.00092.03192.01123.06287.03351.08582.02228.02289.05292.03583.0849.03583h2.99084c.0376,0,.06812-.03046.06812-.06805l.00006-.02533c.00006-.02582-.01068-.05048-.02966-.06812-.01892-.01758-.04431-.02655-.07007-.0246-.0434.0033-.10559.00458-.19482.00146-.29456-.01013-.6701-.17023-.44464-.95251.22534-.78229,1.03168-3.08661,1.03168-3.08661l3.27191.01709s1.25256,3.35883,1.35089,3.6167c.08667.22742.07965.37378-.09119.37054-.14966-.00287-.21002.18182,0,.18097l2.78271-.0069c.03577-.00006.06543-.02783.06781-.06354l.00031-.00421c.00128-.01868-.00519-.03693-.01776-.05066-.01257-.01379-.03021-.02179-.04889-.02222-1.15912-.02338-1.38153-.61957-1.65558-1.22479-.1792-.39563-3.32434-8.49042-3.69989-9.45709-.02203-.0567-.07666-.09412-.13745-.09412ZM61.07324,95.98511c-.00897.01263-.02344.02014-.03894.02014h-2.72809c-.01532,0-.02972-.00739-.0387-.01978-.00891-.01245-.01135-.02838-.00653-.04291l1.32074-3.96948c.00647-.01929.02441-.03241.0448-.03259.02032-.00024.03851.01251.04535.03168l1.40735,3.96948c.00519.01459.00293.03082-.00598.04346Z"/><path class="cls-2" d="M90.52576,99.76117c1.28491.83588,2.48303,1.16864,4.25989,1.12103,3.54541-.09503,2.94885-.07886,3.2951-2.76935l-.20569-.00092c-.03802.5213-.13098.87244-.40277,1.23883-.54889.73981-1.25354.91919-2.39404.89301-1.66492-.03821-2.58356-.2959-3.63287-1.25403-1.09625-1.00104-1.71539-2.14435-1.74805-3.92169-.01886-1.02502.02814-1.73547.42938-2.54987.77521-1.57318,2.02246-2.17566,3.87988-2.21161,1.1864-.02295,2.22107.25647,2.83105.62323.58759.35327.83502,1.04608.84094,1.82263.00055.07019.05756.12677.12781.12677h.0072c.07269,0,.13263-.05707.13611-.12976l.11896-2.46759c.00433-.08911-.06348-.16516-.15247-.17096-.13226-.00867-.33618-.02386-.57312-.04755-.41974-.04193-1.53522-.28687-2.50806-.2926-3.211-.0188-4.38611.81207-5.4151,2.15845-.62024.81158-1.05579,2.05969-1.0412,3.47705.0152,1.48206.65741,3.38586,2.14703,4.35492Z"/><path class="cls-2" d="M92.04218,79.5448c0-.82343-.12927-3.68451,2.21057-3.68451,1.09729,0,1.46869.97693,1.46869,1.80347v6.88739h2.75568v-5.27429c0-.74744.01941-3.42413,2.15753-3.42413,1.47559-.04968,1.45355,1.7168,1.45355,2.20435v6.49408h2.78595v-7.09351c0-1.16583-.30286-3.77765-3.39917-3.77765-2.12732,0-3.27802,1.83203-3.27802,1.83203,0,0-.6889-1.8396-3.11145-1.8396-2.16516,0-3.20227,1.80176-3.20227,1.80176v-1.54437h-2.58911v10.62134h2.74805v-5.00635Z"/><path class="cls-2" d="M70.40582,95.11194s-1.23511-.98053-1.99103-1.6579c-.75586-.67743-.84326-1.58563-.65991-2.07288.26996-.7171.88928-1.12238,1.80786-1.1012.96112.02222,1.71008.35724,1.82361,1.49835.02301.23126.26691.28247.23944-.19348-.01343-.23206.00122-1.26385.00543-1.53839.00024-.01697-.00659-.03326-.01886-.04498-.01233-.01166-.02893-.0177-.04584-.01666-.14368.00903-.2793-.00562-.42633-.05859-.31964-.11517-.81244-.15753-1.40057-.159-.88824-.0022-1.42706.14038-1.99707.52795-.69562.47302-.98425,1.23126-1.00323,1.95325-.02606.99054.41418,1.83545.88062,2.28815.65692.61749,1.37665,1.26111,2.09863,1.84631.5545.44946,1.30261,1.21741,1.14148,2.31744-.14587.99622-.78412,1.60999-1.8396,1.68823-1.31482.09747-2.39136-.39355-2.3421-2.08319.00354-.12122-.19244-.14337-.20807.00769-.06635.63947-.07855,1.29749-.05548,2.02417l.13013.19519c.61621.31177,1.45221.46759,2.26355.40118,1.21039-.09894,1.86792-.36749,2.44525-1.14313.54578-.73315.84973-1.64514.58148-2.59436-.24701-.87402-.58069-1.3316-1.42938-2.08417Z"/><path class="cls-2" d="M38.80878,80.05402c1.37549.31104,2.10571.78253,1.89435,1.73376-.25598,1.15186-2.47577,1.29486-4.30878.28784l-.3634,2.24084c1.53522.3584,3.54883.84283,5.87469-.12109.94263-.39075,1.71594-1.61816,1.71594-2.66479,0-.96002.08325-2.18787-2.2005-3.14935-1.12866-.47516-3.20306-.67383-2.47931-1.9505.68402-1.2066,3.03247-.52832,3.76782-.20911l.38708-2.07983c-3.61908-.96973-6.84125-.32373-7.14746,2.41046-.21466,1.91711.82654,3.04193,2.85956,3.50177Z"/><circle class="cls-2" cx="47.21753" cy="70.68207" r="1.33997"/><path class="cls-2" d="M37.96899,99.76117c1.28491.83588,2.48303,1.16864,4.25989,1.12103,3.54547-.09503,2.94885-.07886,3.2951-2.76935l-.20569-.00092c-.03802.5213-.13098.87244-.40277,1.23883-.54889.73981-1.25348.91919-2.39404.89301-1.66492-.03821-2.58356-.2959-3.63287-1.25403-1.09625-1.00104-1.71539-2.14435-1.74805-3.92169-.0188-1.02502.02814-1.73547.42938-2.54987.77527-1.57318,2.02246-2.17566,3.87988-2.21161,1.1864-.02295,2.22107.25647,2.83105.62323.58759.35327.83502,1.04608.84094,1.82263.00055.07019.05762.12677.12781.12677h.0072c.07269,0,.13263-.05707.13611-.12976l.11902-2.46759c.00427-.08911-.06354-.16516-.15253-.17096-.13226-.00867-.33618-.02386-.57312-.04755-.41974-.04193-1.53522-.28687-2.50806-.2926-3.211-.0188-4.38611.81207-5.4151,2.15845-.62024.81158-1.05579,2.05969-1.0412,3.47705.0152,1.48206.65741,3.38586,2.14703,4.35492Z"/><rect class="cls-2" x="45.8927" y="73.93994" width="2.64966" height="10.64905"/><path class="cls-2" d="M47.90521,90.16266c.64545.021,1.03998.14105,1.03998.83093v8.27454c0,.44684.07629,1.25079-.90015,1.28601-.03796.0014-.06812.0321-.06873.07007-.00055.03314.01227.06433.03534.08704.02307.02277.05438.03503.08679.03406,1.25-.03802,1.99005-.00604,3.30432-.00604,0,0,1.51282.0498,1.82062.03271.27313-.0152.81238.04156.9491-.09119.31372-.30469.30042-.83606.36951-1.90521.00171-.02625-.00763-.052-.02563-.07117s-.04309-.03009-.0694-.03009h-.03937c-.03387,0-.06305.02393-.06982.05707-.22412,1.09509-.58527,1.48151-1.58459,1.45349-2.30176-.06458-2.54376.21069-2.54376-2.09198l.0379-7.32642c0-.34229.26569-.617,1.03644-.617.05243,0,.11334-.04852.10944-.12091-.00281-.05212-.01837-.09912-.15912-.08905-1.19141.08569-2.26624.07208-3.36591.01184-.14807-.00812-.13422.20575.03705.2113Z"/><path class="cls-2" d="M55.06171,84.55817c1.76166-.05505,2.83295-.79535,3.43835-1.7356.02808,2.85406-.78839,4.07556-3.16949,4.1991v2.1601c3.88617,0,5.95544-2.07935,5.95544-5.67279,0-4.04773-.08081-9.56909-.08081-9.56909l-2.62439,1.45355c-1.16083-2.12982-4.82367-2.34363-6.54016-.12372-1.53046,1.97931-1.64661,5.08459-.48132,7.31152.6795,1.29858,2.14008,2.01953,3.50238,1.97693ZM56.07111,75.85773c1.70721,0,2.4422,1.39917,2.46704,3.19983.02484,1.8006-.7674,3.32086-2.37708,3.32086-1.56989,0-2.4422-1.39911-2.4671-3.19977-.02484-1.8006.76849-3.32092,2.37714-3.32092Z"/><path class="cls-2" d="M113.38586,0H28.3465C12.69116,0,0,12.6911,0,28.34644v85.03937c0,15.65533,12.69116,28.3465,28.3465,28.3465h85.03937c15.65527,0,28.34644-12.69116,28.34644-28.3465V28.34644c0-15.65533-12.69116-28.34644-28.34644-28.34644ZM123.37756,121.8111H18.35474V19.9212h105.02283v101.88989Z"/></svg>