<?xml version="1.0" encoding="UTF-8"?><svg id="WZOR" xmlns="http://www.w3.org/2000/svg" viewBox="0 0 141.7323 141.7323"><defs><style>.cls-1{fill:#f1e9da;}.cls-1,.cls-2{stroke-width:0px;}.cls-2{fill:#192a51;}</style></defs><rect id="TLO" class="cls-1" x=".00002" y="0" width="141.73228" height="141.73228" rx="28.34646" ry="28.34646"/><path class="cls-2" d="M113.38586,0H28.3465C12.69116,0,0,12.6911,0,28.34644v85.03937c0,15.65533,12.69116,28.3465,28.3465,28.3465h85.03937c15.65527,0,28.34644-12.69116,28.34644-28.3465V28.34644c0-15.65533-12.69116-28.34644-28.34644-28.34644ZM129.51239,67.54877c-.52692,8.43835-5.07129,14.078-11.38782,18.41284-6.10919,4.19257-11.62744,6.03552-17.87616,6.35779-7.2041.37158-13.40826-.8042-17.87616-4.16968-4.4679-3.36554-6.50226-6.93579-6.97705-12.50922-.47479-5.57336,1.4881-10.18256,4.69684-14.53418,4.52069-6.13074,15.63574-14.17914,9.46368-20.5163-1.68036-1.72534-5.86023-2.05713-9.53668-1.27979-8.29816,1.75458-17.92902,8.52991-22.12842,14.65594-5.75922,8.40137-3.83948,13.68579,2.758,17.91956,4.89612,3.14191,10.53558,6.87177,9.75116,13.04376-.86334,6.79333-8.28778,11.93048-16.26605,15.72937-7.97827,3.79883-28.26605,8.69727-36.24768,4.37616-7.3183-3.96198-6.08606-11.92773-4.54132-19.65143,1.59637-7.98163,10.76147-36.27521,15.52295-46.65137,0,0-8.77979,35.94495-9.49542,44.5459-1.11719,13.42804-1.65137,14.65594,17.50427,14.2099,10.40802-.24237,25.7085-2.87067,26.17462-12.51727.53687-11.11102-18.12598-12.46313-18.29419-25.04584-.17371-12.99084,17.06891-22.00677,28.57404-24.289,6.72937-1.33484,16.5-1.0321,19.23853,5.90369,3.95667,10.02094-10.99542,14.61469-11.21185,29.01929-.18512,12.3208,11.67114,14.26837,18.47791,13.66876,8.43579-.7431,20.16943-6.93219,22.08716-17.711,2.39447-13.45874-11.27063-20.39447-25.34863-16.22479,14.078-8.00916,34.14221-2.02289,32.93829,17.2569Z"/></svg>