<?xml version="1.0" encoding="UTF-8"?><svg id="WZOR" xmlns="http://www.w3.org/2000/svg" viewBox="0 0 141.7323 141.7323"><defs><style>.cls-1{fill:#f1e9da;}.cls-1,.cls-2{stroke-width:0px;}.cls-2{fill:#192a51;}</style></defs><rect id="TLO" class="cls-1" x=".00002" y="0" width="141.73228" height="141.73228" rx="28.34646" ry="28.34646"/><polygon class="cls-2" points="60.43152 93.43604 60.43152 71.77515 58.0921 71.77515 60.43152 93.43604"/><path class="cls-2" d="M75.2171,40.70917l-.08832.02014v.27521c.03589.0614.07117.11926.10675.1795l-.01843-.47485Z"/><path class="cls-2" d="M65.04144,42.76257c.0332.24658-.02692.6485-.10822,1.11963.34875.172.66412.30365,1.02289.42584-.03265-.1463-.06165-.29272-.06128-.46869.00116-.61029.06628-.98267.12384-1.59631.27051-.31171.46637-.56903.59174-.94952,0,0-.0271-.11475-.05267-.26477-1.20264.45264-2.13678.57996-3.57654.5033.02893.10107.05603.18439.08563.29126h1.11469s.78741.40002.85992.93927Z"/><path class="cls-2" d="M69.60059,30.07434v.05182h.58539v-.63727c-.3233,0-.58539.26215-.58539.58545Z"/><path class="cls-2" d="M66.2251,44.95404c-.03027-.0451-.04004-.09088-.06586-.1355l-1.38611.01672c-.0293.19287-.0564.38708-.07556.57977-.08942.89893-.08612,2.68939-.08337,3.17896h1.39471l.10614-2.75922s-.43701-.37378-.38538-.59174c.0517-.21796.49542-.289.49542-.289Z"/><path class="cls-2" d="M69.60059,30.37244c0,.3233.26208.58545.58539.58545v-.63727h-.58539v.05182Z"/><path class="cls-2" d="M71.14783,30.07434c0-.3233-.26208-.58545-.58545-.58545v.63727h.58545v-.05182Z"/><path class="cls-2" d="M71.14783,30.37244v-.05182h-.58545v.63727c.32336,0,.58545-.26215.58545-.58545Z"/><path class="cls-2" d="M64.8974,44.0871c-.03119.17737-.06317.35968-.09387.54797l1.25922-.01508c-.01111-.02557-.02759-.05084-.03729-.07672-.4137-.13129-.75751-.27448-1.12805-.45618Z"/><path class="cls-2" d="M75.42383,40.88232l.02533.65088c.23029.36511.46539.68518.73926.88873-.08575.85876-.1524,1.43951-.13977,2.19513l1.50629.01801c-.0307-.18829-.06268-.37061-.09387-.54797-.42413.20801-.7959.36969-1.29993.51544l-.05566-.19141c.51196-.14844.87451-.30933,1.31976-.52893-.0813-.47113-.14142-.87305-.10822-1.11963.07251-.53925.85992-.93927.85992-.93927h1.11469c.0296-.10687.0567-.19019.08563-.29126-1.58765.08453-2.55664-.07452-3.95343-.64972Z"/><path class="cls-2" d="M80.99115,93.43573c.09637-.09637,2.69727-21.66058,2.69727-21.66058h-2.69727s-.09631,21.7569,0,21.66058Z"/><path class="cls-2" d="M77.58533,44.83527l-1.53479-.01855c.00037.00964-.00012.01758.00024.02728,0,0,.36749.33136.35785.60547-.0097.27411-.39911.578-.39911.578l.02631,2.56653h1.70844c.00275-.48956.00604-2.28003-.08337-3.17896-.01917-.19269-.04626-.3869-.07556-.57977Z"/><rect class="cls-2" x="64.03705" y="71.77515" width="13.67889" height="4.211"/><rect class="cls-2" x="63.93787" y="77.77515" width="13.67889" height="25.16974"/><path class="cls-2" d="M113.38586,0H28.3465C12.69116,0,0,12.6911,0,28.34644v85.03937c0,15.65533,12.69116,28.3465,28.3465,28.3465h85.03937c15.65527,0,28.34644-12.69116,28.34644-28.3465V28.34644c0-15.65533-12.69116-28.34644-28.34644-28.34644ZM46.40619,109.46735h-.6217v.83929h-3.40381v-.87036h-.65277v-2.44019h4.67828v2.47125ZM99.98199,109.46735h-.6217v.83929h-3.40375v-.87036h-.65277v-2.44019h4.67822v2.47125ZM120.35931,61.26825v.85669l-2.64221,2.21906.01648,1.67468h.37048c.08905,0,.16125.0722.16125.16125,0,.32733-.22375.59198-.5235.6778l.04749,4.83484h-.56763c-2.30347,26.3952-1.92493,21.54443-2.22632,27.06885l.85321,1.6651-.289,5.80737c.89514.49023.96545,2.77917.06366,3.46661-1.11127.84705-3.73999.86896-4.02692-1.15472l-.72937-1.12842c-.15302-.75757-.1701-1.07214.27521-1.27295l-.34406-5.45642.97711-1.81647-.00983-.11011c-.51965-5.45642-.20172-.68439-2.58386-27.05847h-7.7821l-1.125,1.46558-1.18689,26.81763.88074,1.51379-.20642,5.10547h-4.26611l-.28894-5.21558.85321-1.38989-1.21106-26.80737-.97705-1.47247h-8.77979l-3.64337,31.1319,2.21906,2.1571-1.35205.578v3.00342l1.09747,1.10437h-25.04248l.99084-1.14911.02063-2.97931-1.36237-.55737,2.19843-2.21906-3.61243-31.09747h-8.73163l-1.01147,1.46564-1.27252,26.83606.89368,1.52313-.32642,5.19891h-4.20416l-.39636-5.12115.97095-1.56079-1.27985-26.89679-1.0459-1.36243h-7.81647l-2.42206,27.09637.97711,1.81647-.34406,5.45642c.44531.20081.42822.51538.27521,1.27295l-.72937,1.12842c-.28693,2.02368-2.91565,2.00177-4.02692,1.15472-.90179-.68744-.83148-2.97638.06366-3.46661l-.289-5.80737.85321-1.6651-2.39453-27.11011h-.51257l.02106-4.88385c-.19391-.1283-.32959-.33759-.32959-.58752,0-.08905.0722-.16125.16125-.16125h.17157l.00665-1.55084-2.69727-2.38074v-.88074l-1.211-1.58258h1.34863v-.48163h2.51837v-1.45874h.75684v-4.25226l-1.6651-2.50464h32.90369l.05261.00568v-.69678h1.31329v-1.3056h1.54462v-.33582h3.63104l.34259-.50574v-2.47711l-.79474-.97015-1.00116.81537v1.36237s.30829.33929.30829.54907c0,.16229-.78009.80151-.82373-.13983-.02936-.63318-.04187-1.74066-.04187-1.74066h-.13428l-.00885-.71356.49402-.34949v-.61926c-.1225-.22058-.47479-.58179-.30383-1.20868.08063-.29553.6748-.89685.6748-.89685-.65985.11353-1.11182-.22565-1.26892-.97015h.289v-.97021h-.20642v-.49664l.14453.00122.20642-.31464c-1.07245-.26422-.10553-.79266.59058-.79266.81177,0,1.35535.66486,2.0918,3.17188,1.48047.08612,2.3844-.03302,3.60791-.50128-.01056-.09131-.01764-.18262-.01508-.26282.00922-.28717.24774-1.25232.24774-1.25232l-.01263-.93335s.06744-.12433.19427-.12433c.1496,0,.2312.24579.2312.24579l.5401-.00873s.08099-.25275.18921-.25275c.32825,0,.18402.36444.11011.71558.01117.18378.08051.28656.27521.34406-.16266.2334-.17255.47919-.12384.79816l.5603-.29541c-.21332-5.20325-.14386-4.43335-.151-4.75812-.00757-.34222.23981-.78876.58209-.78876h.12274c.34229,0,.59119.29517.59552.65924.00781.65277.65277.73566.57507-.25903-.39124-.01904-.75861-.0271-.474-.44299.16669-.13605.27216-.24774.37738-.34015v-1.04053h-.21326v-.33673h.21326v-.32123h-.25568v-.34192h.25568v-.18658c-.01685-.00024-.03271.00336-.04968.00256-.8222-.03717-1.45721-.70447-1.4184-1.49048.02783-.56287.39642-1.0293.90381-1.23779v-.2063c0-.16895-.11578-.31592-.27991-.3559-.97052-.23639-1.47632-.82739-1.80072-2.28998-.01379-.06213.00854-.12665.05792-.16681.04938-.0401.11719-.04889.17517-.02264.68616.31067,1.19769.57996,1.66864,1.02228v.45416l.51605-.00293v-.23932h-.18665v-.65869h.18665v-.34387h.33789v1.23993l.35712-.00201.04126-.62616c.49701-.46649.86383-.69122,1.48029-.95068.05573-.02344.11975-.01501.1676.02185.04785.03693.0722.09668.06372.15656-.18243,1.29022-.56836,1.88354-1.4444,2.29095-.12933.06018-.21216.18994-.21216.33258v.33191c.57721.21747.97601.76196.94507,1.38739-.03467.70178-.59564,1.25739-1.30048,1.34277v.1972h.2149v.34192h-.2149v.32123h.2149v.33673h-.2149v.89093c.12604-.06836.28802-.12024.54449-.15912.56342-.08551,1.00153.15582,1.01416.43127.01257.27551-.49738.50128-.49738.50128-.0108.5437-.10864,1.17731.43518,1.17731.79907,0-.11621-1.3421.7854-1.3421.29944,0,.59576.26178.61731.7049.01428.29437.05902,2.70685.08752,4.29584l.47589-.03723c-.02234-.47595.01257-.76904.22534-1.0647-.04395-.27917-.06409-.52319.00781-.7149h.16315c.04047.13312.06177.29828.06995.50513l.49738.00775c.08459-.11603.1402-.17126.29529-.13989-.02264-.15588.00507-.24591.04663-.37299h.14764c.08685.12061.05353.56512.03113.94031.04321.0545.09119.08929.17096.09326.04401.10913.01978.22705-.01556.38855-.09277-.00238-.14343.01672-.14764.10101v.6994l.22534.20209c.03418.19006-.06653.43665-.17871.69159l-.14307.03259c1.44409.60461,2.3764.76086,4.0166.66547.73645-2.50702,1.28003-3.17188,2.0918-3.17188.69611,0,1.66302.52844.59058.79266l.20642.31464.14453-.00122v.49664h-.20642v.97021h.289c-.1571.74451-.60907,1.08368-1.26892.97015,0,0,.59418.60132.6748.89685.17096.62689-.18134.9881-.30383,1.20868v.61926l.49402.34949-.00885.71356h-.13428s-.01251,1.10748-.04187,1.74066c-.04364.94135-.82373.30212-.82373.13983,0-.20978.30829-.54907.30829-.54907v-1.36237l-1.00116-.81537-.79474.97015v2.47711l.34259.50574h4.33289l.04132,1.45526h1.383l-.05505.58832h32.85553l.03094,1.07336-1.61011,1.77521v4.3349h.75348v1.2179h2.69379v.63989h1.35205l-1.41394,1.58942Z"/></svg>