<?xml version="1.0" encoding="UTF-8"?><svg id="WZOR" xmlns="http://www.w3.org/2000/svg" viewBox="0 0 141.7323 141.7323"><defs><style>.cls-1{fill:#f1e9da;}.cls-1,.cls-2{stroke-width:0px;}.cls-2{fill:#192a51;}</style></defs><rect id="TLO" class="cls-1" x=".00002" y="0" width="141.73228" height="141.73228" rx="28.34646" ry="28.34646"/><path class="cls-2" d="M101.64014,48.14508c1.23059,2.03943,1.69189,3.92896,6.20343,2.84113,4.9375-1.19055,11.76025-5.24786,14.59064-8.99573,2.1546-2.85284,1.10962-4.05981.01331-5.87292l-20.80737,12.02753Z"/><path class="cls-2" d="M47.44379,34.63501c-3.71185-3.38904-10.20203-7.26373-15.09259-9.18951-3.24811-1.27899-6.02899-1.10425-7.05963.57111l-.96332,1.48627,24.68805,14.25684.74316-1.45868c.73889-1.51312-.01996-3.56995-2.31567-5.66602Z"/><polygon class="cls-2" points="109.06543 30.11597 92.98291 36.93378 94.98993 40.62201 109.06543 30.11597"/><polygon class="cls-2" points="25.84888 42.14508 39.74109 52.7345 41.94977 49.16339 25.84888 42.14508"/><path class="cls-2" d="M113.38586,0H28.3465C12.69116,0,0,12.6911,0,28.34644v85.03937c0,15.65533,12.69116,28.3465,28.3465,28.3465h85.03937c15.65527,0,28.34644-12.69116,28.34644-28.3465V28.34644c0-15.65533-12.69116-28.34644-28.34644-28.34644ZM118.11975,23.32806l1.2995,2.26251-36.77283,27.50024-1.40192-2.24969,11.63281-8.62018-2.33118-4.18219-13.22583,5.80988-1.10236-2.31647,41.90179-18.2041ZM22.85577,25.03265c1.88696-3.23108,5.69537-3.48669,10.05963-1.98853,5.5321,1.89911,11.22937,5.86237,16.07336,9.52295,3.42419,2.58759,4.38715,6.1709,3.15826,8.52521l-1.07336,1.89911,10.61005,6.04816-1.46558,2.20874L20.87408,28.23224l1.98169-3.19958ZM52.04382,65.0166L15.46588,37.64508l1.32104-2.25,42.11011,18.30963-1.25916,2.33252-13.25232-5.83142-2.47705,4.09747,11.60095,8.60785-1.46564,2.10547ZM69.63098,59.23682l-.02753-14.50458h2.77979l-.03784,14.48395,12.65179,7.44177-1.44543,2.21222-12.63007-7.32147-12.60266,7.18353-1.43115-2.11926,12.7431-7.37616ZM71.14819,76.7984h-5.69812v42.77094h-2.479v-42.77094h-5.7254v-2.47906h13.90253v2.47906ZM85.07135,76.7984h-8.97937v18.06683h7.31769v2.479h-7.31769v19.74609h8.97937v2.479h-11.45837v-45.25h5.13123l1.45557-2.57385h3.08521l-1.56366,2.57385h3.35004v2.47906ZM123.95093,44.26086c-4.1181,4.46906-9.34393,7.02991-14.83142,9.05164-2.2738.83771-4.48376.84277-6.28998-.10791l-13.15497,11.9978-1.17657-2.31195s9.81702-9.01605,12.32275-11.37207c-.19513-.24481-.38348-.50208-.5567-.78613l-1.0321-1.36243-13.74774,8.2569-1.40369-2.27063,39.34406-22.74774,2.10553,3.59174c1.45947,2.5379.65485,5.63647-1.57916,8.06079Z"/></svg>