<?xml version="1.0" encoding="UTF-8"?><svg id="LOGO" xmlns="http://www.w3.org/2000/svg" viewBox="0 0 141.7323 141.7323"><defs><style>.cls-1{fill:#f1e9da;}.cls-1,.cls-2{stroke-width:0px;}.cls-2{fill:#192a51;}</style></defs><rect id="TLO" class="cls-1" x=".00002" y="0" width="141.73228" height="141.73228" rx="28.34646" ry="28.34646"/><path id="ORCHID" class="cls-2" d="M113.38586,0H28.3465C12.69116,0,0,12.6911,0,28.34644v85.03937c0,15.65533,12.69116,28.3465,28.3465,28.3465h85.03937c15.65527,0,28.34644-12.69116,28.34644-28.3465V28.34644c0-15.65533-12.69116-28.34644-28.34644-28.34644ZM70.86615,18.93872l13.55304,7.75867-13.55304,23.47461-13.55304-23.47461,13.55304-7.75867ZM25.51184,44.90247l28.17877-16.13135,14.76569,25.57489-13.07111,22.63995h-29.87335v-32.0835ZM25.51184,96.82983v-15.66998h27.46356l-13.62189,23.59381-13.84167-7.92383ZM70.86615,122.79352l-27.89032-15.96619,14.39124-24.92633,13.49908,23.38116,13.49908-23.38116,14.39124,24.92633-27.89032,15.96619ZM116.22052,96.82983l-13.84174,7.92383-13.62189-23.59381h27.46362v15.66998ZM116.22052,76.98596h-29.87341l-13.07111-22.63995,14.76569-25.57489,28.17883,16.13135v32.0835Z"/></svg>