<?xml version="1.0" encoding="UTF-8"?><svg id="WZOR" xmlns="http://www.w3.org/2000/svg" viewBox="0 0 141.7323 141.7323"><defs><style>.cls-1{fill:#f1e9da;}.cls-1,.cls-2{stroke-width:0px;}.cls-2{fill:#192a51;}</style></defs><rect id="TLO" class="cls-1" x=".00002" y="0" width="141.73228" height="141.73228" rx="28.34646" ry="28.34646"/><path class="cls-2" d="M112.0611,83.74634h-2.59003v5.03998h2.12006c1.51996,0,2.75-1.22998,2.75-2.75,0-1.27002-1.02002-2.28998-2.28003-2.28998Z"/><path class="cls-2" d="M93.22626,85.78107v-.36469c0-.96716-.78406-1.75116-1.75116-1.75116h-1.90253v3.86694h1.90253c.9671,0,1.75116-.784,1.75116-1.7511Z"/><path class="cls-2" d="M91.75037,89.23175h-2.1778v4.25226h2.59576c1.0517,0,1.90424-.85254,1.90424-1.90424v-.02588c0-1.28247-1.03967-2.32214-2.3222-2.32214Z"/><path class="cls-2" d="M113.38586,0H28.3465C12.69116,0,0,12.6911,0,28.34644v85.03937c0,15.65533,12.69116,28.3465,28.3465,28.3465h85.03937c15.65527,0,28.34644-12.69116,28.34644-28.3465V28.34644c0-15.65533-12.69116-28.34644-28.34644-28.34644ZM114.24689,63.94501h1.99542l5.09174,13.47247h-2.44958l-1.38318-3.99078h-4.67346l-1.38831,3.99078h-2.31189l5.11926-13.47247ZM83.27667,64.02759h2.18811v9.41284c0,1.28827,1.04431,2.33258,2.33258,2.33258,1.41364,0,2.55963-1.146,2.55963-2.55963v-9.18579h2.18805v9.17548c0,2.41119-1.95465,4.36584-4.36584,4.36584h-.53668c-2.41119,0-4.36584-1.95465-4.36584-4.36584v-9.17548ZM66.08173,107.50006c-10.05817,1.75201-13.93658-.80487-13.45868-10.81653v-41.75226c0-23.68903-24.02753-23.85419-24.02753-.16516v9.17889h10.27979v3.59174h-10.27979v22.88995c0,3.22754,2.61646,5.84399,5.84399,5.84399h2.39911v2.39453H12.86615v-2.39453h2.32111c3.22754,0,5.84399-2.61646,5.84399-5.84399v-22.88995h-8.51373v-3.59174h8.51373v-10.84863c0-24.97247,38.12848-26.67889,38.12848,0v43.58716c0,5.22253,1.01831,5.16058,6.922,5.16058v5.65594ZM80.76868,95.40375h-6.77411v-13.54126h2.18811v11.73853h4.586v1.80273ZM81.0542,65.83032h-4.77521v3.99084h4.77521v1.80273h-4.77521v5.94501h-2.18805v-13.54132h6.96326v1.80273ZM84.79736,95.40375h-2.18811v-13.54132h2.18811v13.54132ZM92.05109,95.40631h-4.63v-13.53998h4.35999c1.94,0,3.52002,1.57001,3.52002,3.51001,0,3.17938-2.80176,2.72137-2.15997,2.81995.55676,0,3.01996.41138,3.01996,3.10004,0,2.26996-1.83997,4.10999-4.10999,4.10999ZM105.24689,83.66522h-5.22937v3.86694h5.22937v1.8028h-5.22937v4.26605h5.22937v1.80273h-7.41742v-13.54126h7.41742v1.80273ZM101.53821,77.89917c-3.99017,0-7.22479-3.23468-7.22479-7.22479s3.23462-7.22473,7.22479-7.22473c2.8233,0,5.2619,1.62317,6.45044,3.98389h-2.56232c-.93274-1.11768-2.31854-1.84399-3.88812-1.84399-2.80829,0-5.0849,2.27655-5.0849,5.08484s2.27661,5.08484,5.0849,5.08484c2.15338,0,3.98358-1.34344,4.72504-3.23389h-6.5072v-1.8028h9.00446c-.02618,3.96771-3.24841,7.17664-7.22229,7.17664ZM116.45111,86.3963c0,2.10999-1.72003,3.83002-3.83002,3.83002h-.02002l3.85004,5.17999h-2.77002l-3.59998-5.17999-.61005-.88v6.06h-2.19v-13.53998h4.85004c2.38,0,4.32001,1.92999,4.32001,4.31v.21997ZM126.7652,95.40631l-1.38318-3.99078h-4.67346l-1.38831,3.99078h-2.31189l5.11926-13.47247h1.99542l5.09174,13.47247h-2.44958Z"/><polygon class="cls-2" points="115.16888 66.69733 113.45502 71.6239 116.8764 71.6239 115.16888 66.69733"/><polygon class="cls-2" points="121.33575 89.61273 124.75714 89.61273 123.04962 84.68616 121.33575 89.61273"/></svg>