<?xml version="1.0" encoding="UTF-8"?><svg id="WZOR" xmlns="http://www.w3.org/2000/svg" viewBox="0 0 141.7323 141.7323"><defs><style>.cls-1{fill:#f1e9da;}.cls-1,.cls-2{stroke-width:0px;}.cls-2{fill:#192a51;}</style></defs><rect id="TLO" class="cls-1" x=".00002" y="0" width="141.73228" height="141.73228" rx="28.34646" ry="28.34646"/><path class="cls-2" d="M65.15802,78.53613c-.40405.03174-.50024.18304-.49829.44922s0,28.94037,0,28.94037c2.58002.49927,3.86743-.46552,3.96332-4.3761.18335-7.48285.34076-13.94464,0-19.15601-.28168-4.30743-1.14319-6.03998-3.46503-5.85748Z"/><path class="cls-2" d="M113.38586,0H28.3465C12.69116,0,0,12.6911,0,28.34644v85.03937c0,15.65533,12.69116,28.3465,28.3465,28.3465h85.03937c15.65527,0,28.34644-12.69116,28.34644-28.3465V28.34644c0-15.65533-12.69116-28.34644-28.34644-28.34644ZM26.30652,112.38446c-4.29413,0-7.77521-2.66974-7.77521-19.01147,0-16.68579,3.48108-19.01147,7.77521-19.01147s7.77521,2.32568,7.77521,19.01147c0,16.83716-3.48108,19.01147-7.77521,19.01147ZM53.78815,112.02667h-5.28436v-31.59631c0-1.06409-.86261-1.92664-1.92664-1.92664h-1.98163v33.52295h-5.28442v-37.26605l7.49823-.09924c3.36591,0,6.97882,1.35687,6.97882,6.70471v30.66058ZM65.23993,112.02667h-5.8371v-37.26605h5.0918c10.63788,0,9.65179,10.47858,9.85315,18.99078.3028,12.79822-2.15796,18.27527-9.10785,18.27527ZM85.21936,112.02667h-5.44952v-37.26605h5.44952v37.26605ZM105.37994,112.02667h-5.28436v-31.59631c0-1.06409-.86261-1.92664-1.92664-1.92664h-1.98163v33.52295h-5.28442v-37.26605l7.49817-.09924c3.36591,0,6.97888,1.35687,6.97888,6.70471v30.66058ZM108.83405,32.92572v79.10095h-.86011V34.63214h-19.5069v77.39453h-.86005V34.63214h-10.13531v77.39453h-.86011V34.63214h-19.57568v77.39453h-.86011V34.63214h-18.7569v77.39453h-.86011V29.34778h72.27527v3.57794ZM123.20099,78.72394h-5.40137c-.82465,0-1.4931.66846-1.4931,1.4931v9.48163c0,.19379.1571.35095.35089.35095h5.92432v4.83026h-5.92432c-.19379,0-.35089.1571-.35089.35089v10.95416c0,.82458.66846,1.4931,1.4931,1.4931h5.40137v4.34863h-12.13757v-37.26605h12.13757v3.96332Z"/><path class="cls-2" d="M26.30652,79.27435c-1.37567,0-2.49084,1.23853-2.49084,13.92664,0,13.24884,1.29358,14.1571,2.51147,14.1571,1.18695,0,2.47021-.04132,2.47021-14.1571,0-12.68811-1.11523-13.92664-2.49084-13.92664Z"/></svg>