<?xml version="1.0" encoding="UTF-8"?><svg id="WZOR" xmlns="http://www.w3.org/2000/svg" viewBox="0 0 141.7323 141.7323"><defs><style>.cls-1{fill:#f1e9da;}.cls-1,.cls-2{stroke-width:0px;}.cls-2{fill:#192a51;}</style></defs><rect id="TLO" class="cls-1" x=".00002" y="0" width="141.73228" height="141.73228" rx="28.34646" ry="28.34646"/><polygon class="cls-2" points="54.8656 72.22974 40.44318 86.65216 54.89062 101.09967 69.31311 86.67719 65.11688 82.48102 96.90344 50.69446 90.68323 44.47424 58.89667 76.2608 54.8656 72.22974"/><polygon class="cls-2" points="24.65735 70.86633 38.56958 84.77856 52.992 70.35614 49.42877 66.79291 81.21533 35.00635 70.86627 24.65735 24.65735 70.86633"/><polygon class="cls-2" points="71.02155 88.38568 56.59912 102.80811 70.86627 117.07526 117.07526 70.86633 106.37128 60.16229 74.58472 91.94885 71.02155 88.38568"/><path class="cls-2" d="M113.38586,0H28.3465C12.69116,0,0,12.6911,0,28.34644v85.03937c0,15.65533,12.69116,28.3465,28.3465,28.3465h85.03937c15.65527,0,28.34644-12.69116,28.34644-28.3465V28.34644c0-15.65533-12.69116-28.34644-28.34644-28.34644ZM70.86639,119.26703l-48.40137-48.40039.03564-.03516,48.36572-48.36621.03516.03564,48.36572,48.36572-48.40088,48.40039Z"/></svg>