<?xml version="1.0" encoding="UTF-8"?><svg xmlns="http://www.w3.org/2000/svg" viewBox="0 0 141.7323 141.7323"><defs><style>.cls-1{fill:#f1e9da;}.cls-1,.cls-2{stroke-width:0px;}.cls-2{fill:#192a51;}</style></defs><g id="WZOR"><rect id="TLO" class="cls-1" x=".00002" y="0" width="141.73228" height="141.73228" rx="28.34646" ry="28.34646"/></g><g id="Warstwa_2"><path class="cls-2" d="M25.52582,115.85663v5.30737c4.12823.5733,5.18573-5.19177,0-5.30737Z"/><path class="cls-2" d="M72.40924,115.85663v5.30737c4.12823.5733,5.18573-5.19177,0-5.30737Z"/><polygon class="cls-2" points="100.05634 117.6767 98.96759 121.04193 101.74701 121.04193 100.479 117.6767 100.05634 117.6767"/><path class="cls-2" d="M113.38586,0H28.3465C12.69116,0,0,12.6911,0,28.34644v85.03937c0,15.65533,12.69116,28.3465,28.3465,28.3465h85.03937c15.65527,0,28.34644-12.69116,28.34644-28.3465V28.34644c0-15.65533-12.69116-28.34644-28.34644-28.34644ZM118.83301,14.50708v92.82068c-12.151-.75269-21.65948-5.74268-35.14545-19.05847-9.13342-9.01813-15.5343-15.45734-27.35815-24.59155,13.82019-4.42664,21.51764-13.11554,21.51764-25.20642,0-11.57855-7.22552-19.09241-20.08313-23.96423h61.06909ZM22.92578,14.50708h13.43573c17.52155,0,26.46198,10.32538,26.42316,24.98889-.05121,19.36591-12.0755,27.69379-39.85889,25.71869V14.50708ZM22.92578,68.03247c7.5127.36816,12.01404.66107,19.54523,0,7.42786,5.65747,14.78235,11.36151,22.59351,19.289,15.11261,15.33777,24.2334,21.49408,38.96234,22.59357l-81.10107.46106v-42.34363ZM33.505,127.22522h-1.75757c-1.54163-.47247-2.95135-2.05798-4.60388-4.91211-.51038.07013-1.05023.09021-1.61774.04181v2.79578c0,.49597.40216.89807.89813.89807h.76782v1.17645h-5.93188v-1.17645h.76782c.49597,0,.89813-.4021.89813-.89807v-8.21722c0-.49597-.40216-.89807-.89813-.89807h-.76782v-1.17645h4.26593c7.47388-.03937,7.33551,4.74023,3.88818,6.69934,1.44666,2.3689,3.16101,4.96881,4.091,4.58685v1.08008ZM40.29364,116.0354h-.76788c-.49597,0-.89813.4021-.89813.89807v8.21722c0,.49597.40216.89807.89813.89807h.76788v1.17645h-5.93195v-1.17645h.76782c.49591,0,.89795-.40204.89807-.89783v-8.21777c-.00012-.49573-.40216-.89777-.89807-.89777h-.76782v-1.17645h5.93195v1.17645ZM52.69189,127.22522c-.60535-.24945-1.04089-.38196-1.79315-.24976-5.72156,1.00519-9.40118-1.16235-9.40118-5.93341,0-5.45081,4.8999-7.1535,10.29773-5.79883h1.69067v3.5094h-1.0246c-.74292-4.2395-8.23566-4.16266-8.24847,2.07495-.01074,5.23688,5.90302,7.68475,8.94006,2.61285h1.12714l-1.5882,3.78479ZM66.15961,127.22522h-10.58765v-1.17645h.76782c.49591,0,.89795-.40204.89807-.89783v-8.21777c-.00012-.49573-.40216-.89777-.89807-.89777h-.76782v-1.17645h9.83838v3.41339h-.94135v-1.14313c0-.51459-.41724-.93182-.93182-.93182h-3.69928v3.79443h3.20935c.32367,0,.586-.26239.586-.58594v-.58606h.81647v4.14984h-.93176v-.97015c0-.32367-.26239-.586-.586-.586h-3.09406v4.17865h4.05469c.56238,0,1.01825-.45593,1.01825-1.01825v-.9798h1.24878v3.6311ZM80.38843,127.22522h-1.75757c-1.54163-.47247-2.95135-2.05798-4.60388-4.91211-.51038.07013-1.05023.09021-1.61774.04181v2.79578c0,.49597.40216.89807.89813.89807h.76788v1.17645h-5.93195v-1.17645h.76782c.49597,0,.89813-.4021.89813-.89807v-8.21722c0-.49597-.40216-.89807-.89813-.89807h-.76782v-1.17645h4.26593c7.47388-.03937,7.33551,4.74023,3.88818,6.69934,1.44666,2.3689,3.16101,4.96881,4.091,4.58685v1.08008ZM92.0592,127.22522c-.60529-.24945-1.04083-.38196-1.79309-.24976-5.72162,1.00519-9.40118-1.16235-9.40118-5.93341,0-5.45081,4.8999-7.1535,10.29773-5.79883h1.69067v3.5094h-1.02466c-.74286-4.2395-8.2356-4.16266-8.24841,2.07495-.01074,5.23688,5.90302,7.68475,8.94006,2.61285h1.12714l-1.58826,3.78479ZM107.42096,127.22522h-5.98132v-1.06952h1.37811c.21216,0,.40997-.10718.52576-.28491.11584-.1778.13397-.40198.04828-.59607l-1.13245-2.56439h-3.84247l-1.03058,2.64355c-.06042.15497-.04041.32977.05347.4671s.24945.21948.41577.21948h1.38104v1.18475h-5.11041v-1.18475h.99451c.37677,0,.71222-.23853.836-.59436l3.68164-10.58716h2.29437l4.12976,10.77344c.12079.31519.42346.52332.76105.52332h.59747v1.06952ZM120.47247,127.22522h-1.75763c-1.54163-.47247-2.95135-2.05798-4.60382-4.91211-.51044.07013-1.05029.09021-1.6178.04181v2.79578c0,.49597.40216.89807.89813.89807h.76788v1.17645h-5.93195v-1.17645h.76782c.49603,0,.89813-.4021.89813-.89807v-8.21722c0-.49597-.4021-.89807-.89813-.89807h-.76782v-1.17645h4.26593c7.47388-.03937,7.33557,4.74023,3.88818,6.69934,1.44672,2.3689,3.16101,4.96881,4.09106,4.58685v1.08008Z"/><path class="cls-2" d="M112.49323,115.85663v5.30737c4.12823.5733,5.18573-5.19177,0-5.30737Z"/></g></svg>