<?xml version="1.0" encoding="UTF-8"?><svg id="WZOR" xmlns="http://www.w3.org/2000/svg" viewBox="0 0 141.7323 141.7323"><defs><style>.cls-1{fill:#f1e9da;}.cls-1,.cls-2{stroke-width:0px;}.cls-2{fill:#192a51;}</style></defs><rect id="TLO" class="cls-1" x=".00002" y="0" width="141.73228" height="141.73228" rx="28.34646" ry="28.34646"/><polygon class="cls-2" points="59.94751 99.34363 63.95953 99.34363 62.08972 92.90326 59.94751 99.34363"/><polygon class="cls-2" points="93.09204 71.91071 97.10406 71.91071 95.23425 65.47034 93.09204 71.91071"/><path class="cls-2" d="M113.38586,0H28.3465C12.69116,0,0,12.6911,0,28.34644v85.03937c0,15.65533,12.69116,28.3465,28.3465,28.3465h85.03937c15.65527,0,28.34644-12.69116,28.34644-28.3465V28.34644c0-15.65533-12.69116-28.34644-28.34644-28.34644ZM125.19647,125.19641H16.53589V16.53583h108.66058v108.66058Z"/><polygon class="cls-2" points="45.90625 38.62329 43.76404 45.06366 47.77606 45.06366 45.90625 38.62329"/><path class="cls-2" d="M63.07806,38.10291c-.50696-1.06036-1.44641-1.6864-2.44073-1.6264-.37921.02289-.73193.15259-1.05219.35022v5.93646c.24573.15234.5105.2674.79645.31885.07013.01257.14056.02179.21124.02753.99341.08038,1.9411-.52625,2.46222-1.57605.52106-1.0498.52991-2.3703.02301-3.4306Z"/><path class="cls-2" d="M116.6925,25.03986H25.03986v91.65259h91.65265V25.03986ZM38.32373,51.15997h.0675c1.00195,0,1.89795-.62408,2.24518-1.56396l4.65723-12.60431c1.03912-.2395,1.63025-.5426,2.40649-1.35999l4.22772,14.05853c.26239.8725,1.06567,1.46973,1.97668,1.46973h.34119v.66058h-7.36237v-.66058h.61169c.48444,0,.94067-.22791,1.23157-.6153s.38263-.88904.24756-1.35425l-.90247-3.1084h-4.64636l-1.01501,3.0517c-.15619.4696-.07721.98566.21228,1.38702.28949.40143.75427.63922,1.24915.63922h.42444v.66058h-5.97247v-.66058ZM38.17926,65.58063h21.71558v10.7959h-21.71558v-10.7959ZM53.01062,92.34979v13.5946h-1.35205s-6.11829-7.40094-10.01147-12.17297v9.87311c0,.4129.07623,1.79059,2.11584,1.79059v.50928h-5.1709v-.49377c2.03967,0,2.11584-1.39325,2.11584-1.80609v-11.02661c-.42194-.51947-.79913-.98572-1.11761-1.38214-.34528-.42975-.86658-.68011-1.41779-.68011h-.01392v-.73035l.75671.00122c1.10822.00439,3.73285.01959,3.73285.01959,0,0,6.95508,9.07837,8.91199,11.68518h.44525v-9.18152c0-.81415-.66003-1.47418-1.47418-1.47418h-.69946v-.82568h5.1709v.82568h-.51782c-.81415,0-1.47418.66003-1.47418,1.47418ZM70.4292,106.10052h-7.36237v-.66058h.61169c.48444,0,.94067-.22791,1.23157-.6153s.38263-.88904.24756-1.35431l-.90247-3.10834h-4.64636l-1.01501,3.0517c-.15619.4696-.07721.98566.21228,1.38702.28949.40143.75427.63922,1.24915.63922h.42444v.66058h-5.97247v-.66058h.0675c1.00195,0,1.89789-.62408,2.24518-1.56396l4.65723-12.60431c1.03912-.2395,1.63025-.5426,2.40649-1.35999l4.22772,14.05853c.26233.87244,1.06567,1.46973,1.97668,1.46973h.34119v.66058ZM69.13562,51.82056c-.93799,0-2.3941.08942-3.57794-.70184-1.1839-.79126-4.51379-6.79816-4.51379-6.79816-.2464-.54547-.73682-.53247-1.45874-.51727v5.81372c0,.83698.67853,1.51544,1.5155,1.51544h.45551v.69116h-7.03033v-.69116h.46136c.83698,0,1.51544-.67847,1.51544-1.51544v-11.6886c0-.99945-.81018-1.80969-1.80963-1.80969h-.30963v-.487h6.33026c3.20837,0,5.55963.88605,5.55963,3.89984,0,3.02753-3.05505,3.77063-3.05505,3.77063,1.89209,3.14667,3.00342,5.10205,4.52063,6.10321,1.53723,1.0144,3.12787.75,3.12787.75,0,0-.34119,1.66516-1.73108,1.66516ZM70.87646,70.70819c0-8.742,12.59692-9.49023,15.13074-6.95642.07092,1.22491.06305,2.14124-.06189,3.52979h-.68121s-.16516-3.52979-4.789-3.52979c-3.23047,0-5.96558,2.78668-5.96558,6.82141,0,3.53064,2.27063,6.92627,4.56189,6.92627h2.80737c2.58679,0,3.65369-3.05499,3.65369-3.05499h.99078c-.11353,1.02289-.22882,1.91949-.51605,3.11694,0,0-2.58026,1.44495-5.38757,1.44495-1.84753,0-9.74316-.72247-9.74316-8.29816ZM103.57373,103.54169h-21.71558v-10.7959h21.71558v10.7959ZM103.57373,78.6676h-7.36237v-.66058h.61169c.48444,0,.94067-.22797,1.23157-.6153.29089-.38739.38257-.88904.2475-1.35431l-.9024-3.10834h-4.64636l-1.01508,3.05164c-.15619.4696-.07721.98566.21228,1.38708.28955.40137.75427.63922,1.24921.63922h.42444v.66058h-5.97247v-.66058h.0675c1.00195,0,1.89789-.62408,2.24518-1.56396l4.65723-12.60431c1.03912-.2395,1.63025-.5426,2.40649-1.35999l4.22772,14.05853c.26233.87244,1.06567,1.46973,1.97668,1.46973h.34119v.66058ZM103.57373,49.30225h-21.71558v-10.7959h21.71558v10.7959Z"/></svg>