<?xml version="1.0" encoding="UTF-8"?><svg id="WZOR" xmlns="http://www.w3.org/2000/svg" viewBox="0 0 141.7323 141.7323"><defs><style>.cls-1{fill:#f1e9da;}.cls-1,.cls-2{stroke-width:0px;}.cls-2{fill:#192a51;}</style></defs><rect id="TLO" class="cls-1" x=".00002" y="0" width="141.73228" height="141.73228" rx="28.34646" ry="28.34646"/><path class="cls-2" d="M141.7323,28.34644c0-15.65533-12.69116-28.34644-28.34644-28.34644H28.3465C12.69116,0,0,12.6911,0,28.34644v85.03937c0,15.65533,12.69116,28.3465,28.3465,28.3465h85.03937c15.65527,0,28.34644-12.69116,28.34644-28.3465V28.34644ZM98.85522,53.51202c-2.20184-12.60553-8.68384-28.63116-21.4679-28.73395-20.5321-.16516-24.24768,25.18347-23.59546,40.54675.45813,10.79089.21729,27.90509.22729,32.89832.01495,7.47235,4.77429,10.09845,7.18469,10.33472,6.66589.65344,12.24756.02576,17.43262-.49005,1.91669-.19067,3.30487.15326,3.33582,3.5788.0105,1.16443-1.74518,1.04547-3.7179,1.03955-52.77972-.15857-51.36865,5.06915-54.1424,4.39288-1.11462-.27179-.85193-3.12665,1.09308-3.88208,4.51068-1.75195,7.93933-4.48401,10.87036-8.05194,8.74121-10.64075,10.68683-36.06818,3.8114-51.77783-.39026-.89166-1.42554-1.30341-2.32141-.92273-1.96777.83612-5.49707,2.14722-8.8042,2.4093-5.47021.43347-7.88776-.57239-10.38306-5.18121-3.29861-6.09265,6.90264-9.75312,6.94151-.56412.00112.26378.18605.49156.44414.54607,5.78723,1.22234,11.44054-2.91548,18.04557-8.80306,17.22931-15.35779,23.72473-20.367,35.11926-20.36694,15.4679.00006,23.83484,7.14221,32.58716,22.67889,3.89417,7.36804,4.87152,14.80731,4.74768,23.97247-.10266,7.59869-1.39362,16.1546-10.13129,14.81226-.59039-.0907-1.19196.09839-1.6236.51135-2.276,2.17725-3.86902,7.22424-4.49738,13.87823-.6712,7.10754,1.97034,11.54352,4.25891,12.25861.21722.06787.4538.02716.6358-.10944s.28735-.35236.2829-.5799c-.10126-5.17548,5.0871-7.82001,8.66516-5.9986,3.40973,1.73578,2.94617,6.07837,2.40948,7.75043-.81079,2.52588-3.65369,5.2431-8.05048,5.28436-6.57788.06177-13.99487-5.9361-12.77063-19.92657.71735-8.19708,5.61469-28.89911,3.41284-41.50458ZM115.35217,120.15216c-8.27136,3.55652-17.94897-2.26086-18.90082-7.23108-.00891-.04669.01202-.09412.05255-.11896.04059-.0249.09235-.02197.12994.0072,7.55273,5.86493,12.1015,6.43781,16.84296,3.35175,3.51831-2.28992,9.32513-8.91833.49304-17.47748-.02631-.02551-.03107-.06598-.01135-.09686.01965-.03088.05835-.0437.09259-.03058,9.27777,3.55225,10.55945,17.61511,1.30109,21.59601Z"/></svg>