<?xml version="1.0" encoding="UTF-8"?><svg id="WZOR" xmlns="http://www.w3.org/2000/svg" viewBox="0 0 141.7323 141.7323"><defs><style>.cls-1{fill:#f1e9da;}.cls-1,.cls-2{stroke-width:0px;}.cls-2{fill:#192a51;}</style></defs><rect id="TLO" class="cls-1" x=".00002" y="0" width="141.73228" height="141.73228" rx="28.34646" ry="28.34646"/><path class="cls-2" d="M70.86615,16.42535c-10.40399,0-19.86298,4.09845-26.86847,10.75555h53.737c-7.00549-6.6571-16.46448-10.75555-26.86853-10.75555Z"/><polygon class="cls-2" points="94.40289 28.68091 47.32867 28.68091 70.86627 55.17407 94.40289 28.68091"/><path class="cls-2" d="M70.86615,94.51367c20.35986,0,37.1203-15.66705,38.88184-35.5769H31.98438c1.76154,19.90985,18.52197,35.5769,38.88177,35.5769Z"/><polygon class="cls-2" points="43.98981 27.18091 43.99341 27.185 43.99768 27.18091 43.98981 27.18091"/><polygon class="cls-2" points="97.74274 27.18091 97.73468 27.18091 97.73901 27.18506 97.74274 27.18091"/><path class="cls-2" d="M97.73901,27.18506l-26.87274,30.24683-26.87286-30.24689c-7.48853,7.11823-12.17139,17.16168-12.17139,28.28455,0,.65973.0174,1.31543.04993,1.96722h77.98846c.03253-.65179.04993-1.3075.04993-1.96722,0-11.1228-4.68286-21.16626-12.17133-28.28448Z"/><path class="cls-2" d="M113.38586,0H28.3465C12.69116,0,0,12.6911,0,28.34644v85.03937c0,15.65533,12.69116,28.3465,28.3465,28.3465h85.03937c15.65527,0,28.34644-12.69116,28.34644-28.3465V28.34644c0-15.65533-12.69116-28.34644-28.34644-28.34644ZM47.43671,126.80695h-15.45233v-1.44495h1.00458c.76001,0,1.37616-.61615,1.37616-1.37616v-13.62384c0-.76007-.61615-1.37616-1.37616-1.37616h-1.00458v-1.5h8.31879v1.5h-1.00458c-.76001,0-1.37616.61609-1.37616,1.37616v13.1972c0,.76001.61615,1.37616,1.37616,1.37616,1.18188,0,3.61218.02063,4.48444-.03564,1.82629-.11786,2.59058-.99304,4.71674-3.39783l1.26947.60895-2.33252,4.69611ZM60.59607,108.98584h-1.00458c-.76001,0-1.37616.61609-1.37616,1.37616v13.62384c0,.76001.61615,1.37616,1.37616,1.37616h1.00458v1.44495h-8.31879v-1.44495h1.00458c.76001,0,1.37616-.61615,1.37616-1.37616v-13.62384c0-.76007-.61615-1.37616-1.37616-1.37616h-1.00458v-1.5h8.31879v1.5ZM85.18097,108.98584h-.92004c-.48779,0-.8833.61609-.8833,1.37616v16.44495h-2.28326l-12.90936-14.43158v11.61047c0,.76001.39545,1.37616.8833,1.37616h1.12366v1.44495h-6.17615v-1.44495h1.00262c.48779,0,.88324-.61615.88324-1.37616v-13.62384c0-.76007-.39545-1.37616-.88324-1.37616h-1.19525v-1.5h4.96783l11.7937,13.57166c.07947.09149.2074.12396.32092.08154.11346-.04242.18872-.15088.18872-.27203v-10.505c0-.76007-.39551-1.37616-.8833-1.37616h-1.19525v-1.5h6.16516v1.5ZM109.74799,108.98584h-.92004c-.48779,0-.8833.61609-.8833,1.37616v16.44495h-2.28326l-12.90936-14.43158v11.61047c0,.76001.39545,1.37616.8833,1.37616h1.12366v1.44495h-6.17615v-1.44495h1.00262c.48779,0,.88324-.61615.88324-1.37616v-13.62384c0-.76007-.39545-1.37616-.88324-1.37616h-1.19525v-1.5h4.96783l11.7937,13.57166c.07947.09149.2074.12396.32092.08154.11346-.04242.18872-.15088.18872-.27203v-10.505c0-.76007-.39551-1.37616-.8833-1.37616h-1.19525v-1.5h6.16516v1.5ZM70.86615,96.01367c-22.39191,0-40.54413-18.15222-40.54413-40.54413S48.47424,14.92535,70.86615,14.92535s40.54419,18.15228,40.54419,40.54419-18.15222,40.54413-40.54419,40.54413Z"/></svg>