<?xml version="1.0" encoding="UTF-8"?><svg id="WZOR" xmlns="http://www.w3.org/2000/svg" viewBox="0 0 141.7323 141.7323"><defs><style>.cls-1{fill:#f1e9da;}.cls-1,.cls-2{stroke-width:0px;}.cls-2{fill:#192a51;}</style></defs><rect id="TLO" class="cls-1" x=".00002" y="0" width="141.73228" height="141.73228" rx="28.34646" ry="28.34646"/><path class="cls-2" d="M113.38586,0H28.3465C12.69116,0,0,12.6911,0,28.34644v85.03937c0,15.65533,12.69116,28.3465,28.3465,28.3465h85.03937c15.65527,0,28.34644-12.69116,28.34644-28.3465V28.34644c0-15.65533-12.69116-28.34644-28.34644-28.34644ZM81.29736,84.4917H22.39825c8.81836-10.64325,19.04895-18.27539,38.97253-31.76147l33.22015-1.211c-5.34924,9.79498-8.90778,15.76099-13.62384,25.10095-1.34149,2.65668-.60126,5.49304.33026,7.87152ZM71.70563,46.02844c10.31378-7.11243,21.37585-13.83923,35.35321-21.97711-1.93921,6.57086-5.45398,13.72107-10.45874,22.56885-10.17078.07965-17.39447.01318-24.89447-.59174ZM17.16888,18.43665h89.15717c-16.47644,10.22626-26.57483,16.30011-42.492,26.8418-1.66864.01215-2.73804-.06842-4.27295-.47479,0,0-1.16626-1.93005-2.58026-1.69269-3.69989.62115-1.40363,7.29706-1.40363,7.29706-15.30688,10.1665-25.05481,17.45483-38.40833,28.22821V18.43665ZM50.85699,122.7486h-12.63306v-1.43121h2.29291c.41058,0,.79639-.19653,1.03778-.52875.24139-.33215.3092-.75977.18237-1.15033l-3.13202-9.64661h-10.95312l-3.38385,9.61694c-.13812.39258-.07727.8277.16321,1.1673.24054.3396.6308.54144,1.04694.54144h2.32837v1.43121h-10.63763v-1.43121h1.95654c1.23383,0,2.33862-.76447,2.77344-1.91919l10.35461-27.49658c.1662-.44135.17743-.92609.03174-1.37469-.00885-.0274-.00641-.05701.00684-.08228.01331-.02527.03619-.04419.06354-.05237,1.15796-.34735,1.82513-.76624,2.5166-1.58752.11713-.13922.30048-.20416.47925-.17041s.32556.16113.38409.33344l10.21967,30.07709c.46167,1.3587,1.7373,2.27252,3.1723,2.27252h1.72949v1.43121ZM77.60925,90.68439h-1.42883c-2.258,0-3.38763-.71558-16.578,32.61121l-1.01147-.01031-12.10297-30.2204c-.57587-1.43787-1.96875-2.38049-3.51764-2.38049h-.94824v-1.51379h12v1.51379h-1.86694c-.46466,0-.89899.23071-1.15918.61566-.26019.38501-.31226.87402-.13898,1.30518l9.34406,23.24884,10.0791-23.04315c.20526-.46936.16003-1.01062-.12042-1.43939s-.75818-.68713-1.27051-.68713h-1.95886v-1.51379h10.67889v1.51379ZM93.8891,90.58801h-1.89905c-1.48206,0-2.68353,1.20142-2.68353,2.68347v25.3349c0,1.48206,1.20148,2.68347,2.68353,2.68347h1.89905v1.41742h-13.211v-1.41742h1.77521c1.48206,0,2.68347-1.20142,2.68347-2.68347v-25.3349c0-1.48206-1.20142-2.68347-2.68347-2.68347h-1.77521v-1.41742h13.211v1.41742ZM122.78815,121.84662v.86066h-25.72015v-1.27979c3.64679,0,5.14679-.61017,5.14679-3.86011v-23.65594c0-1.90387-1.5434-3.44727-3.4472-3.44727h-.54364v-1.29358h22.54132c.47791,2.0639.49347,3.68811.53235,7.0321h-1.26172v-.04468c0-3.14465-2.54919-5.69385-5.69379-5.69385h-6.31305c-.96906,0-1.75464.78558-1.75464,1.75458v12.17206h7.45099c2.89612,0,2.8598-2.27411,2.8598-4.30737h1.2901v10.40369h-1.22815c0-1.8681-.07758-4.25403-2.92175-4.25403h-7.45099v11.33429c0,1.90387,1.5434,3.44727,3.44727,3.44727h6.47998c3.52576,0,6.58228-2.4397,7.36377-5.87769l.99799.14948c-.258,3.04474-.74426,3.78943-1.77527,6.56018ZM124.56342,84.4917h-20.14679c2.55133-1.24323,4.34894-2.09747,6.44208-3.51129,3.24707-2.19324.41931-6.19336-3.05676-3.85107-2.58167,1.73962-5.271,3.26013-9.55609,4.37732-7.76562,2.02472-5.35651-5.48328-4.85217-6.73053,3.01379-7.7821,17.79358-37.85779,27.31653-53.94495,1.04285-1.76166,1.67468-2.26508,3.85321-2.39453v66.05505Z"/><path class="cls-2" d="M33.33594,94.8349c-.20886-.00256-.39606.1283-.46539.32532l-4.34711,12.35443h9.27728l-4.00751-12.34314c-.06451-.19867-.24847-.33411-.45728-.33661Z"/></svg>