<?xml version="1.0" encoding="UTF-8"?><svg id="WZOR" xmlns="http://www.w3.org/2000/svg" viewBox="0 0 141.7323 141.7323"><defs><style>.cls-1{fill:#f1e9da;}.cls-1,.cls-2{stroke-width:0px;}.cls-2{fill:#192a51;}</style></defs><rect id="TLO" class="cls-1" x=".00002" y="0" width="141.73228" height="141.73228" rx="28.34646" ry="28.34646"/><path class="cls-2" d="M120.82318,64.21729c-2.54108,0-4.6167,1.92963-4.8783,4.40131-.00812.07684.0166.1535.06818.21094.05164.05743.12524.09027.20245.09027h9.21527c.07715,0,.1507-.03308.20233-.09052.05157-.05737.07642-.13391.0683-.21069-.2616-2.47168-2.33722-4.40131-4.87823-4.40131Z"/><path class="cls-2" d="M48.12671,71.42603c-1.83704.29865-5.18805,1.14624-5.17975,3.40735.00812,2.22266,1.64117,2.57599,3.31055,2.57599,3.30994,0,3.92078-1.07806,4.04297-2.27057.05945-.57965.06464-1.89044.01428-2.96844-.03821-.8183-.42255-1.03131-2.18805-.74432Z"/><path class="cls-2" d="M113.38586,0H28.3465C12.69116,0,0,12.6911,0,28.34644v85.03937c0,15.65533,12.69116,28.3465,28.3465,28.3465h85.03937c15.65527,0,28.34644-12.69116,28.34644-28.3465V28.34644c0-15.65533-12.69116-28.34644-28.34644-28.34644ZM27.21765,78.87323c0,.76764-.62225,1.38995-1.38989,1.38995h-.15955c-.99872,0-1.80835-.80963-1.80835-1.80835v-11.37518c0-2.69836-4.42139-3.6748-6.95197-2.03314-.38428.24927-.61615.67896-.61444,1.13702l.04584,12.26453c.00183.48077-.18793.94244-.52722,1.28308-.33936.34058-.80029.53204-1.28107.53204-.92804,0-1.6803-.75232-1.6803-1.6803v-15.87762c0-.72119.80719-1.35974,1.54297-1.35974.82233,0,1.24457.28235,1.63593.82819,1.68256-.66827,3.4765-1.01147,5.28693-1.01147h.02496c3.2453,0,5.87616,2.63086,5.87616,5.87616v11.83484ZM53.43323,78.89392c0,.78662-.6377,1.42432-1.42432,1.42432h-.33026c-.41797,0-.79053-.18207-1.0495-.46973-.15753-.17493-.39655-.25415-.62744-.20825-1.01355.20135-2.18964.41156-3.37195.57111-3.20325.43225-5.70966-.57574-6.66522-3.34973-.5127-1.48822-.38251-3.12268.35919-4.51105.7417-1.38831,2.02795-2.40515,3.54999-2.8064l5.07507-1.22162c3.20099-.81622.01544-6.38623-5.43066-3.12805-2.3703,1.41803-2.83868.03772-2.81549-.87665.04596-1.8139,2.84003-2.9834,5.16986-3.14349,7.68463-.5282,7.56073,5.30011,7.56073,5.60596v12.11359ZM65.01501,55.91589c-1.17047,0-2.11926-.94879-2.11926-2.11926,0-1.17041.94879-2.11926,2.11926-2.11926,1.17041,0,2.11926.94885,2.11926,2.11926,0,1.17047-.94885,2.11926-2.11926,2.11926ZM71.63965,78.75665c0,.86243-.6991,1.56158-1.56152,1.56158h-.05579c-.86243,0-1.56158-.69916-1.56158-1.56158v-15.50952c0-.86243.69916-1.56158,1.56158-1.56158h.05579c.86243,0,1.56152.69916,1.56152,1.56158v15.50952ZM75.58459,55.91589c-1.17041,0-2.11926-.94879-2.11926-2.11926,0-1.17041.94885-2.11926,2.11926-2.11926,1.17047,0,2.11926.94885,2.11926,2.11926,0,1.17047-.94879,2.11926-2.11926,2.11926ZM101.20892,63.61774l-5.11066,14.84241c-.38159,1.10815-1.42444,1.85205-2.5965,1.85205-1.16809,0-2.2074-.74139-2.58771-1.84583l-5.11279-14.84863c-.28076-.81543.15265-1.7041.96808-1.98486l.05273-.01813c.81543-.28082,1.7041.15259,1.98492.96802l4.69812,13.64441,4.69806-13.64435c.13489-.3916.41974-.71362.79199-.89514.37219-.18158.80133-.20782,1.19293-.07294l.05273.01813c.81543.28076,1.24884,1.16943.96808,1.98486ZM127.42444,71.75861h-11.03802c-.15845,0-.29144.11945-.30878.27698-.32843,2.98499,2.54297,5.2356,5.62628,5.31012,3.86316.09344,4.20422-2.29034,5.92743-1.00439.67102.50073,1.07245,1.48169-.4361,2.54175-4.06958,2.85956-14.71155,2.15131-14.71155-8.14587,0-5.28809,3.7337-9.57495,8.33948-9.57495,3.23828,0,5.49689,1.80542,6.83722,4.14008,1.09149,1.90118,1.95624,6.4563-.23596,6.4563Z"/></svg>