<?xml version="1.0" encoding="UTF-8"?><svg id="WZOR" xmlns="http://www.w3.org/2000/svg" viewBox="0 0 141.7323 141.7323"><defs><style>.cls-1{fill:#f1e9da;}.cls-1,.cls-2{stroke-width:0px;}.cls-2{fill:#192a51;}</style></defs><rect id="TLO" class="cls-1" x=".00002" y="0" width="141.73228" height="141.73228" rx="28.34646" ry="28.34646"/><ellipse class="cls-2" cx="96.49286" cy="63.94206" rx="6.54358" ry="7.27562"/><path class="cls-2" d="M29.65234,60.06274c-.03369-1.70801-1.18732-3.37299-4.79987-3.37299h-2.56146v7.01837h2.56146c3.56451,0,4.83539-1.84656,4.79987-3.64539Z"/><path class="cls-2" d="M61.32245,67.78204v-.18127c0-1.78503-1.44708-3.23212-3.23212-3.23212h-5.02863v6.64551h5.02863c1.78503,0,3.23212-1.44708,3.23212-3.23212Z"/><path class="cls-2" d="M60.65802,60.00446c0-1.78503-1.44708-3.23212-3.23212-3.23212h-4.3642v6.46423h4.3642c1.78503,0,3.23212-1.44702,3.23212-3.23212Z"/><path class="cls-2" d="M10.33893,81.93591c1.20459,0,1.77441-.35254,2.43457-.76172.7124-.44043,1.52002-.93945,3.06543-.93945,1.54492,0,2.35205.49902,3.06445.94043.65918.4082,1.229.76074,2.43262.76074,1.20459,0,1.77441-.35254,2.43457-.76172.7124-.44043,1.52002-.93945,3.06543-.93945s2.35303.49902,3.06543.94043c.65967.4082,1.22949.76074,2.43311.76074,1.20459,0,1.77441-.35254,2.43457-.76172.7124-.44043,1.51953-.93945,3.06494-.93945s2.35254.49902,3.06494.93945c.66016.40918,1.22998.76172,2.43457.76172s1.77441-.35254,2.43457-.76074c.7124-.44141,1.52002-.94043,3.06592-.94043,1.54541,0,2.35254.49902,3.06494.93945.66016.40918,1.22998.76172,2.43457.76172s1.7749-.35254,2.43506-.76172c.7124-.44043,1.52002-.93945,3.06592-.93945s2.354.49902,3.06641.94043c.66016.4082,1.23047.76074,2.43506.76074s1.7749-.35254,2.43506-.76172c.7124-.44043,1.52002-.93945,3.06592-.93945,1.54541,0,2.35303.49902,3.06592.93945.66016.40918,1.23047.76172,2.43555.76172,1.2041,0,1.77441-.35254,2.43457-.76172.71191-.44043,1.51953-.93945,3.06543-.93945,1.54492,0,2.35156.49902,3.06348.93945.66016.40918,1.22949.76172,2.43359.76172s1.77441-.35254,2.43457-.76172c.71191-.44043,1.51953-.93945,3.06543-.93945s2.35352.49902,3.06641.93945c.66016.40918,1.23047.76172,2.43555.76172s1.77539-.35254,2.43555-.76172c.71289-.44043,1.52051-.93945,3.06641-.93945s2.35352.49902,3.06641.93945c.66016.40918,1.23047.76172,2.43555.76172s1.77637-.35352,2.43652-.76172c.71289-.44043,1.52051-.93945,3.06738-.93945,1.5459,0,2.35352.49902,3.06543.93945.66016.40918,1.23047.76172,2.43457.76172,1.20605,0,1.77637-.35352,2.4375-.76172.71289-.44043,1.52148-.93945,3.06836-.93945s2.35547.49902,3.06934.93945c.66113.4082,1.23242.76172,2.43945.76172s1.77832-.35352,2.43945-.76172c.65344-.40314,1.39343-.85077,2.69922-.92438v-33.45453H5.2337v33.45544c1.29071.07745,2.02417.52264,2.67261.92444.65967.4082,1.229.76074,2.43262.76074ZM107.92084,55.60529h1.01001l.29999.39996,10.28003,13.72003v-14.12h1.31v16.58997h-.85999l-.45001-.58997-10.28003-13.59003v14.17999h-1.31v-16.58997ZM96.49286,55.46503c5.05737,0,7.86469,3.79529,7.86469,8.47705s-2.9931,8.47705-7.86469,8.47705c-4.91284,0-7.86469-3.79529-7.86469-8.47705s2.93121-8.47705,7.86469-8.47705ZM80.35065,55.46503c2.32422,0,4.1665.80804,5.48621,2.12891l-.85669.96887c-1.10199-1.17444-2.65698-1.89636-4.62952-1.89636-4.10474,0-6.54358,3.25745-6.54358,7.27563s2.45599,7.27557,6.54358,7.27557c2.0553,0,3.70636-.83984,4.83698-2.18945l.91663.91376c-1.35706,1.53052-3.32098,2.47717-5.7536,2.47717-4.91284,0-7.86469-3.79529-7.86469-8.47705s2.93121-8.47705,7.86469-8.47705ZM66.97455,55.6026h1.30731v16.59637h-1.30731v-16.59637ZM51.72687,55.6026h4.297c2.64178,0,6.05157.83258,6.05157,3.90826,0,3.44727-3,4.16974-3,4.16974,0,0,3.63306.47473,3.63306,3.94952,0,4.79309-5.07458,4.56879-6.12732,4.56879h-4.85431v-16.59631ZM34.71765,55.6026h1.30731v10.55017c0,2.80719,2.19165,5.08289,4.89514,5.08289h.02173c2.70349,0,4.89508-2.2757,4.89508-5.08289v-10.55017h1.30731v10.69958c0,3.42389-2.77557,6.19952-6.19952,6.19952h-.02747c-3.42395,0-6.19958-2.77563-6.19958-6.19952v-10.69958ZM20.9837,55.6026h4.0321c4.46399,0,5.88959,2.18732,5.93121,4.43121.03833,2.06573-1.15729,4.1792-4.40106,4.67847l5.94232,7.4729h-1.61011l-5.86523-7.36237h-2.72192v7.36237h-1.30731v-16.58258Z"/><path class="cls-2" d="M10.33893,90.79431c1.20459,0,1.77441-.35254,2.43457-.76074.7124-.44043,1.52002-.93945,3.06543-.93945,1.54492,0,2.35205.49902,3.06396.93945.65967.4082,1.22949.76074,2.43311.76074,1.20459,0,1.77441-.35254,2.43457-.76074.7124-.44043,1.52002-.93945,3.06543-.93945s2.35254.49902,3.06494.93945c.66016.4082,1.22949.76074,2.43359.76074,1.20459,0,1.77441-.35254,2.43457-.76074.7124-.44043,1.51953-.93945,3.06494-.93945s2.35254.49902,3.06494.93945c.66016.4082,1.22998.76074,2.43457.76074s1.77441-.35254,2.43457-.76074c.7124-.44043,1.52002-.93945,3.06592-.93945,1.54541,0,2.35254.49902,3.06494.93945.66016.4082,1.22998.76074,2.43457.76074s1.7749-.35254,2.43506-.76074c.7124-.44043,1.52002-.93945,3.06592-.93945s2.354.49902,3.06641.93945c.66016.4082,1.23047.76074,2.43506.76074s1.7749-.35254,2.43506-.76074c.7124-.44043,1.52002-.93945,3.06592-.93945,1.54541,0,2.35303.49902,3.06592.93945.66016.4082,1.23047.76074,2.43555.76074,1.2041,0,1.77441-.35254,2.43457-.76074.71191-.44043,1.51953-.93945,3.06543-.93945,1.54492,0,2.35156.49902,3.06348.93945.66016.4082,1.22949.76074,2.43359.76074s1.77441-.35254,2.43457-.76074c.71191-.44043,1.51953-.93945,3.06543-.93945s2.35352.49902,3.06641.93945c.66016.4082,1.23047.76074,2.43555.76074s1.77539-.35254,2.43555-.76074c.71289-.44043,1.52051-.93945,3.06641-.93945s2.35352.49902,3.06641.93945c.66016.4082,1.23047.76074,2.43555.76074,1.20605,0,1.77637-.35254,2.43652-.76074.71289-.44043,1.52148-.93945,3.06738-.93945s2.35352.49902,3.06543.93945c.66016.4082,1.23047.76074,2.43457.76074,1.20605,0,1.77637-.35254,2.4375-.76074.71289-.44043,1.52148-.93945,3.06836-.93945s2.35547.49902,3.06934.93945c.66113.4082,1.23242.76074,2.43945.76074s1.77832-.35254,2.43945-.76074c.65344-.40314,1.39343-.85077,2.69922-.92438v-3.19934c-.95868.06555-1.47937.38409-2.06836.74774-.71387.44043-1.52246.93945-3.07031.93945s-2.35645-.49902-3.07031-.93945c-.66113-.4082-1.23242-.76172-2.43848-.76172s-1.77637.35352-2.4375.76172c-.71289.44043-1.52148.93945-3.06836.93945-1.5459,0-2.35352-.49902-3.06543-.93945-.66016-.40918-1.23047-.76172-2.43457-.76172-1.20508,0-1.77637.35352-2.43652.76172-.71289.44043-1.52051.93945-3.06738.93945-1.5459,0-2.35352-.49902-3.06641-.93945-.66016-.40918-1.23047-.76172-2.43555-.76172s-1.77539.35254-2.43555.76172c-.71289.44043-1.52051.93945-3.06641.93945s-2.35352-.49902-3.06641-.93945c-.66016-.40918-1.23047-.76172-2.43555-.76172-1.2041,0-1.77441.35254-2.43457.76172-.71191.44043-1.51953.93945-3.06543.93945-1.54492,0-2.35254-.49902-3.06445-.94043-.66016-.4082-1.22949-.76074-2.43262-.76074-1.2041,0-1.77441.35254-2.43457.76172-.71191.44043-1.51953.93945-3.06543.93945s-2.35352-.49902-3.06641-.94043c-.66016-.4082-1.23047-.76074-2.43506-.76074s-1.7749.35254-2.43506.76172c-.7124.44043-1.52002.93945-3.06592.93945s-2.35352-.49902-3.06592-.93945c-.66016-.40918-1.23047-.76172-2.43555-.76172-1.20459,0-1.7749.35254-2.43506.76172-.7124.44043-1.52002.93945-3.06592.93945s-2.35303-.49902-3.06592-.94043c-.65967-.4082-1.22949-.76074-2.43359-.76074-1.20459,0-1.7749.35254-2.43506.76172-.7124.44043-1.52002.93945-3.06543.93945-1.5459,0-2.35303-.49902-3.06592-.94043-.65967-.4082-1.22949-.76074-2.43359-.76074s-1.77393.35254-2.43359.76074c-.71289.44141-1.52051.94043-3.06592.94043-1.54492,0-2.35254-.49902-3.06494-.93945-.65967-.40918-1.22949-.76172-2.43359-.76172-1.20459,0-1.77441.35254-2.43457.76172-.7124.44043-1.52002.93945-3.06543.93945-1.54492,0-2.35205-.49902-3.06445-.94043-.65918-.4082-1.229-.76074-2.43262-.76074-1.20459,0-1.77441.35254-2.43457.76172-.7124.44043-1.52002.93945-3.06543.93945-1.54492,0-2.35205-.49902-3.06445-.93945-.58325-.36176-1.0976-.67828-2.04077-.74695v3.19946c1.29034.07751,2.02417.52258,2.67212.92346.65967.4082,1.22949.76074,2.43311.76074Z"/><path class="cls-2" d="M136.4986,90.30725c-.95935.06537-1.47931.38312-2.06836.74683-.71387.44043-1.52246.93945-3.07031.93945s-2.35645-.49902-3.07031-.93945c-.66113-.4082-1.23145-.76074-2.43848-.76074-1.20605,0-1.77637.35254-2.4375.76074-.71289.44043-1.52148.93945-3.06836.93945-1.5459,0-2.35352-.49902-3.06543-.93945-.66016-.4082-1.23047-.76074-2.43457-.76074-1.20605,0-1.77637.35254-2.43652.76074-.71289.44043-1.52148.93945-3.06738.93945s-2.35352-.49902-3.06641-.93945c-.66016-.4082-1.23047-.76074-2.43555-.76074s-1.77539.35254-2.43555.76074c-.71289.44043-1.52051.93945-3.06641.93945s-2.35352-.49902-3.06641-.93945c-.66016-.4082-1.23047-.76074-2.43555-.76074-1.2041,0-1.77441.35254-2.43457.76074-.71191.44043-1.51953.93945-3.06543.93945-1.54492,0-2.35254-.49902-3.06445-.93945-.66016-.4082-1.22949-.76074-2.43262-.76074-1.2041,0-1.77441.35254-2.43457.76074-.71191.44043-1.51953.93945-3.06543.93945s-2.35352-.49902-3.06641-.93945c-.66016-.4082-1.23047-.76074-2.43506-.76074s-1.7749.35254-2.43506.76074c-.7124.44043-1.52002.93945-3.06592.93945-1.54541,0-2.35352-.49902-3.06592-.93945-.66016-.4082-1.23047-.76074-2.43555-.76074-1.20459,0-1.7749.35254-2.43506.76074-.7124.44043-1.52002.93945-3.06592.93945-1.54541,0-2.35303-.49902-3.06543-.93945-.66016-.4082-1.22998-.76074-2.43408-.76074-1.20459,0-1.7749.35254-2.43506.76074-.7124.44043-1.52002.93945-3.06543.93945s-2.35303-.49902-3.06543-.93945c-.66016-.4082-1.22998-.76074-2.43408-.76074s-1.77393.35254-2.43408.76074c-.7124.44043-1.52002.93945-3.06543.93945-1.54492,0-2.35205-.49902-3.06445-.93945-.66016-.4082-1.22998-.76074-2.43408-.76074-1.20459,0-1.77441.35254-2.43457.76074-.7124.44043-1.52002.93945-3.06543.93945-1.54492,0-2.35205-.49902-3.06396-.93945-.65967-.4082-1.22949-.76074-2.43311-.76074-1.20459,0-1.77441.35254-2.43457.76074-.7124.44043-1.52002.93945-3.06543.93945-1.54492,0-2.35205-.49902-3.06396-.93945-.58325-.3609-1.09802-.67731-2.04126-.74597v4.62891h131.26489v-4.62976Z"/><path class="cls-2" d="M113.38586,0H28.3465C12.69116,0,0,12.6911,0,28.34644v85.03937c0,15.65533,12.69116,28.3465,28.3465,28.3465h85.03937c15.65527,0,28.34644-12.69116,28.34644-28.3465V28.34644c0-15.65533-12.69116-28.34644-28.34644-28.34644ZM137.71808,96.15845H4.01422v-50.58466h133.70386v50.58466Z"/><path class="cls-2" d="M10.33893,86.39783c1.20459,0,1.77441-.35254,2.43457-.76172.7124-.44043,1.52002-.93945,3.06543-.93945,1.54492,0,2.35205.49902,3.06445.94043.65918.4082,1.229.76074,2.43262.76074,1.20459,0,1.77441-.35254,2.43457-.76172.7124-.44043,1.52002-.93945,3.06543-.93945s2.35303.49902,3.06543.94043c.65967.4082,1.22949.76074,2.43311.76074,1.20459,0,1.77441-.35254,2.43457-.76172.7124-.44043,1.51953-.93945,3.06494-.93945s2.35254.49902,3.06494.93945c.66016.40918,1.22998.76172,2.43457.76172s1.77441-.35254,2.43457-.76074c.7124-.44141,1.52002-.94043,3.06592-.94043,1.54541,0,2.35254.49902,3.06494.93945.66016.40918,1.22998.76172,2.43457.76172s1.7749-.35254,2.43506-.76172c.7124-.44043,1.52002-.93945,3.06592-.93945s2.354.49902,3.06641.94043c.66016.4082,1.23047.76074,2.43506.76074s1.7749-.35254,2.43506-.76172c.7124-.44043,1.52002-.93945,3.06592-.93945,1.54541,0,2.35303.49902,3.06592.93945.66016.40918,1.23047.76172,2.43555.76172,1.2041,0,1.77441-.35254,2.43457-.76172.71191-.44043,1.51953-.93945,3.06543-.93945,1.54492,0,2.35156.49902,3.06348.93945.66016.40918,1.22949.76172,2.43359.76172s1.77441-.35254,2.43457-.76172c.71191-.44043,1.51953-.93945,3.06543-.93945s2.35352.49902,3.06641.93945c.66016.40918,1.23047.76172,2.43555.76172s1.77539-.35254,2.43555-.76172c.71289-.44043,1.52051-.93945,3.06641-.93945s2.35352.49902,3.06641.93945c.66016.40918,1.23047.76172,2.43555.76172s1.77637-.35352,2.43652-.76172c.71289-.44043,1.52051-.93945,3.06738-.93945,1.5459,0,2.35352.49902,3.06543.93945.66016.40918,1.23047.76172,2.43457.76172,1.20605,0,1.77637-.35352,2.4375-.76172.71289-.44043,1.52148-.93945,3.06836-.93945s2.35547.49902,3.06934.93945c.66113.4082,1.23242.76172,2.43945.76172s1.77832-.35352,2.43945-.76172c.65344-.40314,1.39343-.85077,2.69922-.92438v-3.26379c-.95868.06555-1.47937.38409-2.06836.74774-.71387.44043-1.52246.93945-3.07031.93945s-2.35645-.49902-3.07031-.93945c-.66113-.4082-1.23242-.76172-2.43848-.76172s-1.77637.35352-2.4375.76172c-.71289.44043-1.52148.93945-3.06836.93945-1.5459,0-2.35352-.49902-3.06543-.93945-.66016-.40918-1.23047-.76172-2.43457-.76172-1.20508,0-1.77637.35352-2.43652.76172-.71289.44043-1.52051.93945-3.06738.93945-1.5459,0-2.35352-.49902-3.06641-.93945-.66016-.40918-1.23047-.76172-2.43555-.76172s-1.77539.35254-2.43555.76172c-.71289.44043-1.52051.93945-3.06641.93945s-2.35352-.49902-3.06641-.93945c-.66016-.40918-1.23047-.76172-2.43555-.76172-1.2041,0-1.77441.35254-2.43457.76172-.71191.44043-1.51953.93945-3.06543.93945-1.54492,0-2.35254-.49902-3.06445-.94043-.66016-.4082-1.22949-.76074-2.43262-.76074-1.2041,0-1.77441.35254-2.43457.76172-.71191.44043-1.51953.93945-3.06543.93945s-2.35352-.49902-3.06641-.94043c-.66016-.4082-1.23047-.76074-2.43506-.76074s-1.7749.35254-2.43506.76172c-.7124.44043-1.52002.93945-3.06592.93945s-2.35352-.49902-3.06592-.93945c-.66016-.40918-1.23047-.76172-2.43555-.76172-1.20459,0-1.7749.35254-2.43506.76172-.7124.44043-1.52002.93945-3.06592.93945s-2.35303-.49902-3.06592-.94043c-.65967-.4082-1.22949-.76074-2.43359-.76074-1.20459,0-1.7749.35254-2.43506.76172-.7124.44043-1.52002.93945-3.06543.93945-1.5459,0-2.35303-.49902-3.06592-.94043-.65967-.4082-1.22949-.76074-2.43359-.76074s-1.77393.35254-2.43359.76074c-.71289.44141-1.52051.94043-3.06592.94043-1.54492,0-2.35254-.49902-3.06494-.93945-.65967-.40918-1.22949-.76172-2.43359-.76172-1.20459,0-1.77441.35254-2.43457.76172-.7124.44043-1.52002.93945-3.06543.93945-1.54492,0-2.35205-.49902-3.06445-.94043-.65918-.4082-1.229-.76074-2.43262-.76074-1.20459,0-1.77441.35254-2.43457.76172-.7124.44043-1.52002.93945-3.06543.93945-1.54492,0-2.35205-.49902-3.06445-.93945-.58325-.36176-1.0976-.67828-2.04077-.74695v3.26392c1.29071.07745,2.02417.52264,2.67261.92444.65967.4082,1.229.76074,2.43262.76074Z"/></svg>