<?xml version="1.0" encoding="UTF-8"?><svg id="WZOR" xmlns="http://www.w3.org/2000/svg" viewBox="0 0 141.7323 141.7323"><defs><style>.cls-1{fill:#f1e9da;}.cls-1,.cls-2{stroke-width:0px;}.cls-2{fill:#192a51;}</style></defs><rect id="TLO" class="cls-1" x=".00002" y="0" width="141.73228" height="141.73228" rx="28.34646" ry="28.34646"/><path class="cls-2" d="M102.36664,101.00037v-.3808c0-.97644-.7915-1.76794-1.76794-1.76794h-1.06854v3.91669h1.06854c.97644,0,1.76794-.79156,1.76794-1.76794Z"/><path class="cls-2" d="M63.57642,101.00037v-.3808c0-.97644-.7915-1.76794-1.76794-1.76794h-1.06854v3.91669h1.06854c.97644,0,1.76794-.79156,1.76794-1.76794Z"/><path class="cls-2" d="M113.38586,0H28.3465C12.69116,0,0,12.6911,0,28.34644v85.03937c0,15.65533,12.69116,28.3465,28.3465,28.3465h85.03937c15.65527,0,28.34644-12.69116,28.34644-28.3465V28.34644c0-15.65533-12.69116-28.34644-28.34644-28.34644ZM21.94421,106.19525c-.43341.85223-1.36841,1.422-3.57196,1.29016.41748-.66333.97186-1.69214,1.58508-2.80951.76825-1.22083,2.06818-1.54584,3.83502-1.37329-.71832.59167-1.24689,1.71045-1.84814,2.89264ZM26.50238,105.68762c-1.15082-2.16541-1.91382-3.89709-2.61511-5.01471-.70123-1.11761-1.58435-2.12286-2.68079-1.70929,1.90649-1.49017,4.1369-.74023,4.94525.7597.9917,1.83997,1.50446,2.89313,2.18042,4.4126,1.06775,2.40021,2.51752,2.96295,3.07898,2.48303-1.29047,1.36841-3.79846,1.15778-4.90875-.93134ZM31.9176,105.68762c-1.15082-2.16541-1.91382-3.89709-2.61511-5.01471-.70123-1.11761-1.58435-2.12286-2.68079-1.70929,1.90649-1.49017,4.1369-.74023,4.94525.7597.9917,1.83997,1.50446,2.89313,2.18042,4.4126,1.06775,2.40021,2.51752,2.96295,3.07898,2.48303-1.29047,1.36841-3.79846,1.15778-4.90875-.93134ZM47.23792,98.66113h-.90234v8.33453h.90234v.30176h-4.24048v-.30176h.90234v-8.33453h-.90234v-.30176h4.24048v.30176ZM39.19336,79.67816c-2.44958,4.81653-7.73395,8.03674-20.18811,7.29144,2.35944-3.74884,5.4928-9.56335,8.95874-15.8786,4.34192-6.89966,11.6886-8.73663,21.67432-7.76141-4.05963,3.34399-7.04688,9.66699-10.44495,16.34857ZM61.70123,106.99567v.30176h-4.24048v-.30176h.90234v-8.33453h-.90234v-.30176h4.24048c1.12524,0,4.19879.00275,4.19879,2.39618,0,2.6189-4.06451,2.32361-4.36743,2.32361h-.7337v3.9165h.90234ZM63.69818,106.08807c-.61322-1.11743-1.16766-2.14618-1.58514-2.80951,2.20361-.13184,3.13861.43793,3.57202,1.2901.60126,1.18225,1.12982,2.30103,1.84808,2.8927-1.76685.17255-3.06671-.15253-3.83496-1.37329ZM79.24701,106.19525c-.43341.85223-1.36841,1.422-3.57202,1.29016.41748-.66333.97186-1.69214,1.58514-2.80951.76825-1.22083,2.06812-1.54584,3.83496-1.37329-.71832.59167-1.24683,1.71045-1.84808,2.89264ZM83.80511,105.68762c-1.15082-2.16541-1.91382-3.89709-2.61505-5.01471-.70129-1.11761-1.58435-2.12286-2.68085-1.70929,1.90656-1.49017,4.1369-.74023,4.94531.7597.99164,1.83997,1.50439,2.89313,2.18036,4.4126,1.06775,2.40021,2.51752,2.96295,3.07898,2.48303-1.29047,1.36841-3.7984,1.15778-4.90875-.93134ZM64.95483,76.8089c-6.50421-12.2381-10.81653-22.02521-14.77985-28.34174-3.96332-6.31647-8.95441-11.9978-15.15137-9.66052,10.77521-8.42206,23.38074-4.18347,27.94952,4.29358,5.60468,10.39905,8.50262,16.35132,12.323,24.93915,6.03479,13.56543,14.22845,16.74573,17.40179,14.03333-7.29358,7.73395-21.4679,6.54358-27.7431-5.26379ZM100.49146,106.99567v.30176h-4.24048v-.30176h.90234v-8.33453h-.90234v-.30176h4.24048c1.12524,0,4.19879.00275,4.19879,2.39618,0,2.6189-4.06451,2.32361-4.36743,2.32361h-.7337v3.9165h.90234ZM102.48846,106.08807c-.61328-1.11743-1.16766-2.14618-1.58514-2.80951,2.20361-.13184,3.13861.43793,3.57202,1.2901.60126,1.18225,1.12976,2.30103,1.84808,2.8927-1.76685.17255-3.06671-.15253-3.83496-1.37329ZM95.5603,76.8089c-6.50421-12.2381-10.81653-22.02521-14.77979-28.34174-3.96332-6.31647-8.95441-11.9978-15.15143-9.66052,10.77527-8.42206,23.38074-4.18347,27.94958,4.29358,5.60468,10.39905,8.50256,16.35132,12.323,24.93915,6.03479,13.56543,14.22845,16.74573,17.40173,14.03333-7.29358,7.73395-21.4679,6.54358-27.7431-5.26379ZM123.36011,98.84644v2.40283h-.48706v-.63489c0-.97638-.79156-1.76794-1.76794-1.76794h-1.95758v3.7384h1.57422c.37402,0,.67719-.30316.67719-.67712v-.76172h.48712v3.36475h-.48712v-.76172c0-.37396-.30316-.67712-.67719-.67712h-1.57422v3.7384h1.95758c.97638,0,1.76794-.7915,1.76794-1.76794v-.63489h.48706v2.88995h-7.55072v-.30176h.90234v-8.33453h-.90234v-.30176h7.55072v.48706Z"/></svg>