<?xml version="1.0" encoding="UTF-8"?><svg id="WZOR" xmlns="http://www.w3.org/2000/svg" viewBox="0 0 141.7323 141.7323"><defs><style>.cls-1{fill:#f1e9da;}.cls-1,.cls-2{stroke-width:0px;}.cls-2{fill:#192a51;}</style></defs><rect id="TLO" class="cls-1" x=".00002" y="0" width="141.73228" height="141.73228" rx="28.34646" ry="28.34646"/><path class="cls-2" d="M66.57544,74.31824h.0177c2.7226,0,7.0274-3.46326,6.67041-8.5321-.16284-2.31122-1.40771-4.2962-4.10095-4.29602-.05438,0-.10962.00079-.1651.00244-3.79901.11169-6.40533,4.58392-6.66058,7.29358-.35779,3.79816,1.51697,5.51703,4.23853,5.5321ZM64.32812,68.97369c.17328-1.83966,2.14948-5.40619,4.72803-5.48199l.10712-.00159c.4787,0,1.93359.00055,2.10516,2.43652.16498,2.34174-.99603,3.96344-1.70276,4.72174-1.0694,1.14734-2.29053,1.66986-2.97919,1.66986-.7876-.00433-1.3667-.20514-1.72119-.59674-.46497-.51367-.6557-1.4895-.53717-2.7478Z"/><path class="cls-2" d="M58.86902,91.96454l2.66974-12.08667c2.39856,2.87823,5.79059,3.93982,9.11505,3.93982,3.73273,0,7.38-1.33929,9.43542-2.94904,4.34589-3.40363,11.50458-21.1651,7.15594-26.80731-2.09259-2.71503-5.38611-3.9444-8.8327-4.02173-.10364-.00232-.20624-.00342-.30914-.00342-5.53595,0-9.98657,3.30957-9.98657,3.30957l.4679-2.44958h-15.27527l-10.15594,41.06836h15.71558ZM54.87506,52.89618h11.29138l-.01422.07434-.95117,5.00037,4.10474-3.01697c.03967-.02917,4.0249-2.91772,8.79755-2.91772.08801,0,.17572.00092.26428.00293,3.14575.07056,5.73596,1.22229,7.29346,3.2431,1.45789,1.89154,1.21356,6.64703-.63763,12.41064-1.81873,5.66278-4.56403,10.34552-6.16742,11.60126-1.60382,1.2561-4.76208,2.52356-8.20221,2.52356-2.23315,0-5.36066-.55865-7.57861-3.22021l-2.61005-3.13202-.87933,3.98102-2.32324,10.51807h-11.55432l9.16681-37.06836Z"/><path class="cls-2" d="M104.84265,74.78259c.05865.0022.117.00323.17609.00323,3.30383,0,7.26154-3.36517,7.26154-9.40625,0-3.41528-1.84845-4.37238-3.98041-4.37238-8.75397,0-9.68134,13.54724-3.45721,13.77539ZM108.29987,63.0072c1.15961,0,1.98041.17017,1.98041,2.37238,0,5.05243-3.13965,7.40625-5.26154,7.40625l-.10284-.00189c-1.6936-.06207-2.10486-2.29779-2.08081-3.60907.04541-2.47919,1.53827-6.16766,5.46478-6.16766Z"/><path class="cls-2" d="M103.62897,84.4054h.0061c5.25641-.00061,18.45416.06879,21.867-19.5,2.67975-15.36536-12.86511-14.7876-16.70642-14.8692-.22772-.00488-.45551-.00726-.67816-.00726-14.02979,0-18.1618,9.46246-19.52057,15.59204-3.63525,16.39966,5.80023,18.78442,15.03204,18.78442ZM90.54956,66.05377c2.06287-9.30621,7.97357-14.02484,17.56793-14.02484.20874,0,.42218.00226.63568.00677.18573.00397.39807.00647.63373.00916,2.84753.0329,9.51605.10992,12.64038,3.87018,1.65216,1.98846,2.15839,4.89764,1.50452,8.64673-3.11182,17.84253-14.41034,17.84326-19.84015,17.84363h-.06268c-6.12195,0-9.91376-1.17181-11.93304-3.68774-2.0556-2.56122-2.44135-6.82196-1.14636-12.66388Z"/><path class="cls-2" d="M113.38586,0H28.3465C12.69116,0,0,12.6911,0,28.34644v85.03937c0,15.65533,12.69116,28.3465,28.3465,28.3465h85.03937c15.65527,0,28.34644-12.69116,28.34644-28.3465V28.34644c0-15.65533-12.69116-28.34644-28.34644-28.34644ZM134.22394,98.82941H7.50836v-55.92657h126.71558v55.92657Z"/><path class="cls-2" d="M30.30835,84.32587c5.35687,0,10.70074-1.48431,12.95514-2.96179l2.64221-10.49792c-3.09424,1.04749-6.01276,1.37854-8.36694,1.3913-.0827.00043-.16522.00067-.24591.00067-4.25385,0-5.70898-.63538-5.67151-3.45825.03375-2.54578,2.04639-4.97888,5.75067-4.97888,4.01776,0,9.6897,1.24951,9.6897,1.24951l3.02753-12.44037s-4.7262-2.29791-10.56885-2.72473c-.86304-.06311-1.72266-.09613-2.57178-.09613-11.01044,0-20.54315,5.54138-20.84424,22.97455-.15344,8.88513,7.03699,11.54205,14.20398,11.54205ZM36.94861,51.80927c.78528,0,1.6015.03052,2.42609.09076,3.50977.25647,6.62396,1.2525,8.36768,1.91541l-2.17078,8.92004c-2.07996-.38281-5.46161-.91449-8.19958-.91449-5.02771,0-7.70465,3.49744-7.75049,6.95233-.02222,1.6731.40179,2.927,1.29626,3.83337,1.35699,1.37518,3.44537,1.65143,6.37506,1.65143l.25671-.00073c1.89014-.01019,3.75824-.20312,5.58514-.57556l-1.60376,6.37183c-2.05878,1.0423-6.39166,2.27222-11.2226,2.27222-3.15649,0-7.45642-.54657-10.01562-3.15039-1.5199-1.54633-2.23584-3.62579-2.18866-6.35712.24078-13.94061,6.58099-21.00909,18.84454-21.00909Z"/></svg>