<?xml version="1.0" encoding="UTF-8"?><svg id="WZOR" xmlns="http://www.w3.org/2000/svg" viewBox="0 0 141.7323 141.7323"><defs><style>.cls-1{fill:#f1e9da;}.cls-1,.cls-2{stroke-width:0px;}.cls-2{fill:#192a51;}</style></defs><rect id="TLO" class="cls-1" x=".00002" y="0" width="141.73228" height="141.73228" rx="28.34646" ry="28.34646"/><polygon class="cls-2" points="56.18561 87.91162 59.883 87.91162 57.96967 83.66272 56.18561 87.91162"/><path class="cls-2" d="M87.45728,62.64685l-2.86444,6.82214h5.93646l-3.07202-6.82214ZM86.34845,67.12842c.71222-.13879,1.41937-.27667,2.15631-.42004l.92218,2.04797h-3.76202l.68353-1.62793Z"/><path class="cls-2" d="M32.87897,67.64697c1.19043-.40161,2.133-1.112,2.45258-2.37207.15497-.61108.12866-1.28021.1087-1.92065-.03015-.96698-.51666-1.72736-1.32916-2.21149-.47223-.28131-1.03021-.45184-1.57166-.57727-1.10754-.25647-2.22736-.18439-3.42535-.03436-.12946,2.49976-.03619,4.94666-.05609,7.40338.18286.04651.30103.10345.41864.10229,1.1474-.01105,2.29828-.01733,3.40234-.38983Z"/><path class="cls-2" d="M18.42151,69.1358c-1.32831-.55542-2.71539-.59204-4.11987-.46252-.17816.01642-.35272.07227-.54083.11237v7.91241c.12958.04974.20312.0968.28076.10498,1.33771.14044,2.68042.15436,3.98065-.20551,1.10498-.30579,1.89484-1.04462,2.2973-2.13464.31738-.85962.35596-1.76208.20972-2.65594-.20685-1.26471-.90985-2.17023-2.10773-2.67114Z"/><path class="cls-2" d="M17.22345,67.27374c1.32764-.38336,2.2818-1.1637,2.57611-2.54205.31824-1.49048.01337-2.80548-1.23511-3.59607-1.46973-.93073-3.08624-.8468-4.79535-.63593-.09076,2.32495-.07172,4.60474-.0155,6.94623,1.24054.06061,2.36072.14807,3.46985-.17218Z"/><path class="cls-2" d="M113.38586,0H28.3465C12.69116,0,0,12.6911,0,28.34644v85.03937c0,15.65533,12.69116,28.3465,28.3465,28.3465h85.03937c15.65527,0,28.34644-12.69116,28.34644-28.3465V28.34644c0-15.65533-12.69116-28.34644-28.34644-28.34644ZM77.88525,67.25061c.00256-1.01678.01447-2.00079.03558-2.96356.79871-.42731,1.56256-.94324,2.48926-1.3158.06281,1.28082.11938,2.40332.17218,3.52576.00378.10052-.01886.20111-.03772.39972-.87256.11591-1.74591.23218-2.6593.35388ZM79.78534,68.42517c-.58905.59668-1.24567,1.12012-1.88477,1.66119-.0069-.53583-.01147-1.06042-.01385-1.57635.612-.06842,1.21942-.13586,1.82452-.203.02509.03894.04901.07916.0741.11816ZM77.93854,63.56451c.01617-.59735.03571-1.18805.05914-1.77423.60565.19043,1.15857.36371,1.70978.53741.00751.05408.01508.10809.02258.16089-.53412.43018-1.15698.71832-1.7915,1.07593ZM79.99152,61.81238c-.63611-.23016-1.28278-.43793-1.96667-.66138.02893-.64758.06213-1.29156.09998-1.93567.013-.2215-.07782-.43634-.24573-.58124-.13062-.11273-.2962-.17322-.46558-.17322-.0484,0-.09711.005-.14532.01501-.62872.13092-1.08807.20673-1.5755.20673-.27484,0-.55347-.0249-.86761-.07568,2.0827-.21497,4.16583-.42798,6.24994-.63458,1.03821-.10431,2.08026-.17596,3.11975-.27148.26898-.02515.53546-.09174.80444-.12695.26141-.03522.52667-.05658.86102.02893-.09052.1156-.16339.25134-.27405.34186-1.47943,1.22803-2.97266,2.43976-4.44208,3.67786-.37079.31171-.71643.34814-1.15259.18982ZM77.41351,78.00012c-1.08765-.24976-1.77936-.19238-3.00977,0,.28162-7.26514.42834-13.21484.22833-18.70203,1.05914.18188,1.75043.09021,2.78143-.12457-.34149,5.81061-.29919,11.50037,0,18.8266ZM81.17303,62.86066c1.14526.48352,2.25653.95258,3.4057,1.43756-.30774.72198-.60736,1.42194-.90271,2.10809-.79193.12366-1.55963.24396-2.31195.36218-.24255-.54675-.37201-3.14111-.19104-3.90784ZM83.09052,67.76129c-.29791.68646-.59454,1.36542-.89404,2.04559-.28851-.55634-.56348-1.08691-.86884-1.67584.61816-.12964,1.17828-.24713,1.76288-.36975ZM87.651,58.86908c.46478.08875.74988.08673,1.19006,0,2.90576,7.44806,4.63971,11.65918,8.21979,19.13104-1.32715-.20776-2.04572-.20746-3.26575,0l-2.71228-7.17499h-7.08502l-2.49084,7.17499c-.73859-.1756-1.35742-.17731-2.24176,0,3.33356-7.17212,5.23431-11.65991,8.3858-19.13104ZM92.22449,65.44769c.8385-.29919,1.64514-.58746,2.45074-.87506.03015.03265.0603.06659.09174.0993-.60968.74548-1.23688,1.47589-1.94257,2.22369-.20099-.47998-.40039-.96179-.59991-1.44794ZM91.79907,64.40448c-.18665-.46069-.37439-.92712-.5647-1.40344.96375-1.34418,1.9068-2.65948,2.84753-3.97284.07294.00757.14453.01508.21747.02264.40973,1.25446.8208,2.50885,1.26324,3.86133-1.26233.50031-2.48236.98425-3.76355,1.49231ZM90.97479,62.34949c-.46545-1.17151-.94897-2.40424-1.46991-3.73938-.10828-.27753-.37476-.45367-.66345-.45367-.04565,0-.09192.00439-.13806.01349-.18634.03668-.32123.05237-.45135.05237-.13062,0-.27484-.01642-.46735-.05316-.0448-.00854-.08972-.0127-.13403-.0127-.28192,0-.54327.16803-.65619.43567-.80042,1.89758-1.51581,3.59149-2.18829,5.17212-1.15002-.50732-2.29883-.94519-3.45715-1.52954.82208-.68878,1.53601-1.2934,2.25751-1.89044.94775-.78558,1.93195-1.53223,2.84198-2.36182.58447-.53296,1.2016-.56561,1.9093-.44873,1.37762.22626,2.75775.42358,4.1366.63977.38464.06036.7655.14331,1.27454.24011-.95569,1.34631-1.85754,2.617-2.79413,3.93591ZM88.1604,56.77197c1.57623-.98541,3.04816-1.90552,4.50995-2.81805.38965.37457,1.09106,2.7879,1.09229,3.664-.39215.13074-4.82544-.49524-5.60223-.84595ZM49.12207,52.14014c1.0835-.67249,2.16699-1.34747,3.2605-2.00232.22626-.13452.49274-.2464.75043-.27527,2.28766-.2464,4.5791-.46387,6.8667-.7052,2.95514-.31042,5.90894-.61963,8.86029-.96155,1.30847-.1521,2.58801.07922,3.8764.19861,1.854.17096,3.70422.37836,5.55573.57568,2.7879.29541,5.57458.59326,8.36121.89874.17975.02008.37207.08417.52545.17969,1.62018.99805,3.23413,2.0061,4.8468,3.01544.10052.06287.17975.1571.43237.38336-.17725.08301-.31799.13202-.43994.2074-1.52722.95026-3.04559,1.91187-4.5816,2.84827-.27777.16846-.61212.30042-.9339.33563-1.64154.18097-3.28693.31549-4.92975.48267-1.08099.10931-2.1582.25262-3.23914.36829-.95532.10052-1.91187.18097-2.86713.27649-1.10236.10938-2.20593.20367-3.30328.34314-1.56488.19861-3.12097.23633-4.68463-.01257-.76172-.12061-1.53473-.18225-2.30402-.25763-1.10107-.10809-2.20343-.20111-3.30579-.3067-.87354-.08295-1.74585-.17346-2.61945-.26398-1.99603-.20361-3.99335-.39594-5.9856-.62848-.38086-.04401-.77679-.19232-1.10736-.39087-1.45056-.8736-2.88092-1.78113-4.31641-2.67987-.1684-.10559-.31927-.23877-.58826-.44244.71021-.45123,1.28717-.82452,1.87036-1.18652ZM63.89929,85.33508c-2.18732-2.29553-4.31738-4.5321-6.44495-6.76459.62561.03455,1.28192.08069,1.99103.13977.02014.00171.04016.00256.06.00256.36621,0,.67749-.28064.70923-.65204.05701-.66815.09821-1.15076-.00439-1.88251-.04974-.35529-.35413-.61371-.70483-.61371-.02655,0-.05328.00146-.08026.00452-1.63196.18298-3.021.30878-4.38745.32941,1.25269-2.43378,2.51794-4.89276,3.83582-7.45068.85681.60931,1.59045,1.28503,2.32971,1.92053-.01782,2.31299-.07037,4.72003-.15802,7.61017-.00616.20172.07355.39648.21918.53607.13312.12762.30994.19812.49304.19812.01721,0,.03455-.00061.05182-.00183,2.08606-.15198,3.6756-.21973,5.15393-.21973.81903,0,1.63446.02063,2.50519.06433v2.29163c-.34729-.0506-.70709-.07764-1.07263-.07764-.32794,0-.65173.02112-.96228.06274-1.2074.16193-2.18604.74445-2.83032,1.68457-.55109.80426-.79907,1.82367-.7038,2.8183ZM59.98969,82.09198l-.0625.0625c-.0285-.07269-.05713-.14557-.086-.21918.0495.05219.099.10449.1485.15668ZM48.74597,59.19495c.03387,1.12817.06256,2.18219.086,3.18536-.98676-1.27405-1.9234-2.57452-2.88116-3.94415.44617-.10431.74536-.19482,1.04956-.24255,1.46179-.23126,2.92615-.45001,4.38922-.67499.72906-.11188,1.3374-.01257,1.94702.53546,1.41406,1.26953,2.92114,2.43597,4.38928,3.64514.17474.14453.34564.29413.5166.44122-.26642.31549-3.63696,1.84033-5.23804,2.40497.05237-1.78613.12177-3.5379.2099-5.33704.01031-.21106-.07355-.41583-.22894-.55896-.13239-.12195-.30505-.18854-.48285-.18854-.03088,0-.06189.00201-.0929.0061-.55096.07245-.98077.1048-1.39374.1048-.41125,0-.83832-.0307-1.47394-.1059-.02802-.00336-.05597-.005-.08386-.005-.17712,0-.34906.0661-.4812.18713-.15289.14001-.23724.33972-.23096.54694ZM48.87927,64.76428c-1.09283-.41882-2.18744-.83838-3.28796-1.26031.03943-1.4353.09979-2.83081.18121-4.22687.45032.52191.80383,1.10474,1.2002,1.65411.46381.64355.97534,1.25824,1.38385,1.93445.14111.23444.32086.44775.50031.66144.00842.41956.01593.83179.0224,1.23718ZM61.16406,63.93787c.02081,1.10992.03455,2.16766.0412,3.20685-.66614-.06879-1.3067-.13458-1.92578-.19897-.23254-.83337-.16089-3.43903.08801-3.92798.07037.01257.16089.005.22626.0415.52002.28839,1.03955.58032,1.57031.8786ZM59.80487,62.46472c.46161-.23206.88116-.38647,1.31598-.51385.01068.43451.02032.85907.02905,1.27551-.43555-.24689-.86194-.48804-1.34503-.76166ZM59.97961,68.31079c.40588.04034.81244.08136,1.23035.12347.00024.38245-.00037.76465-.00201,1.14813-.43475-.37152-.86945-.74298-1.30377-1.1145.02515-.05151.05029-.10431.07544-.1571ZM61.04517,59.19495c.02252.74939.0426,1.46478.06055,2.1557-.72955.22156-1.4231.43286-2.104.6402-1.77234-1.47192-3.47296-2.88342-5.17365-4.29498.02014-.06793.039-.13702.05786-.2049,3.32635.34277,6.65277.68225,9.98242,1.06171-.19287.0127-.37494.0191-.5531.0191-.41132,0-.83832-.0307-1.47406-.1059-.02795-.00336-.05597-.005-.0838-.005-.17719,0-.34912.0661-.48126.18713-.15289.14001-.23724.33972-.23096.54694ZM52.96826,65.89789c.00543-.22473.01117-.44867.01715-.67181,1.71185-.74225,3.42786-1.47418,5.1452-2.20203.10559-.04401.23755-.02637.37585-.04022v3.78217c-1.9101-.23718-3.72522-.56781-5.53821-.8681ZM58.37451,68.11469c-1.28088,2.48627-2.51013,4.87073-3.80481,7.38336-.61462-.66974-1.1524-1.25488-1.69202-1.84198.00238-2.37164.02319-4.53491.06488-6.60541,1.81354.35474,3.5675.69897,5.43195,1.06403ZM49.45819,59.17352c1.17456.13898,1.85547.15637,3.04437,0-.29065,5.93652-.36053,11.0802-.33215,17.32513,2.52814.23212,4.4967.0968,7.33417-.22137.09094.64905.05505,1.07715,0,1.72284-3.60645-.30042-6.05951-.29034-10.04639,0,.22168-7.31274.22113-11.47437,0-18.8266ZM61.75745,78.00012c.22168-7.31274.22107-11.47437,0-18.8266,1.17456.13898,1.85547.15637,3.04431,0-.29059,5.93652-.36047,11.0802-.33209,17.32513,2.52814.23212,4.4967.0968,7.33411-.22137.091.64905.05511,1.07715,0,1.72284-3.60645-.30042-6.05951-.29034-10.04633,0ZM69.46582,69.25476v6.53687c-.31989.02557-.63428.04742-.94342.06451-1.11975-.95453-2.2381-1.91132-3.3443-2.88208.00372-1.44946.01471-2.82227.03345-4.14709,1.41797.14246,2.81226.28259,4.25427.4278ZM65.23077,67.63037c.00861-.47589.01837-.94629.02911-1.4129.96228.53021,1.88153,1.0199,2.76294,1.57294-.02893.06158-.0578.12317-.08795.18353-.89111-.11353-1.78479-.22644-2.7041-.34357ZM67.66925,75.89154c-.24005.00659-.47937.01117-.71814.01117-.58594,0-1.17035-.02039-1.77142-.06171-.00244-.71576-.00336-1.41058-.00281-2.08923.84424.7251,1.66925,1.43323,2.49237,2.13977ZM71.49536,75.59412c-.46924.05176-.91931.09833-1.35455.13892v-6.42798c1.26178-.23248,2.52936-.29053,3.82947-.42291-.02789,1.49469-.06891,3.04291-.1203,4.65601-.80676.70636-1.58325,1.38678-2.35461,2.05597ZM71.68182,67.98022c.1463-.28357,1.39124-1.07477,2.32214-1.52618-.00354.40778-.00824.81946-.0141,1.23511-.77551.0979-1.53442.19336-2.30804.29108ZM69.86047,68.06067c-1.55499-.85748-3.0686-1.6911-4.58398-2.52625.04266-1.66492.09967-3.28784.17224-4.93298.27106-.10046.53546-.19696.80182-.28363,1.01306-.32806,2.03375-.6297,3.04559-.96277.37329-.12323.71893-.13324,1.09857-.00757,1.18219.38818,2.37128.75641,3.56195,1.13031.04663,1.70154.06207,3.45441.05231,5.28265-1.35278.75024-2.7287,1.51282-4.1485,2.30023ZM65.35449,58.72522c.80292.0946,1.60602.19098,2.40942.29169-.70569.45941-1.49908.64142-2.28558.93182.01141-.24609.02307-.49268.03522-.74036.00861-.17639-.04932-.3479-.15906-.48315ZM73.92004,59.32404c.00616.1687.01196.33789.01746.50751-.67596-.21588-1.33966-.42841-2.00177-.63995-.00128-.0603-.00378-.12067-.00507-.18097.22125-.05908.43872-.1496.6637-.17346.57654-.06,1.15332-.1189,1.72992-.17859-.05731.02759-.11237.06036-.16132.10309-.1615.1413-.25073.3479-.24292.56238ZM51.40216,56.79333c-.38086.25897-4.96118.9704-5.56702.82959.31171-1.19659.62219-2.39069.94397-3.625.57697.12439,4.22211,2.35547,4.62305,2.79541ZM23.03137,74.91388c-.78424,1.50873-2.03253,2.39435-3.65234,2.80908-1.3103.33557-2.64465.35815-3.98663.33612-1.29565-.0213-2.59198-.00378-3.888-.00336-.14404.00006-.28809,0-.54102,0-.00287-.45813-.01508-.88269-.00653-1.30688.05341-2.65167.16205-5.30334.15442-7.95477-.00842-2.94531-.12177-5.89032-.18835-8.83551-.0047-.2066-.00067-.41345-.00067-.67767.17267-.02844.32825-.07617.48389-.07635,1.63098-.0025,3.26215-.01172,4.89294.01031,1.25439.01691,2.51208.05688,3.72253.44421,1.67462.53589,2.81128,2.26434,2.70911,4.01355-.10468,1.79181-1.16852,2.83435-2.68182,3.53461-.39502.1828-.8324.27356-1.2486.41168-.16229.05383-.31989.1217-.47968.18317.00531.05029.01056.10059.01581.15088.19391.03094.38702.06891.58185.09161,1.18542.138,2.3042.46082,3.20636,1.28259,1.52075,1.38513,1.87787,3.71857.90674,5.58673ZM29.07617,73.55249c.02368,1.47418.09076,2.94769.13947,4.44055h-2.90192c-.01807-.25433-.05481-.51483-.05237-.77496.04041-4.3269.09857-8.65375.12256-12.98077.00775-1.3999-.07446-2.80017-.10773-4.2005-.00574-.24316.02765-.4873.04675-.79108.25909,0,.46155-.00018.664.00006,1.63043.00171,3.26221-.03613,4.89081.01886,1.14441.03864,2.3147.07703,3.42023.33917,2.19073.51953,3.29865,2.38647,3.0188,4.67572-.24475,2.00214-1.46875,3.16199-3.28632,3.78986-.62451.21576-1.27673.35175-2.00549.54822,1.09302,1.66907,2.35345,3.14026,3.50714,4.68915,1.1394,1.52972,2.40533,2.96533,3.56775,4.62585-.70428.19409-1.27448-.0528-1.83795.00946-.55884.06171-1.12152.08832-1.77142.13696-2.04419-3.14874-4.20599-6.24152-6.71643-9.12585-.21582.01331-.43512.02679-.70319.04333,0,1.55591-.01874,3.05627.00531,4.55597ZM36.30853,89.3916c1.06787,3.59186,4.85785,3.77716,6.88013,2.0733.29254-.24652.5733-.50696.8595-.76099,0,.28485.00977.35229.05811,1.51978-.56439.49255-1.23743.71124-1.92615.88092-1.43805.35431-2.88409.49323-4.33435.06158-3.21381-.95667-4.46454-3.69507-4.03284-6.66736.19116-1.31604.71753-2.47528,1.67566-3.42615.95087-.94366,2.14478-1.35925,3.42206-1.55481,1.4455-.22137,2.87933-.07581,4.28314.32098.35455.10022.68817.27429,1.10071.44269-.16016.54053-.30237,1.02026-.46912,1.58289-.58734-.55054-.88794-1.2085-2.38104-1.46393-.99536-.17035-1.96844-.07996-2.89795.2749-1.23328.4707-1.90698,1.46387-2.23297,2.69025-.35461,1.33405-.40149,2.69196-.00488,4.02594ZM40.15375,60.58429c.46558-.19293.93079-.38593,1.43951-.59705.0166.53333.03003,1.07159.04053,1.61548-.51111-.29498-.99249-.5722-1.47375-.84869-.00256-.05658-.00378-.11316-.00629-.16974ZM45.06464,78.00012c-1.08765-.24976-1.77942-.19238-3.00977,0,.28156-7.26514.42828-13.21484.22833-18.70203,1.05908.18188,1.75043.09021,2.78143-.12457-.34149,5.81061-.29926,11.50037,0,18.8266ZM43.271,58.68091c-.27271-.00415-.55023-.03064-.86725-.08514-.0401-.0069-.08044-.01031-.12061-.01031-.17114,0-.3382.06177-.46906.17621-.16162.1413-.25085.3479-.24304.56238.00061.01709.00116.03436.00177.05145-.42334.17316-.84705.3465-1.27075.52002-.03644-.04901-.07416-.0993-.11188-.14832,1.36255-2.05389,2.72382-4.10773,4.06244-6.12512h1.97345c-.37207,1.46057-.724,2.83942-1.09735,4.29877-.61523.25189-1.2356.50568-1.85773.76007ZM45.5625,64.75336c1.10645.38965,2.21484.78052,3.3327,1.17432.01276,1.11432.0177,2.19409.01483,3.28015-.31799-.35864-.61017-.74304-.93683-1.09186-.52917-.56439-1.05206-1.13501-1.54352-1.73083-.26929-.32581-.5899-.61157-.87897-.922.00336-.23822.00739-.47443.01178-.70978ZM52.32843,93.05273c-2.21649-.18463-3.72412-.17847-6.17444,0,.13629-4.49432.13593-7.05206,0-11.57068.72186.08539,1.14038.09607,1.87103,0-.17859,3.6485-.22156,6.80981-.2041,10.64789,1.55377.14264,2.76361.05951,4.50751-.13605.05591.39893.03381.66199,0,1.05884ZM61.91693,93.22491l-1.68921-4.46869h-4.41266l-1.55133,4.46869c-.46002-.10938-.84546-.11041-1.39624,0,2.07617-4.46686,3.26007-7.26196,5.22284-11.91504.28943.05524.46704.05402.74121,0,1.80969,4.63873,2.88965,7.26147,5.11932,11.91504-.82654-.12933-1.27405-.12915-2.03394,0ZM71.82263,90.20966c-.26099,1.6524-1.19446,2.7005-2.85596,3.10437-1.81805.44189-3.85132-.16461-4.52051-.80908.50311-1.57825.45123-1.4278.58307-1.74463.12048.19983.26025.39642.3645.61029.64606,1.32611,2.31677,1.55536,3.487.91382,1.28052-.70197,1.31976-2.71075.15521-3.37207-.68671-.39001-1.43262-.67731-2.15704-.99921-1.00165-.44513-1.90851-.98529-2.18951-2.15381-.41986-1.74603.4845-3.90521,2.83868-4.22083,1.22552-.16437,2.75195.02057,3.75464.68085-.15594.45483-.31879.92963-.50983,1.48669-.44928-.60474-.65051-1.26501-2.02869-1.37689-.18707-.0152-.3764.00049-.56458-.00421-1.24402-.03113-2.09619,1.02026-1.67657,2.43823.08545.28876.34381.59106.6059.74939.53302.32214,1.11914.5589,1.69067.81451.4942.22107,1.00885.39801,1.49615.63251,1.16339.55969,1.71692,2.04675,1.52686,3.25006ZM67.22064,88.83813c.51642.22162,1.00592.4339,1.46338.69379.35779.20325.4826.64062.48004.98236-.00073.09387-.01154.19458-.03296.29669-.36786-.30145-.61499-.66376-.92352-.95355-.3443-.32349-.66138-.67517-.98694-1.01929ZM69.48468,83.25421v2.58899c-.13391-.05457-.26556-.10913-.39417-.16669-.10895-.04877-.21844-.09674-.328-.14484-.45868-.20135-.89197-.39148-1.28503-.62885-.13239-.08008-.26294-.24664-.29114-.34174-.13635-.46082-.09528-.87006.11566-1.1524.17908-.23969.4718-.37177.8241-.37177,0,0,.10028.00159.13245.00159.05286,0,.10583-.00098.15875-.00183.04431-.00085.08868-.00177.13293-.00177.04565,0,.09125.00092.13629.00446.37976.03082.6192.10217.79816.21484ZM72.45392,88.77979c-.2356-1.0033-.83868-1.97626-1.84918-2.46228-.15778-.07593-.31635-.14532-.474-.21143v-2.07343c.02301.03265.04529.06494.07007.09833.13568.18262.34869.28772.5719.2876.03644,0,.07306-.00269.10962-.00848.26141-.04065.47882-.22266.56458-.47296l.50995-1.48676c.10529-.30743-.01068-.64734-.28223-.82605-.4248-.27979-.94824-.49756-1.52753-.64349v-2.38739c.50671.03125,1.03558.07001,1.59747.11682.02014.00171.04016.00256.05994.00256.36627,0,.67755-.28064.70923-.65204.05707-.66815.09821-1.15076-.00427-1.88251-.02698-.19269-.13037-.35492-.27393-.4649.53156-.45233,1.06067-.90253,1.58746-1.35065-.03918,1.16815-.08319,2.36945-.13123,3.6098-.00824.21295.07916.41833.23834.56.13135.11694.30023.18018.47369.18018.03662,0,.07343-.00281.11011-.00848.62347-.0976,1.09802-.15796,1.53693-.15796.38495,0,.75604.04578,1.20319.14838.0528.01215.10632.01807.15948.01807.16461,0,.32599-.05707.45514-.16425.17102-.14191.26587-.35547.2569-.57739-.10669-2.61285-.17773-4.95624-.21362-7.12244.98053-.82727,1.90576-1.60809,2.87396-2.42474.37561.71277.73407,1.39374,1.09979,2.08716-.98871,2.23352-2.02576,4.51892-3.26666,7.18872-.11328.24353-.0799.53003.08618.74115.1366.17358.34406.27191.56.27191.04651,0,.09338-.0047.14014-.01398.40302-.08081.73114-.11847,1.03284-.11847.29236,0,.57959.03583.90393.11304.05524.01312.1106.01941.16522.01941.2973,0,.57153-.18707.67279-.479l1.48035-4.26422c.3385.65051.68347,1.31287,1.0509,2.01862-1.68744,1.78198-3.35809,3.54724-5.05701,5.34167-.71765-.28278-1.57446-.4389-2.46387-.4389-.32788,0-.65155.02112-.96228.06274-1.20721.16193-2.18591.74445-2.83008,1.68445-.66125.96484-.88794,2.23932-.60675,3.40924.15918.66199.47308,1.16052.87366,1.55609-.16461.17902-.33148.35681-.50507.52814-.22742.2243-.46631.43695-.70605.64813ZM80.61755,90.33124c-.26099,1.6524-1.19446,2.7005-2.85596,3.10437-1.81805.44189-3.85132-.16461-4.52051-.80908.50317-1.57825.45123-1.42773.58307-1.74463.12048.19983.26025.39642.3645.61029.64612,1.32611,2.31677,1.55536,3.487.91382,1.28052-.70197,1.31976-2.71075.15521-3.37207-.68665-.39001-1.43262-.67731-2.15704-.99921-1.00165-.44513-1.90851-.98529-2.18951-2.15381-.41986-1.74603.4845-3.90515,2.83868-4.22083,1.22552-.16431,2.75201.02057,3.75464.68085-.15594.45483-.31879.92963-.50983,1.48669-.44922-.60474-.65051-1.26501-2.02869-1.37689-.18707-.01514-.3764.00049-.56451-.00421-1.24408-.03113-2.09625,1.02026-1.67664,2.43823.08545.28876.34381.59106.6059.74945.53308.32208,1.11914.55884,1.69067.81451.4942.22101,1.00885.39801,1.49615.63245,1.16339.55969,1.71692,2.04681,1.52686,3.25006ZM77.84003,83.21051c-.5614.59332-1.10925,1.17249-1.65417,1.74908-.09857-.08612-.18268-.20288-.20459-.27698-.13635-.46082-.09528-.87006.11566-1.1524.17908-.23969.47168-.37177.8241-.37177l.03534.00037c.03278.00085.06567.00122.09845.00122.05267,0,.10535-.00085.1579-.00183.04407-.00073.08826-.00165.1322-.00165.04553,0,.09106.00079.1366.00446.13684.01111.25427.02789.35852.0495ZM84.86829,93.22491c-.67139-.15411-1.09839-.11877-1.85785,0,.17377-4.48462.26434-8.15723.14093-11.54437.65375.1123,1.08051.05566,1.71692-.0769-.21082,3.58679-.18469,7.09894,0,11.62128ZM85.07965,75.38995c-.38336-.74139-.76398-1.47705-1.14447-2.21173l.56952-1.6405h4.11578c-.84241,1.12189-2.94025,3.44806-3.54083,3.85223ZM89.81482,89.3916c1.06787,3.59186,4.85785,3.77716,6.88013,2.0733.29254-.24652.5733-.50696.85956-.76099,0,.28485.0097.35229.05811,1.51978-.56439.49255-1.23749.71124-1.92615.88092-1.43811.35431-2.88409.49323-4.33435.06158-3.21381-.95667-4.4646-3.69507-4.0329-6.66736.19116-1.31604.71753-2.47528,1.67572-3.42615.95087-.94366,2.14471-1.35925,3.42206-1.55481,1.44543-.22137,2.87927-.07581,4.28308.32098.35455.10022.68817.27429,1.10071.44269-.16016.54053-.30237,1.02026-.46912,1.58289-.58734-.55054-.88788-1.2085-2.38104-1.46393-.99536-.17035-1.96838-.07996-2.89795.2749-1.23322.4707-1.90692,1.46387-2.23297,2.69025-.35461,1.33405-.40149,2.69196-.00488,4.02594ZM96.0415,62.48108c-.38464-1.18909-.77551-2.39703-1.16644-3.60498.04272-.03772.08423-.07666.12695-.1156,1.00372.31445,1.95764.76483,2.95654,1.16101.00775.60291.01471,1.18622.02069,1.75275-.77411.48053-1.58154.83478-1.93774.80682ZM97.94659,59.01727c.00128.09521.0025.18793.00378.2821-.78821-.31573-1.58167-.63318-2.37646-.95367-.2124-.08551-.44995-.14459-.62341-.28156-.20117-.15717-.43243-.362-.49902-.59082-.33185-1.13623-.61591-2.2876-.90881-3.43524-.02887-.11182-.00372-.23627-.00372-.4223h1.91431c1.01489,1.52887,2.05469,3.09564,3.11066,4.68628-.1554.021-.30072.0921-.41205.20496-.13397.1358-.20782.31952-.20526.51025ZM106.39905,90.1662c-.26099,1.65247-1.19446,2.7005-2.85596,3.10437-1.81799.44196-3.85132-.16455-4.52051-.80908.50317-1.57825.45123-1.42773.58313-1.74463.12042.19983.26019.39642.36444.61035.64612,1.32605,2.31677,1.5553,3.487.91382,1.28052-.70203,1.31976-2.71075.15521-3.37213-.68665-.38995-1.43262-.67725-2.15704-.99915-1.00165-.44513-1.90851-.98529-2.18951-2.15387-.41986-1.74597.48456-3.90515,2.83868-4.22083,1.22552-.16431,2.75201.02063,3.75464.68091-.15594.45477-.31879.92957-.50983,1.48669-.44922-.6048-.65051-1.26501-2.02869-1.37689-.18701-.0152-.3764.00043-.56451-.00427-1.24408-.03107-2.09625,1.02026-1.67664,2.43829.08545.2887.34381.59106.6059.74939.53308.32208,1.11914.55884,1.69067.81451.4942.22107,1.00885.39801,1.49615.63245,1.16339.55969,1.71692,2.04681,1.52686,3.25006ZM114.72504,78.10388h-.99634l-13.65808-14.40533c.02539,5.21741.26227,8.86047.51892,14.30157-.74261-.21246-1.3045-.22363-2.09644-.10382.25049-7.31207.26685-11.51227.16602-18.88885h1.03784l13.51282,14.38458c.00598-5.61749.04169-10.40472-.37366-14.38458.89172.11169,1.39886.08276,2.28326-.13837-.57532,4.64319-.58081,11.77179-.39435,19.2348ZM130.81171,60.95862c-2.15332-.341-3.43036-.45465-5.8327-.51892-.19928,6.85779-.04102,11.14209.18677,17.56042-1.13861-.32147-1.85968-.30396-3.05127-.12457.28229-6.34949.3858-10.62671.18683-17.43585-2.27386.07318-4.46808.15417-5.91577.49817.10828-.72955.08685-1.20068,0-1.8681,5.57874.22443,8.85437.20459,14.42615-.20068-.05682.74036-.05402,1.27356,0,2.08954Z"/></svg>