<?xml version="1.0" encoding="UTF-8"?><svg id="WZOR" xmlns="http://www.w3.org/2000/svg" viewBox="0 0 141.7323 141.7323"><defs><style>.cls-1{fill:#f1e9da;}.cls-1,.cls-2{stroke-width:0px;}.cls-2{fill:#192a51;}</style></defs><rect id="TLO" class="cls-1" x=".00002" y="0" width="141.73228" height="141.73228" rx="28.34646" ry="28.34646"/><path class="cls-2" d="M64.70392,68.6344c0-5.88794-3.22888-8.54132-6.4679-9.7431-3.04132-1.12848-5.94501-1.40369-5.94501-1.40369v-1.23853s9.11011-.39221,9.11011-9.79816c0-7.6239-7.31952-7.87158-14.20184-7.87158v38.09174s3.39911-.06445,7.396-.06445c3.79211,0,10.10864-2.44366,10.10864-7.97223Z"/><polygon class="cls-2" points="52.78644 102.62524 58.01581 102.62524 55.34607 95.27661 52.78644 102.62524"/><path class="cls-2" d="M113.38586,0H28.3465C12.69116,0,0,12.6911,0,28.34644v85.03937c0,15.65533,12.69116,28.3465,28.3465,28.3465h85.03937c15.65527,0,28.34644-12.69116,28.34644-28.3465V28.34644c0-15.65533-12.69116-28.34644-28.34644-28.34644ZM96.38281,42.65277c1.82074,12.73877-9.68811,15.85321-9.68811,15.85321l17.88989,25.23853h-10.40363c-4.51379-6.70184-9.22705-13.73737-14.01605-20.54932-1.89044-2.68896-3.95007-4.58704-5.7179-5.41858v-1.15594s14.40826.18579,13.58258-10.40369c-.69568-8.92151-14.078-7.63757-14.078-7.63757-1.29669-2.59985-2.47803-4.13232-4.59631-6.22021,0,0,25.09399-3.23395,27.02753,10.29358ZM23.58459,109.18195l-6.23389-8.46954v8.46954h-4.85944v-18.94208h4.85944v7.83032l6.19263-7.83032h5.61469l-7.05963,9.11017,7.67889,9.83191h-6.19269ZM44.44702,109.18195h-10.91284v-18.94208h4.74768v14.86243h6.16516v4.07965ZM38.9906,83.74451v-51.60809h12.19952c2.87604,0,18.79816-.34033,18.79816,12.80072,0,7.76147-6.52295,11.06421-6.52295,11.06421,0,0,9.99084,1.789,9.99084,11.88995,0,12.44531-11.58716,15.68805-21.578,15.85321-7.0069.11578-12.88757,0-12.88757,0ZM60.32776,109.18195l-1.29358-3.17139h-7.211l-1.18353,3.17139h-4.81647l7.01831-18.94208h5.64221l7.01837,18.94208h-5.17432ZM72.97107,109.67114c-1.26605.07159-3.28607.11603-4.74768-.4892l.17859-4.13177c1.88068.76935,6.7998,1.35223,6.8501-1.24146.01849-.95435-.39929-1.64087-2.828-2.31189-4.22131-1.16632-4.83069-3.55188-4.80273-5.72479.02789-2.88959,2.73993-5.89899,7.45612-5.89899,1.32294,0,2.66199.01251,4.11096.32642l-.10883,3.92444c-1.60504-.47516-6.25061-.96106-6.38013,1.10352-.08136,1.297.47101,1.64978,3.55402,2.73285,3.17065,1.11389,4.27612,3.01495,4.27612,5.27051,0,2.80695-2.44958,6.15137-7.55853,6.44037ZM89.11328,109.67114c-1.26605.07159-3.28607.11603-4.74768-.4892l.17859-4.13177c1.88062.76935,6.7998,1.35223,6.85004-1.24146.01855-.95435-.39923-1.64087-2.82794-2.31189-4.22131-1.16632-4.83069-3.55188-4.80273-5.72479.02789-2.88959,2.73993-5.89899,7.45612-5.89899,1.32294,0,2.66199.01251,4.11096.32642l-.10883,3.92444c-1.60504-.47516-6.25061-.96106-6.38013,1.10352-.08136,1.297.47101,1.64978,3.55402,2.73285,3.17065,1.11389,4.27606,3.01495,4.27606,5.27051,0,2.80695-2.44952,6.15137-7.55847,6.44037ZM105.89111,109.32019h-4.58887v-19.07336h4.58887v19.07336ZM123.04834,109.18195l-6.23389-8.46954v8.46954h-4.85944v-18.94208h4.85944v7.83032l6.19263-7.83032h5.61469l-7.05963,9.11017,7.67889,9.83191h-6.19269Z"/></svg>