<?xml version="1.0" encoding="UTF-8"?><svg id="WZOR" xmlns="http://www.w3.org/2000/svg" viewBox="0 0 141.7323 141.7323"><defs><style>.cls-1{fill:#f1e9da;}.cls-1,.cls-2{stroke-width:0px;}.cls-2{fill:#192a51;}</style></defs><rect id="TLO" class="cls-1" x=".00002" y="0" width="141.73228" height="141.73228" rx="28.34646" ry="28.34646"/><path class="cls-2" d="M69.00153,65.18951h-12.88068v11.62152h3.92883v-8.35321c0-.4256.34503-.77063.77063-.77063h6.55048c.4256,0,.77063.34503.77063.77063v8.35321h3.77759v-8.70404c0-1.61133-1.30621-2.91748-2.91748-2.91748Z"/><path class="cls-2" d="M84.53131,72.94067c0,.45032-.36505.81537-.81537.81537h-5.51147c-.45032,0-.81537-.36505-.81537-.81537v-7.75116h-3.97693v8.47711c0,1.73657,1.40778,3.14441,3.14441,3.14441h7.89215v3.117h.86017c1.72723,0,3.12653-1.39337,3.14166-3.117h.00275v-11.62152h-3.922v7.75116Z"/><path class="cls-2" d="M51.71021,65.18951h-10.008c-1.58655,0-2.87274,1.28613-2.87274,2.87268v6.09979c0,1.46301,1.18604,2.64905,2.64911,2.64905h10.23163c1.61127,0,2.91742-1.30615,2.91742-2.91742v-5.78662c0-1.61133-1.30615-2.91748-2.91742-2.91748ZM50.69189,73.06793c0,.55865-.45288,1.01147-1.01147,1.01147h-5.90369c-.55859,0-1.01147-.45282-1.01147-1.01147v-4.13531c0-.55859.45288-1.01147,1.01147-1.01147h5.90369c.55859,0,1.01147.45288,1.01147,1.01147v4.13531Z"/><polygon class="cls-2" points="104.99725 65.18951 100.04791 65.18951 97.37079 68.25836 94.87244 65.18951 89.80579 65.18951 94.59436 70.76288 89.73315 76.24097 89.73315 76.81104 93.97693 76.81104 97.37079 72.64221 101.00745 76.81104 105.00836 76.81104 105.00836 76.79321 100.26068 70.65967 104.99725 65.18951"/><path class="cls-2" d="M113.38586,0H28.3465C12.69116,0,0,12.6911,0,28.34644v85.03937c0,15.65533,12.69116,28.3465,28.3465,28.3465h85.03937c15.65527,0,28.34644-12.69116,28.34644-28.3465V28.34644c0-15.65533-12.69116-28.34644-28.34644-28.34644ZM70.86615,88.82483c-30.8266,0-55.81647-8.04041-55.81647-17.95874s24.98987-17.95868,55.81647-17.95868,55.81653,8.04034,55.81653,17.95868-24.98987,17.95874-55.81653,17.95874Z"/></svg>