<?xml version="1.0" encoding="UTF-8"?><svg xmlns="http://www.w3.org/2000/svg" viewBox="0 0 141.7323 141.7323"><defs><style>.cls-1{fill:#f1e9da;}.cls-1,.cls-2{stroke-width:0px;}.cls-2{fill:#192a51;}</style></defs><g id="WZOR"><rect id="TLO" class="cls-1" x=".00002" y="0" width="141.73228" height="141.73228" rx="28.34646" ry="28.34646"/></g><g id="Warstwa_2"><path class="cls-2" d="M113.38586,0H28.3465C12.69116,0,0,12.6911,0,28.34644v85.03937c0,15.65533,12.69116,28.3465,28.3465,28.3465h85.03937c15.65527,0,28.34644-12.69116,28.34644-28.3465V28.34644c0-15.65533-12.69116-28.34644-28.34644-28.34644ZM50.34674,77.3457h6.35785l-3.38531,17.42206,4.3761-2.22937,2.80737-27.90826-6.68811-29.80731,3.38531-5.03674,9.24774,30.01379-4.87158,30.7569,1.81653-1.48627,5.77985-33.27521-8.42206-35.33948,4.12848-1.32111,11.22931,38.14679-6.93573,28.56885,4.54126-2.47711,5.11926-27.7431-9.16516-33.11011,5.20184-1.73395,13.12848,37.07343-6.44037,20.80731,5.61469-3.633,3.55042-17.2569-8.422-29.14679,2.72479-1.23853,12.38531,30.4679-8.8349,40.211-40.37616,2.39447-5.20178-10.65137,7.34857-12.4679ZM57.28253,108.72186h-12.88074v3.88074h12.88074v3.13763h-12.88074v6.85321h-3.05505v-16.67889h15.93579v2.80731ZM78.99817,122.59344h-3.88074v-6.93579h-12.3028v6.93579h-3.30273v-16.67889h3.22021v6.27521h12.79816v-6.27521h3.4679v16.67889ZM100.38556,113.35754c0,.96997-.77997,1.75-1.75,1.75.97003,0,1.75.77997,1.75,1.75v5.73999h-2.96997v-6.10999h-12.21997v6.10999h-3.39001v-16.67999h15.46997c1.72003,0,3.10999,1.39001,3.10999,3.10999v4.33002Z"/><path class="cls-2" d="M95.66327,108.68054h-10.72015v4.85095h10.72015c.96527,0,1.74774-.78247,1.74774-1.74774v-1.35547c0-.96527-.78247-1.74774-1.74774-1.74774Z"/></g></svg>