<?xml version="1.0" encoding="UTF-8"?><svg id="WZOR" xmlns="http://www.w3.org/2000/svg" viewBox="0 0 141.7323 141.7323"><defs><style>.cls-1{fill:#f1e9da;}.cls-1,.cls-2{stroke-width:0px;}.cls-2{fill:#192a51;}</style></defs><rect id="TLO" class="cls-1" x=".00002" y="0" width="141.73228" height="141.73228" rx="28.34646" ry="28.34646"/><path class="cls-2" d="M101.86328,96.14844c-3.22467-.69299-5.10254-3.21869-4.87708-6.55804.198-2.93365,2.68372-5.35291,5.73358-5.57892,1.79895-.1333,3.50909.21802,5.14862.9483.33881.15088.67462.30859,1.20386.55127v-2.44122c-2.10516-.95648-4.21582-1.50647-6.44885-1.3042-.98248.08899-1.99274.29889-2.90424.66675-3.60638,1.45538-5.69543,5.08313-5.16528,8.80225.57153,4.00909,3.46747,6.81097,7.53308,7.17096,1.17517.104,2.38397.04407,3.55713-.10217,1.26562-.15784,2.51715-.47961,3.57312-1.27679v-2.40497c-.49927.24597-.87042.43848-1.24951.61383-1.94495.8996-3.95502,1.37488-6.10443.91296Z"/><rect class="cls-2" x="89.67828" y="81.72394" width="1.90601" height="16.73395"/><path class="cls-2" d="M117.16949,89.12378c-.78375-.53113-1.62299-.98627-2.3725-1.56024-.69672-.53357-1.23035-1.24719-.96973-2.19989.27667-1.01178,1.12848-1.35565,2.06458-1.47113,1.17841-.14539,2.24585.19684,3.22351.8584.27875.1886.58881.33069,1.00525.56085v-2.40808c-1.64093-1.17767-3.46021-1.43469-5.38214-.94409-1.59045.40601-2.67224,1.43896-3.04852,3.05963-.37036,1.59515-.0144,3.04681,1.29517,4.10547.87927.71075,1.87677,1.27325,2.79651,1.93665.72583.52362,1.46588,1.04645,2.10321,1.6684.59357.57928.94116,1.31946.56445,2.19415-.37396.86829-1.07025,1.3125-1.97626,1.42102-1.34155.16071-2.52838-.23572-3.56696-1.09009-.35223-.28973-.7002-.58478-1.19769-1.00085v2.75214c1.33789,1.07806,2.89374,1.50159,4.60657,1.44714,1.91821-.06091,3.38776-.85297,4.16589-2.66754.7392-1.72388.31506-3.72809-1.13013-5.08801-.64764-.60944-1.43842-1.07056-2.18121-1.57391Z"/><polygon class="cls-2" points="41.24463 81.72394 39.33868 81.72394 39.33868 98.45789 39.8891 98.45789 41.24463 98.45789 48.00842 98.45789 48.00842 96.55194 41.24463 96.55194 41.24463 81.72394"/><path class="cls-2" d="M72.09863,89.12378c-.78375-.53113-1.62299-.98627-2.3725-1.56024-.69672-.53357-1.23035-1.24719-.96973-2.19989.27667-1.01178,1.12848-1.35565,2.06458-1.47113,1.17841-.14539,2.24579.19684,3.22351.8584.27875.1886.58881.33069,1.00525.56085v-2.40808c-1.64099-1.17767-3.46021-1.43469-5.38214-.94409-1.59045.40601-2.67224,1.43896-3.04852,3.05963-.37036,1.59515-.0144,3.04681,1.2951,4.10547.87933.71075,1.87683,1.27325,2.79657,1.93665.72583.52362,1.46588,1.04645,2.10321,1.6684.59357.57928.94116,1.31946.56445,2.19415-.37396.86829-1.07025,1.3125-1.97626,1.42102-1.34155.16071-2.52838-.23572-3.56696-1.09009-.35223-.28973-.7002-.58478-1.19769-1.00085v2.75214c1.33789,1.07806,2.89374,1.50159,4.60657,1.44714,1.91821-.06091,3.38776-.85297,4.16589-2.66754.7392-1.72388.31506-3.72809-1.13013-5.08801-.64764-.60944-1.43842-1.07056-2.18121-1.57391Z"/><path class="cls-2" d="M30.39124,45.44873h-4.89661v8.83484h4.92914c2.43066,0,4.40112-1.97046,4.40112-4.40118,0-2.44867-1.98499-4.43365-4.43365-4.43365Z"/><path class="cls-2" d="M28.62347,96.14844c-3.22467-.69299-5.10254-3.21869-4.87708-6.55804.198-2.93365,2.68372-5.35291,5.73358-5.57892,1.79895-.1333,3.50909.21802,5.14862.9483.33881.15088.67462.30859,1.20386.55127v-2.44122c-2.10516-.95648-4.21582-1.50647-6.44885-1.3042-.98248.08899-1.99274.29889-2.90424.66675-3.60638,1.45538-5.69543,5.08313-5.16528,8.80225.57153,4.00909,3.46747,6.81097,7.53308,7.17096,1.17517.104,2.38397.04407,3.55719-.10217,1.26556-.15784,2.51709-.47961,3.57306-1.27679v-2.40497c-.49927.24597-.87042.43848-1.24951.61383-1.94495.8996-3.95502,1.37488-6.10443.91296Z"/><path class="cls-2" d="M57.93573,81.72394h-.97229l-.55255,1.18127-7.26031,15.55267h2.08435l2.46912-5.2984h7.49115l2.46899,5.2984h2.08435l-7.26025-15.55267-.55255-1.18127ZM54.45947,91.5448l2.99359-6.40979,2.98669,6.40979h-5.98029Z"/><path class="cls-2" d="M83.15375,89.12378c-.78375-.53113-1.62299-.98627-2.3725-1.56024-.69672-.53357-1.23035-1.24719-.96973-2.19989.27667-1.01178,1.12848-1.35565,2.06458-1.47113,1.17841-.14539,2.24585.19684,3.22351.8584.27875.1886.58881.33069,1.00525.56085v-2.40808c-1.64093-1.17767-3.46021-1.43469-5.38214-.94409-1.59045.40601-2.67224,1.43896-3.04852,3.05963-.37036,1.59515-.0144,3.04681,1.2951,4.10547.87933.71075,1.87683,1.27325,2.79657,1.93665.72583.52362,1.46588,1.04645,2.10321,1.6684.59357.57928.94116,1.31946.56445,2.19415-.37396.86829-1.07025,1.3125-1.97626,1.42102-1.34155.16071-2.52838-.23572-3.56696-1.09009-.35223-.28973-.7002-.58478-1.19769-1.00085v2.75214c1.33789,1.07806,2.89374,1.50159,4.60657,1.44714,1.91821-.06091,3.38776-.85297,4.16589-2.66754.7392-1.72388.31506-3.72809-1.13013-5.08801-.64764-.60944-1.43842-1.07056-2.18121-1.57391Z"/><polygon class="cls-2" points="52.04181 56.87219 60.5918 56.87219 56.32178 47.70221 52.04181 56.87219"/><path class="cls-2" d="M126.04968,36.55878H15.68268v36.99084h110.367v-36.99084ZM30.94415,56.59552h-5.44952v10.43115h-2.97247v-23.94495h8.17432c3.80011,0,6.88074,3.08063,6.88074,6.88074,0,3.66333-2.96973,6.63306-6.63306,6.63306ZM42.83405,67.02673h-2.97247v-23.94501h2.97247v23.94501ZM65.20178,66.76221l-3.52997-7.58002h-10.71002l-3.53003,7.58002h-2.97998l10.38-22.25.78998-1.69h1.39001l.78998,1.69,10.38,22.25h-2.97998ZM92.0451,67.02667h-2.97247l-16.3844-19.48785v19.48785h-2.97247v-23.94495h2.97247l16.3844,19.48792v-19.48792h2.97247v23.94495ZM107.9809,67.02667c-6.61224,0-11.97247-5.36029-11.97247-11.97247s5.36023-11.97247,11.97247-11.97247,11.97241,5.36023,11.97241,11.97247-5.36023,11.97247-11.97241,11.97247Z"/><path class="cls-2" d="M107.9812,45.6322c-5.19531,0-9.42188,4.22656-9.42188,9.42188s4.22656,9.42188,9.42188,9.42188c5.19434,0,9.4209-4.22656,9.4209-9.42188s-4.22656-9.42188-9.4209-9.42188Z"/><path class="cls-2" d="M113.38586,0H28.3465C12.69116,0,0,12.6911,0,28.34644v85.03937c0,15.65533,12.69116,28.3465,28.3465,28.3465h85.03937c15.65527,0,28.34644-12.69116,28.34644-28.3465V28.34644c0-15.65533-12.69116-28.34644-28.34644-28.34644ZM127.96252,106.90741H13.76984V34.82483h114.19269v72.08258Z"/></svg>