<?xml version="1.0" encoding="UTF-8"?><svg id="WZOR" xmlns="http://www.w3.org/2000/svg" viewBox="0 0 141.7323 141.7323"><defs><style>.cls-1{fill:#f1e9da;}.cls-1,.cls-2{stroke-width:0px;}.cls-2{fill:#192a51;}</style></defs><rect id="TLO" class="cls-1" x=".00002" y="0" width="141.73228" height="141.73228" rx="28.34646" ry="28.34646"/><path class="cls-2" d="M100.50867,87.58679v-1.72174c-.20758,0-.40015-.04041-.42438.00635-.13245.50635-.3642.94159-.63147,1.33734-1.87427.4093-3.1828-.13654-3.68835-1.62415-.16876-.49658-.2876-1.00519-.2876-1.53033,0-.52509.11884-1.03375.2876-1.53033.50555-1.48755,1.81409-2.03339,3.68835-1.62408.29742.40808.50189.85742.63147,1.33734.02423.04675.2168.00629.42438.00629v-1.72168c-1.55621-.86963-4.32867-.55865-5.36542.87451-.56342.77887-.89148,1.72107-.89148,2.65796,0,.93695.32806,1.87915.89148,2.65802,1.03674,1.43317,3.8092,1.74414,5.36542.87451Z"/><path class="cls-2" d="M85.77466,80.06989v.44916h.52966c.19861,0,.35962.16101.35962.35962v6.26886c0,.19861-.16101.35962-.35962.35962h-.52966v.44916h2.99487v-.44916h-.52966c-.19861,0-.35962-.16101-.35962-.35962v-6.26886c0-.19861.16101-.35962.35962-.35962h.52966v-.44916h-2.99487Z"/><path class="cls-2" d="M89.89984,59.15979c0,2.64233.0022,5.28461-.00098,7.92694-.00006.05731-.00018.24701-.00043.47034-.00055.49695-.4035.89954-.90045.89954h-.43842v.70618h4.27222v-.70618h-.40253c-.49738,0-.90039-.40314-.90039-.90051v-13.25952c-.59357.24615-1.63226.66815-3.21417.89526v.67267h1.58514v3.29529Z"/><path class="cls-2" d="M83.41846,69.44653c.72406-.08783,1.45807-.32367,2.12109-.63507,1.31573-.6181,1.89777-3.29047.02875-4.33551-.54968-.30731-1.12488-.56891-1.67999-.86707-.38086-.20465-.76733-.40869-1.11536-.66229-.50085-.36493-.64099-.89874-.48975-1.47858.15643-.59973.59863-.90405,1.20538-.97101.64868-.07159,1.25165.03387,1.78766.4718.04773.39117.09491.69617.14832,1.13397h.93738v-2.12482c-1.362-.54462-2.67914-.57855-3.99603-.15399-1.19086.38391-1.74792,1.25623-1.77582,2.50403-.02368,1.06042.58002,1.68604,1.39929,2.15967.78424.45337,1.6272.80737,2.40021,1.27747.69556.42303.91925,1.04602.67822,1.72174-.23218.65106-.73535,1.0163-1.42834,1.06641-.71747.05188-1.41901.00372-1.97717-.52423-.08148-.52417-.159-1.11865-.24554-1.6759h-.96558v2.66718c1.00183.44678,1.99213.54449,2.96729.42621Z"/><path class="cls-2" d="M75.29999,82.17035c-.01917.85815.46942,1.3645,1.13245,1.74774.63464.36694,1.31683.65338,1.94244,1.03387.56287.34235.7439.8465.54889,1.39337-.18793.52686-.59515.82245-1.15601.86298-.58057.04199-1.14838.00305-1.6001-.42419-.06586-.42426-.1286-.90533-.19867-1.35626h-.78143v2.15845c.81079.36157,1.61218.44067,2.40137.34491.58594-.07104,1.17999-.2619,1.71655-.51398,1.06476-.50018,1.53583-2.6629.02332-3.50854-.44489-.24878-.91034-.46045-1.35962-.70178-.30823-.16559-.62097-.33075-.90265-.53595-.40533-.29535-.51874-.72736-.39636-1.19653.12665-.48535.4845-.73163.97552-.78589.52496-.05792,1.01294.02747,1.44672.38184.03864.31659.07678.56335.12.91772h.75861v-1.71954c-1.10223-.4408-2.16815-.46826-3.23389-.12469-.96375.31073-1.41455,1.01666-1.43713,2.02649Z"/><path class="cls-2" d="M75.00092,69.44653c.72406-.08783,1.45813-.32367,2.12109-.63507,1.31573-.6181,1.89783-3.29047.02881-4.33551-.54974-.30731-1.12488-.56891-1.67999-.86707-.38092-.20465-.7674-.40869-1.11542-.66229-.50079-.36493-.64099-.89874-.48975-1.47858.15643-.59973.59869-.90405,1.20544-.97101.64862-.07159,1.25165.03387,1.78766.4718.04767.39117.09485.69617.14825,1.13397h.93738v-2.12482c-1.362-.54462-2.67908-.57855-3.99603-.15399-1.19086.38391-1.74792,1.25623-1.77576,2.50403-.02374,1.06042.57996,1.68604,1.39923,2.15967.78424.45337,1.6272.80737,2.40021,1.27747.69562.42303.91931,1.04602.67828,1.72174-.23224.65106-.73535,1.0163-1.42841,1.06641-.71741.05188-1.41901.00372-1.97717-.52423-.08142-.52417-.159-1.11865-.24554-1.6759h-.96558v2.66718c1.00183.44678,1.99213.54449,2.96729.42621Z"/><path class="cls-2" d="M58.10529,86.97638c-.08917-.26514-.18036-.53015-.27649-.79449-.19403-.53351-.73969-1.99805-2.30194-6.0907h-.75189c-1.00232,1.9696-1.45258,4.12921-2.40765,6.0907-.14386.29547-.29956.58112-.46307.85992-.05804.099-.16461.16016-.27942.16016h-.22522v.47955h2.27338v-.47955h-.54736c-.06836,0-.13239-.03363-.17108-.09003-.03876-.05634-.0473-.12811-.02283-.19202l.2829-.73804c.14117-.36847.27899-.72791.41492-1.0827h2.63617c.14154.3681.28046.72919.41638,1.0827l.29877.77667c.02118.05511.01385.11707-.01953.16571s-.08862.0777-.14764.0777h-.30487v.47955h2.40637v-.47955h-.49609c-.14221,0-.26843-.09076-.31378-.22559ZM53.87372,84.36438c.33777-.93268.66083-1.82465,1.05829-2.922.4115,1.10229.73401,1.96625,1.09082,2.922h-2.14911Z"/><path class="cls-2" d="M46.40363,86.99915c0,.19867-.16107.35968-.35968.35968h-2.38885c-.19861,0-.35962-.16101-.35962-.35968v-6.12048c0-.19861.16101-.35962.35962-.35962h.52966v-.44916h-2.99487v.44916h.52966c.19861,0,.35962.16101.35962.35962v6.12048c0,.19867-.16101.35968-.35962.35968h-.52966v.4491h5.66284v-2.04016h-.4491v1.23138Z"/><path class="cls-2" d="M98.75702,69.46765c1.37793.01825,2.58752-.37512,3.79095-1.18884v-.96637c-3.98999,1.82281-6.42883.62421-6.31293-3.23236h6.32574c0-.57611.04803-1.04669-.00873-1.50433-.19348-1.56146-1.28979-2.71442-2.77856-2.97504-2.0639-.36127-4.07141.73547-4.88239,2.68298-.6012,1.44366-.60535,2.92651-.11316,4.38458.58069,1.72028,2.13239,2.77484,3.97906,2.79938ZM98.78101,60.50787c1.34955-.00409,2.0426.91693,1.95581,2.72711h-4.30707c-.01532-1.56244,1.00531-2.72302,2.35126-2.72711Z"/><path class="cls-2" d="M68.24408,83.90869c-.44489-.24878-.9104-.46045-1.35962-.70178-.30823-.16559-.62097-.33075-.90259-.53595-.40533-.29535-.51874-.72736-.39636-1.19653.12659-.48535.48444-.73163.97546-.78589.52496-.05792,1.01294.02747,1.44672.38184.03864.31659.07678.56335.12.91772h.75861v-1.71954c-1.10217-.4408-2.16815-.46826-3.23389-.12469-.96375.31073-1.41455,1.01666-1.43713,2.02649-.01917.85815.46942,1.3645,1.13245,1.74774.63464.36694,1.31683.65338,1.94244,1.03387.56287.34235.74396.8465.54889,1.39337-.18793.52686-.59509.82245-1.15601.86298-.58057.04199-1.14838.00305-1.60004-.42419-.06592-.42426-.12866-.90533-.19873-1.35626h-.78143v2.15845c.81079.36157,1.61218.44067,2.40137.34491.586-.07104,1.17999-.2619,1.71655-.51398,1.06482-.50018,1.53583-2.6629.02332-3.50854Z"/><path class="cls-2" d="M105.90778,67.08673c-.00006.05731-.00018.24701-.00043.47034-.00055.49695-.4035.89954-.90045.89954h-.43842v.70618h4.27222v-.70618h-.40253c-.49738,0-.90039-.40314-.90039-.90051v-5.21826c.01141-.00775.0235-.01367.03473-.02167.46246-.3269.98334-.92358,1.6109-1.07312.60046-.14301,1.31189.17877,2.04913.30945v-1.66779c-.9483-.52368-1.75269-.42633-2.48309.35107-.33722.35889-.7467.65009-1.19727,1.03497-.02954.02533-.05896.05078-.08826.07623l-.00635-.02234v-1.31659c0-.03009,0,.10272,0-.67322-1.11176.43658-2.02325.70642-3.13397.86591v.67267h1.58496c.00049,2.07111.00171,4.14221-.00079,6.21332Z"/><path class="cls-2" d="M52.37433,57.67078c.59399.00543,1.05652-.46069,1.03699-1.04504-.01886-.56348-.53973-1.06-1.07959-1.02924-.56262.03204-1.01404.55603-.97186,1.12823.03949.5365.47333.9411,1.01447.94604Z"/><path class="cls-2" d="M39.6181,59.15979c0,2.64233.00214,5.28461-.00104,7.92694-.00006.05731-.00018.24701-.00043.47034-.00049.49695-.4035.89954-.90045.89954h-.43842v.70618h4.27222v-.70618h-.40253c-.49738,0-.90033-.40314-.90033-.90051v-5.94757c.83972-.51703,1.69287-.75659,2.6297-.64917.92444.10602,1.44214.50775,1.4696,1.39838.04596,1.49396.03369,3.76233.02496,5.45734-.11182.37024-.45154.64154-.85815.64154h-.43842v.70618h4.27222v-.70618h-.40253c-.4184,0-.76672-.28662-.86786-.67328,0-.33276-.00006-.66766-.00006-.74384-.00037-1.61694.03558-3.23492-.0105-4.85052-.05542-1.94299-1.50391-3.01361-3.38702-2.52429-.56696.14728-1.10028.42249-1.65112.63385-.23938.0918-.48395.1701-.86108.30164v-5.50494c0-.28485,0,.23547,0-.76935-1.11176.43665-2.02325.70648-3.13391.86597v.67267h1.58514v3.29529Z"/><path class="cls-2" d="M61.59674,67.08673c-.00012.05731-.00018.24701-.00043.47034-.00055.49695-.40356.89954-.90051.89954h-.43835v.70618h4.27222v-.70618h-.40259c-.49731,0-.90033-.40314-.90033-.90051v-5.94757c.83978-.51703,1.69287-.75659,2.62976-.64917.92444.10602,1.44214.50775,1.46954,1.39838.04602,1.49396.03369,3.76233.02502,5.45734-.11182.37024-.45154.64154-.85822.64154h-.43835v.70618h4.27222v-.70618h-.40259c-.41833,0-.76672-.28662-.86786-.67328v-.74384c-.00037-1.61694.03552-3.23492-.0105-4.85052-.05542-1.94299-1.50391-3.01361-3.38702-2.52429-.56702.14728-1.10034.42249-1.65112.63385-.23938.0918-.48395.1701-.86108.30164v-.6095c0-.22119,0,.22864,0-.73981-1.11176.43658-2.02325.70642-3.13397.86591v.67267h1.58496c.00049,2.09912.00171,4.19818-.00079,6.2973Z"/><path class="cls-2" d="M15.49829,98.85339c29.17053.11835,58.20221.23621,87.27979.35419,7.82233-18.87146,15.61395-37.66876,23.46399-56.60699H39.54547c-7.98907,18.68848-15.98871,37.40186-24.04718,56.25281ZM124.57385,43.68494c-7.53625,18.18646-15.01233,36.22089-22.54858,54.40106-28.20001-.1109-56.40631-.22174-84.83124-.33582,7.76434-18.16431,15.44-36.11639,23.11243-54.06525h84.2674Z"/><path class="cls-2" d="M30.39856,86.71228c1.03674,1.43317,3.8092,1.74414,5.36536.87451v-1.72174c-.20752,0-.40015-.04041-.42438.00635-.13245.50635-.3642.94159-.63147,1.33734-1.87427.4093-3.1828-.13654-3.68835-1.62415-.1687-.49658-.2876-1.00519-.2876-1.53033,0-.52509.1189-1.03375.2876-1.53033.50555-1.48755,1.81409-2.03339,3.68835-1.62408.29742.40808.50195.85742.63147,1.33734.02423.04675.21686.00629.42438.00629v-1.72168c-1.55615-.86963-4.32861-.55865-5.36536.87451-.56348.77887-.89148,1.72107-.89148,2.65796,0,.93695.328,1.87915.89148,2.65802Z"/><path class="cls-2" d="M113.38586,0H28.3465C12.69116,0,0,12.6911,0,28.34644v85.03937c0,15.65533,12.69116,28.3465,28.3465,28.3465h85.03937c15.65527,0,28.34644-12.69116,28.34644-28.3465V28.34644c0-15.65533-12.69116-28.34644-28.34644-28.34644ZM106.36774,102.51379c-32.56366.07318-65.08075.14624-97.80109.21979,8.95593-21.25427,17.84711-42.35498,26.76068-63.50879.31659-.01489.625-.04132.93347-.04224,3.43884-.00983,6.87769-.0202,10.31653-.02185,21.18701-.01025,42.37408-.00787,63.5611-.03278,7.22894-.00854,14.45782-.0838,21.68677-.12811.3913-.00238.78271-.00031,1.34045-.00031-8.97388,21.26929-17.86896,42.35156-26.79791,63.51428Z"/><path class="cls-2" d="M56.06122,57.66718c.54474-.00134.95703-.40942.98035-.97015.02509-.60449-.40875-1.0741-1.00055-1.08301-.52698-.00793-.96735.42706-.98468.9726-.01929.60712.42236,1.08203,1.00488,1.08057Z"/><path class="cls-2" d="M51.59131,64.58307c-1.36896.57104-1.88184,1.86743-1.44495,3.2196.39722,1.22937,1.6217,1.89697,3.05328,1.5343.86407-.21881,1.69336-.62988,2.55933-.9657v.82721h3.19763v-.5368c-.44897-.07764-.9834-.1994-1.46869-.41754v-1.18671c-.00024-1.61896.0116-3.23798-.00537-4.85675-.01001-.95276-.27661-1.80408-1.18561-2.2959-1.29089-.69843-4.06549-.34869-5.17798.63696-.6286.55695-.70099.80664-.33691,1.71143h1.62238v-1.36115c2.57001-1.06451,3.6853.16016,3.31146,2.29242-1.44452.48157-2.82031.85449-4.12457,1.39862ZM55.74829,67.46686c-.56604.24829-1.18439.58765-1.8446.79211-.83679.25909-1.5744-.07343-1.92706-.74701-.37988-.72546-.24872-1.60986.47009-2.11987.56696-.40228,1.25116-.64783,1.89984-.92407.42499-.18097.87958-.29248,1.40173-.46124v3.46008Z"/></svg>