<?xml version="1.0" encoding="UTF-8"?><svg id="WZOR" xmlns="http://www.w3.org/2000/svg" viewBox="0 0 141.7323 141.7323"><defs><style>.cls-1{fill:#f1e9da;}.cls-1,.cls-2{stroke-width:0px;}.cls-2{fill:#192a51;}</style></defs><rect id="TLO" class="cls-1" x=".00002" y="0" width="141.73228" height="141.73228" rx="28.34646" ry="28.34646"/><path class="cls-2" d="M61.24347,67.64575h3.4502c.40851-.00592.85785-.02417.95331-.5423.08051-.43707-.27258-.60754-.59717-.73541-.9502-.37433-.88171-1.08563-.68213-1.88153l1.20709-2.9245h5.53442l1.10303,3.24457c.19153.61676-.0614,1.10938-.72021,1.72235-.77832.72412-.46667,1.20575.47552,1.20575h5.06543c.94849-.01074,1.26514-.90411.3996-1.2923-1.18018-.52936-1.62189-1.62219-2.06787-2.69867-2.32349-5.60895-3.70398-9.88342-4.64252-12.17657-.43298-1.05792-.84485-1.61694-1.42767-1.59113-.49854.02209-.89429.58972-1.43097,1.83282-1.79932,4.16718-3.59741,8.3349-5.39789,12.50159-.3244.75092-.65881,1.49469-1.37878,1.97406-.89478.59576-.51489,1.36127.15662,1.36127ZM68.47742,54.20856l2.24475,5.97955h-4.56689l2.32214-5.97955Z"/><path class="cls-2" d="M52.73657,89.6908c-1.00751.67084-.57971,1.53278.17633,1.53278h3.88477c.45996-.00671.96594-.02722,1.07343-.6106.09064-.49213-.30688-.68414-.67242-.82812-1.06989-.42139-.9928-1.22235-.76801-2.11847l1.35913-3.29291h6.23157l1.24194,3.65326c.2157.69446-.06915,1.24908-.81091,1.93927-.8764.81537-.52545,1.3576.53546,1.3576h5.70343c1.06793-.01202,1.4245-1.01788.44995-1.45502-1.32886-.59601-1.82617-1.82654-2.32831-3.03864-2.61621-6.31543-4.17059-11.12836-5.22736-13.71033-.48755-1.19122-.95123-1.82068-1.60754-1.79163-.56128.02496-1.0069.66406-1.61121,2.06372-2.02594,4.69214-4.05054,9.38483-6.07782,14.07642-.36523.84546-.74176,1.68292-1.55243,2.22266ZM61.05804,76.09375l2.52753,6.73273h-5.14215l2.61462-6.73273Z"/><path class="cls-2" d="M43.48535,51.94403c.95001.30865,1.17963.97955,1.1723,1.89087-.02802,3.49481-.01862,6.98993-.0235,10.48492-.0011.84106-.05646,1.64746-1.00812,2.02716-.33063.13196-.64429.34412-.55017.77435.11212.51215.54181.55072.96082.54956,1.74841-.00476,3.49683-.01642,5.24518-.02875.46619-.0033,1.0108.04846,1.1308-.55475.12927-.64996-.42798-.77112-.87592-.84143-1.11877-.17566-1.37231-.89624-1.3396-1.88495.02692-.81421-.04059-1.63129-.02112-2.44604.01331-.5575-.1347-1.25317.62146-1.46344.79547-.22113,1.54645-.04016,1.99347.69836.48114.7948.84656,1.65851,1.2937,2.4751,1.4433,2.63562,3.62457,4.2049,6.64923,4.51398.4491.04584,1.00714.16095,1.20422-.41431.19525-.57007-.29852-.81769-.69019-1.06268-2.32489-1.45416-3.70007-3.64386-4.81421-6.06732-.48444-1.05365-.39795-1.7088.59479-2.50299,2.47083-1.97662,2.16187-5.00305-.55396-6.66052-.80597-.49188-1.69458-.76331-2.6283-.90509-1.45306-.22058-2.90594-.18762-4.36096.05658-1.22388,0-2.44788-.00787-3.67163.005-.34735.00366-.74109.02826-.8811.42365-.17499.49438.15173.80243.5528.93274ZM48.14087,53.24103c.13239-1.39117,1.05188-1.85748,2.40198-1.46368,1.47675.43079,2.39203,2.15082,2.19067,4.1167-.19446,1.89819-1.22437,2.95068-2.92438,3.10376-1.18445.10663-1.64075-.29974-1.65662-1.54425-.00604-.47961-.05707-3.73499-.01166-4.21252Z"/><path class="cls-2" d="M42.13336,91.39783h7.1723c.41241-.00299.96375-.14471.95422-.56122-.01129-.49292-.31122-.72162-.73108-.77942-1.27307-.17535-1.56305-1.04956-1.60919-2.13373v-12.23499c.02869-1.40179.32153-2.40137,1.93158-2.51105.41541-.02832.75537-.17401.75537-.74261,0-.59729-.53522-.56091-.96252-.56042h-7.34827c-.42352.00342-.92798.13086-.92798.63226,0,.5683.41077.64905.81244.6875,1.05743.10132,1.50269.67279,1.51654,1.71606v13.10577c-.07245,1.09552-.50555,1.92761-1.7464,2.07184-.40729.04736-.8476.08496-.8476.6568,0,.63684.54504.6521,1.03058.6532Z"/><path class="cls-2" d="M100.7594,51.8725c.80371.30627.94348.94159.93945,1.68781-.01984,3.66907-.02789,7.33826-.05023,11.00732-.00397.64496-.03754,1.29138-.68134,1.69556-.35004.21973-.737.48602-.55127.96497.17822.45935.65613.41266,1.06012.41681,2.38922.02429,4.77887.0766,7.1676.0506,1.7179-.01868,3.33728-.53107,4.8609-1.29987,3.1886-1.60901,5.16565-4.88776,4.88751-8.03534-.29688-3.35913-2.70508-6.23126-6.1507-7.32275-1.00543-.31848-2.03949-.50354-3.09406-.52271-1.16516-.02124-2.33099-.00482-3.49646-.00482,0,.02753-.00006.05505-.00006.08264-1.5152,0-3.0304-.00555-4.54559.00409-.35492.00226-.74109.05786-.84851.46539-.10565.40094.16193.68054.50262.8103ZM105.35754,53.9621c.04199-1.89111.54395-2.33295,2.43726-2.25769,4.3725.17377,7.27417,4.17059,6.38599,8.79608-.66364,3.45587-3.03656,5.73688-6.18103,5.94153-1.87354.12189-2.48425-.32043-2.5824-2.17719-.09814-1.85748-.02155-3.72412-.02155-5.58673l-.04541-.00018c0-1.57202-.02771-3.14459.00714-4.71582Z"/><path class="cls-2" d="M79.77106,51.72827c.71552.23248,1.78815.50995,1.74908,2.25458v10.60443c-.00629.71466-.43488,1.42633-1.23529,1.73071-.39453.15002-.8028.34808-.6239.87103.15979.46698.60596.474,1.02551.47894,1.22394.01428,2.44775.03864,3.67175.05145.40698.00433.88751.04108.99713-.47321.10565-.49554-.28668-.73395-.69446-.85699-.84106-.25391-1.51959-.64813-1.5307-1.64978-.02972-2.66779-.02936-5.09314-.02936-8.03082,0-.85516-.14636-2.55542,1.24457-1.04871,5.98499,6.48309,8.85791,9.83112,10.21741,11.1463,2.63147,2.54559,2.02533,1.15161,2.02533-12.47784-.0036-1.02527.08698-2.16058,1.37836-2.59204.38074-.12726.85547-.25793.6651-.81512-.16998-.49731-.65796-.3996-1.05011-.39624-1.28229.01093-2.52197-.01245-3.8465-.00989-.45264.00085-1.0509-.01666-1.16333.5791-.11627.61627.44275.74017.91272.81232.73419.11267,1.47351.36487,1.48486,1.1217v7.62433c-.03143.78271-.54718.96564-1.11432.40936-3.11511-3.05554-6.5-5.84985-9.15112-9.35535-.39081-.51685-.66583-1.09766-1.44116-1.0993-1.04919-.0022-2.09827-.04041-3.14752-.0473-.34259-.00226-.74176-.026-.86774.40247-.12689.43146.1814.6546.52368.76587Z"/><path class="cls-2" d="M73.73163,72.26379c-.14404.48981.20593.74316.59454.86945.81226.26398,2.02997.57892,1.9856,2.55945v12.03857c-.00714.81128-.49365,1.61926-1.40234,1.96478-.44788.17029-.91138.39508-.70825.98883.1814.53009.68787.53809,1.16412.54364,1.38953.01624,2.77887.04388,4.16833.05847.46204.00488,1.00757.04663,1.13202-.53723.11993-.56256-.3255-.83319-.78839-.9729-.95483-.28821-1.72504-.73578-1.73773-1.87286-.03369-3.02863-.03326-5.78192-.03326-9.11688,0-.97083-.1662-2.90094,1.41284-1.19049,6.79431,7.35986,10.05579,11.16058,11.59918,12.65363,2.98724,2.88983,2.29919,1.30737,2.29919-14.16522-.00409-1.16394.09869-2.45282,1.56476-2.94263.43219-.14441.97119-.29279.75507-.92535-.19299-.56451-.74695-.45361-1.19214-.44983-1.45569.01239-2.86304-.0141-4.36664-.01123-.51392.00098-1.19305-.01886-1.32068.65741-.13202.69965.50262.84027,1.03613.92218.83344.12793,1.67285.41425,1.68567,1.27338v8.65546c-.03564.88855-.62115,1.09619-1.26501.46472-3.53638-3.46881-7.37903-6.64099-10.38861-10.62054-.44373-.58673-.75592-1.24609-1.63611-1.24792-1.1911-.0025-2.38202-.0459-3.57318-.05371-.38885-.0025-.84204-.02948-.98511.45685Z"/><path class="cls-2" d="M107.97601,71.32739c-5.92957-.04572-10.68469,4.61255-10.52985,10.03107.17212,6.02435,4.44452,10.15381,10.76013,10.50513,5.48694.30524,10.59082-5.03644,10.64227-10.81488.04883-5.48615-5.0462-9.67639-10.87256-9.72131ZM101.90985,80.76483c-.56842-11.67529,11.68811-10.16577,12.43097-.20642.98859,13.25293-11.81177,12.92664-12.43097.20642Z"/><path class="cls-2" d="M23.84113,73.07959c1.00916.03992,1.45013.55511,1.48175,1.53149v13.6059c-.04749.86096-.32172,1.61816-1.31482,1.8291-.47882.10175-.82208.12671-.82208.72656,0,.59888.43542.65704,1.17426.65704,2.2121,0,4.42432-.01117,6.63599-.04572.53937-.00836,1.36798-.03076,1.36798-.65833,0-.69763-.69104-.72571-1.16492-.80389-2.04706-.33765-2.08215-1.43256-2.0531-2.74841.03607-1.63617-.45184-2.61725,1.62549-2.60663,5.55371.0285,8.72247-3.13098,8.72247-6.80243,0-7.0741-9.97351-6.05042-15.49402-6.0014-.41815.00372-.8573.08234-.93109.5946-.08014.55591.36139.70587.77209.72211ZM29.23193,74.83142c-.04303-1.24792.7785-1.62122,1.85907-1.62122.71594,0,4.10132.24731,4.10132,4.82544,0,1.6391-.00232,4.67133-3.79529,5.11285-1.6319.18994-2.14099-.21375-2.1651-1.85553v-6.46155Z"/><path class="cls-2" d="M28.44165,67.0332c1.99359.80719,4.07373.93726,6.0011.86316,1.05878-.06561,1.93219-.11176,2.80432-.17535,2.02441-.14752,2.22498-.36237,2.26636-2.45837.02417-1.22302.01843-2.44666.04175-3.66974.01227-.64142.0072-1.29773.66821-1.69519.31995-.19232.53809-.47241.42365-.86603-.15234-.52368-.61761-.45172-1.01318-.45605-1.74884-.01929-3.49799-.03967-5.24677-.02594-.42688.00342-1.08368.01294-1.16559.44147-.1153.60284.75421.45978,1.19025.57135.62158.159,1.41858.20184,1.56213.92236.31958,1.60352.16388,3.47925-.43445,5.04462-.33185.86829-1.18842,1.07062-2.03381,1.09039-.89392.02087-1.7171-.28522-2.49628-.70807-2.88354-1.56494-4.26538-4.50293-3.76709-8.16583.36432-2.67792,1.39447-5.08783,4.12341-6.0033,2.80798-.94196,4.95795.44666,6.62921,2.6839.27277.36511.76825,1.13013,1.10187.62164.35968-.54834.22711-4.16229.00555-4.88403-.32135-1.04706-1.5376.5957-2.26788.32312-.63684-.23767-1.3739-.22772-2.07025-.28204-2.00153-.15625-3.96228.09076-5.86353.72375-3.58759,1.19446-5.72119,4.10461-5.81677,7.8819-.09564,3.77844,1.89453,6.82007,5.35779,8.22229Z"/><path class="cls-2" d="M127.2168,34.54083H14.5155v72.65057h112.70129V34.54083ZM124.5957,104.90173H17.31274V36.78552h107.28296v68.11621Z"/><path class="cls-2" d="M113.38586,0H28.3465C12.69116,0,0,12.6911,0,28.34644v85.03937c0,15.65533,12.69116,28.3465,28.3465,28.3465h85.03937c15.65527,0,28.34644-12.69116,28.34644-28.3465V28.34644c0-15.65533-12.69116-28.34644-28.34644-28.34644ZM130.10175,110.23932H11.63055V31.49292h118.47119v78.7464Z"/></svg>