<?xml version="1.0" encoding="UTF-8"?><svg id="Warstwa_2" xmlns="http://www.w3.org/2000/svg" viewBox="0 0 141.73228 119.05512"><defs><style>.cls-1{fill:#f5b700;}.cls-2{fill:#fff;opacity:.5;}</style></defs><path class="cls-1" d="M65.46526,11.58767c-4.33804,0-8.5682-1.33456-12.10187-3.81798l-4.9516-3.47992c-3.97034-2.7903-8.72324-4.28978-13.59735-4.28978H9.6168C4.30557,0,0,4.24942,0,9.49126v100.0727c0,5.24184,4.30557,9.49116,9.6168,9.49116h122.49858c5.31123,0,9.6169-4.24932,9.6169-9.49116V21.07818c0-5.24146-4.3053-9.49051-9.61615-9.49051h-66.65087Z"/><path class="cls-2" d="M9.63987,21.44747c-2.66869,0-4.83209,2.13514-4.83209,4.76896v83.34784c0,2.61729,2.1575,4.74578,4.80944,4.74578h122.49775c2.65194,0,4.80861-2.12849,4.80861-4.74578V30.93798c0-5.24146-4.3053-9.49051-9.61615-9.49051H9.63987Z"/></svg>